<?xml version="1.0" encoding="utf-8"?>
<!-- Generator: Adobe Illustrator 21.1.0, SVG Export Plug-In . SVG Version: 6.00 Build 0)  -->
<svg version="1.1" id="Layer_1" xmlns="http://www.w3.org/2000/svg" xmlns:xlink="http://www.w3.org/1999/xlink" x="0px" y="0px"
	 viewBox="0 0 83 81.2" style="enable-background:new 0 0 83 81.2;" xml:space="preserve">
<style type="text/css">
	.st0{fill:#FFFFFF;}
	.st1{fill:#00937F;}
	.st2{fill:#7C7C81;}
	.st3{fill:#B3CB04;}
	.st4{fill:#1E6679;}
	.st5{fill:#60AE42;}
	.st6{fill:#0046AD;}
	.st7{fill-rule:evenodd;clip-rule:evenodd;fill:#FFFFFF;}
	.st8{fill-rule:evenodd;clip-rule:evenodd;}
	.st9{fill:none;stroke:#FFFFFF;stroke-width:0.685;stroke-miterlimit:1;stroke-dasharray:0.685,0.685;}
	.st10{fill:none;stroke:#FFFFFF;stroke-width:0.429;stroke-miterlimit:1;stroke-dasharray:0.309,0.524;}
	.st11{fill-rule:evenodd;clip-rule:evenodd;fill:none;stroke:#FFFFFF;stroke-width:0.1;stroke-miterlimit:10;}
</style>
<g>
	<path class="st11" d="M81.3,41.9c0-2.4-0.5-4.8-1.4-6.9c-0.5-1.3-1.1-2.4-1.8-3.4c0.4-1.2,0.2-2.4-0.3-3.4c-0.5-1-1.7-2.2-2.8-2.5
		c-0.1-0.1-0.2-0.3-0.3-0.4c-5.5-9.7-14.4-13.6-24.2-16.1l0-6.7c0-0.4-0.4-0.6-0.7-0.6H33.2c-0.2,0-0.7,0.2-0.7,0.6l0,6.7
		c-9.6,2.5-18.1,6.1-24.1,16c-0.1,0.1-0.2,0.3-0.3,0.4c-1.2,0.3-2.5,1.6-2.9,2.6c-0.6,1-0.7,2.3-0.3,3.5c-0.7,1-1.3,2.1-1.8,3.4
		c-0.9,2.1-1.3,4.5-1.4,6.9c0,3.9,1.1,7.6,3.1,10.1c-1,1.9,0.7,5.5,3.3,5.8c0.3,0.4,0.4,0.8,0.7,1.1c0.2,0.3,0.5,0.7,0.7,1
		c6.3,9.9,16,12.4,26.3,15c4.5,1.1,5.7,4.5,5.7,4.5s1.2-3.4,5.7-4.5c9.9-2.4,20.5-6,26.5-15.4c0.2-0.3,1-1.4,1.2-1.8
		c2.6-0.3,4.3-3.7,3.2-5.7C80.2,49.5,81.3,45.8,81.3,41.9"/>
	<g>
		<path class="st0" d="M16,46.8c0.3,0,0.7-0.1,1.3-0.1c0.5,0,1.9,0.2,3.3,0.2c3.8,0,5.9-2.5,5.9-5.8c0-4.7-3.3-6-5.9-6
			c-1,0-2.6,0.2-3.2,0.2c-0.5,0-1.1-0.1-1.1-0.1c0.5,0.4,0.5,0.7,0.5,1.5V45C16.8,46.2,16.5,46.5,16,46.8z M18.1,35.7
			c0.5-0.1,1.4-0.2,2.6-0.2c2.5,0,4.4,2.2,4.4,6.1c0,4.1-2.6,5.1-4.6,5.1c-1.1,0-2.2-0.2-2.4-0.3V35.7z"/>
		<path class="st0" d="M48.3,40.2c0-0.5,0-1,0-1.5h-1.5V39h0.4v5.5h-0.4v0.3h2v-0.3h-0.5v-2.9c0-0.9,0.4-2.6,1.6-2.6
			c0.5,0,0.8,0.3,0.8,0.8c0,0,0,0.1,0,0.1c-0.1-0.2-0.3-0.4-0.5-0.4c-0.3,0-0.6,0.3-0.6,0.6c0,0.4,0.3,0.6,0.7,0.6
			c0.5,0,0.8-0.4,0.8-0.9c0-0.7-0.5-1.2-1.2-1.2C49,38.6,48.5,39.4,48.3,40.2z"/>
		<path class="st0" d="M51,43.3c0,1.1,0.9,1.6,1.9,1.6c1,0,1.6-0.5,1.9-1.4v1.2h1.4v-0.3h-0.4v-3.9c0-0.3,0-0.6-0.1-0.9
			c-0.3-0.9-1.3-1.2-2.1-1.2c-0.9,0-2.1,0.3-2.1,1.4c0,0.5,0.3,0.8,0.8,0.8c0.4,0,0.7-0.2,0.7-0.6c0-0.3-0.3-0.5-0.6-0.5
			c-0.2,0-0.4,0.1-0.5,0.3c0.1-0.7,0.8-1,1.4-1c1.1,0,1.4,0.7,1.4,1.7v0.8C53.3,41.3,51,41.3,51,43.3z M54.6,42.4
			c0,0.9-0.3,2.1-1.4,2.1c-0.7,0-1.1-0.6-1.1-1.3c0-1.5,1.3-1.6,2.5-1.6V42.4z"/>
		<path class="st0" d="M60.4,39.3c-0.3-0.5-0.9-0.8-1.5-0.8c-1.8,0-2.4,1.8-2.4,3.3c0,1.5,0.7,3.1,2.4,3.1c1,0,1.4-0.5,1.7-1.4v1.2
			h1.5v-0.3h-0.4v-8.1H60v0.3h0.6v3.2C60.5,39.6,60.4,39.4,60.4,39.3z M59.1,44.5c-0.3,0-0.5-0.1-0.7-0.3c-0.6-0.5-0.7-1.7-0.7-2.5
			c0-1,0.1-2.9,1.4-2.9c1.3,0,1.4,1.7,1.4,2.6C60.5,42.4,60.4,44.5,59.1,44.5z"/>
		<path class="st0" d="M65.1,44.9c2,0,2.7-1.4,2.7-3.2c0-1.7-0.7-3.2-2.6-3.2c-2,0-2.8,1.5-2.8,3.3C62.4,43.6,63.1,44.9,65.1,44.9z
			 M65.1,38.8c1.4,0,1.5,1.9,1.5,2.9c0,1-0.1,2.9-1.5,2.9c-1.4,0-1.5-1.7-1.5-2.8C63.6,40.8,63.7,38.8,65.1,38.8z"/>
		<path class="st0" d="M32.3,41.6c0-0.5,0-1-0.1-1.4c-0.3-1.1-1.2-1.7-2.3-1.7c-1.9,0-2.8,1.5-2.8,3.2c0,1.8,0.6,3.2,2.7,3.2
			c1.6,0,2.6-0.9,2.6-2.5h-0.8c0,1-0.3,2.2-1.6,2.2c-1.5,0-1.6-1.7-1.6-2.8v-0.2H32.3z M29.9,38.8c1.3,0,1.2,1.6,1.3,2.5h-2.7
			C28.4,40.4,28.7,38.8,29.9,38.8z"/>
		<path class="st0" d="M42.4,34.4L42.4,34.4c-2.5-0.7-3.8-0.4-6.3-0.2c-0.1,0-0.2,0-0.3,0h-0.2c-0.5,0-1.3-0.1-1.3-0.1
			c0.2,0.2,0.6,0.4,0.6,1.4v13.1c0,1.4-0.4,1.7-0.8,1.9c0.2,0,1.1-0.1,1.5-0.1c0.6,0,1.5,0.1,1.5,0.1c-0.5-0.2-0.8-0.5-0.8-1.9V34.6
			c1.7-0.6,5.5-0.3,6.8,0.6h0c1.4,0.8,1.8,2.3,1.8,4c0,3.6-2.5,5.3-6.2,5.3h-1.3v0.3h1.4c4.1,0,7.4-1.9,7.4-5.8
			C46.1,37,45.1,35.1,42.4,34.4z"/>
		<path class="st0" d="M38.7,49.3l0.6-2.4h-0.8V47h0.1c0.1,0,0.2,0,0.3,0c0.1,0,0.1,0.1,0.1,0.2c0,0,0,0.1,0,0.2c0,0,0,0,0,0l-0.3,1
			l0,0v-0.1c0-0.1,0-0.3-0.1-0.3c-0.1-0.1-0.1-0.1-0.3-0.1c-0.1,0-0.2,0-0.3,0.1c-0.1,0.1-0.2,0.1-0.3,0.3c-0.1,0.1-0.2,0.3-0.3,0.4
			c-0.1,0.1-0.1,0.3-0.1,0.4c0,0.2,0,0.4,0.1,0.5c0.1,0.1,0.2,0.2,0.4,0.2c0.1,0,0.2,0,0.3-0.1c0.1-0.1,0.2-0.2,0.2-0.4l0,0
			c0,0.1,0,0.1,0,0.1c0,0,0,0.1,0,0.1c0,0.1,0,0.2,0.1,0.2c0,0.1,0.1,0.1,0.2,0.1c0.1,0,0.2-0.1,0.3-0.2c0.1-0.1,0.2-0.3,0.3-0.6
			l-0.1,0c-0.1,0.2-0.2,0.4-0.2,0.5c-0.1,0.1-0.2,0.2-0.2,0.2c0,0,0,0-0.1,0c0,0,0,0,0-0.1c0,0,0-0.1,0-0.1
			C38.7,49.5,38.7,49.4,38.7,49.3z M38.6,48.9c-0.1,0.2-0.1,0.4-0.2,0.5c-0.1,0.1-0.1,0.1-0.2,0.2c-0.1,0-0.1,0.1-0.2,0.1
			c-0.1,0-0.1,0-0.2-0.1c0-0.1-0.1-0.1-0.1-0.3c0-0.1,0-0.2,0-0.3c0-0.1,0.1-0.2,0.1-0.4c0-0.1,0.1-0.2,0.1-0.3
			c0-0.1,0.1-0.1,0.1-0.2c0-0.1,0.1-0.1,0.2-0.2c0.1,0,0.1-0.1,0.2-0.1c0.1,0,0.2,0,0.2,0.1c0,0.1,0.1,0.2,0.1,0.3
			C38.7,48.5,38.6,48.7,38.6,48.9z"/>
		<path class="st0" d="M39.8,48.9c0.3,0,0.6-0.1,0.7-0.2c0.2-0.1,0.2-0.3,0.2-0.5c0-0.1,0-0.2-0.1-0.2c-0.1-0.1-0.2-0.1-0.3-0.1
			c-0.1,0-0.2,0-0.3,0.1c-0.1,0.1-0.2,0.1-0.3,0.3c-0.1,0.1-0.2,0.3-0.3,0.4c-0.1,0.1-0.1,0.3-0.1,0.4c0,0.2,0.1,0.4,0.2,0.5
			c0.1,0.1,0.2,0.2,0.4,0.2c0.1,0,0.3-0.1,0.4-0.2c0.1-0.1,0.3-0.3,0.4-0.5l-0.1,0c-0.1,0.2-0.2,0.4-0.4,0.5
			c-0.1,0.1-0.3,0.2-0.4,0.2c-0.1,0-0.2,0-0.2-0.1c0-0.1-0.1-0.2-0.1-0.3c0-0.1,0-0.1,0-0.2C39.8,49.1,39.8,49,39.8,48.9z
			 M40.1,48.2c0.1-0.2,0.2-0.2,0.3-0.2c0.1,0,0.1,0,0.2,0.1c0,0.1,0.1,0.1,0.1,0.2c0,0.2-0.1,0.3-0.2,0.4c-0.1,0.1-0.4,0.2-0.6,0.2
			C39.9,48.5,40,48.3,40.1,48.2z"/>
		<path class="st0" d="M41.9,48.3c0,0.1,0,0.1,0,0.1c0,0,0.1,0,0.1,0c0.1,0,0.1,0,0.1-0.1c0,0,0.1-0.1,0.1-0.2c0-0.1,0-0.2-0.1-0.3
			c-0.1-0.1-0.2-0.1-0.4-0.1c-0.2,0-0.3,0.1-0.4,0.2c-0.1,0.1-0.2,0.2-0.2,0.4c0,0.2,0.1,0.4,0.4,0.6c0,0,0.1,0,0.1,0.1
			c0.1,0.1,0.1,0.1,0.2,0.2c0,0.1,0,0.1,0,0.2c0,0.1,0,0.2-0.1,0.2c-0.1,0.1-0.2,0.1-0.3,0.1c-0.1,0-0.2,0-0.3-0.1
			c-0.1,0-0.1-0.1-0.1-0.1c0,0,0,0,0,0c0.1,0,0.2-0.1,0.2-0.2c0,0,0-0.1,0-0.1c0,0-0.1,0-0.1,0c-0.1,0-0.1,0-0.1,0.1
			c0,0-0.1,0.1-0.1,0.2c0,0.1,0.1,0.2,0.2,0.3c0.1,0.1,0.2,0.1,0.4,0.1c0.2,0,0.3-0.1,0.5-0.2c0.1-0.1,0.2-0.2,0.2-0.4
			c0-0.1,0-0.2-0.1-0.3c-0.1-0.1-0.2-0.2-0.4-0.3c-0.1-0.1-0.2-0.2-0.2-0.2c0-0.1-0.1-0.1-0.1-0.2c0-0.1,0-0.2,0.1-0.2
			c0.1-0.1,0.2-0.1,0.3-0.1c0.1,0,0.2,0,0.2,0.1c0.1,0,0.1,0.1,0.1,0.1c0,0,0,0-0.1,0.1C42,48.2,41.9,48.2,41.9,48.3z"/>
		<path class="st0" d="M43.8,49.3l0.6-2.4h-0.8V47h0.1c0.1,0,0.2,0,0.3,0c0.1,0,0.1,0.1,0.1,0.2c0,0,0,0.1,0,0.2c0,0,0,0,0,0l-0.3,1
			l0,0v-0.1c0-0.1,0-0.3-0.1-0.3c-0.1-0.1-0.1-0.1-0.3-0.1c-0.1,0-0.2,0-0.3,0.1c-0.1,0.1-0.2,0.1-0.3,0.3c-0.1,0.1-0.2,0.3-0.3,0.4
			c-0.1,0.1-0.1,0.3-0.1,0.4c0,0.2,0,0.4,0.1,0.5c0.1,0.1,0.2,0.2,0.4,0.2c0.1,0,0.2,0,0.3-0.1c0.1-0.1,0.2-0.2,0.2-0.4l0,0
			c0,0.1,0,0.1,0,0.1c0,0,0,0.1,0,0.1c0,0.1,0,0.2,0.1,0.2c0,0.1,0.1,0.1,0.2,0.1c0.1,0,0.2-0.1,0.3-0.2c0.1-0.1,0.2-0.3,0.3-0.6
			l-0.1,0c-0.1,0.2-0.2,0.4-0.2,0.5c-0.1,0.1-0.2,0.2-0.2,0.2c0,0,0,0-0.1,0c0,0,0,0,0-0.1c0,0,0-0.1,0-0.1
			C43.8,49.5,43.8,49.4,43.8,49.3z M43.6,48.9c-0.1,0.2-0.1,0.4-0.2,0.5c-0.1,0.1-0.1,0.1-0.2,0.2c-0.1,0-0.1,0.1-0.2,0.1
			c-0.1,0-0.1,0-0.2-0.1c0-0.1-0.1-0.1-0.1-0.3c0-0.1,0-0.2,0-0.3c0-0.1,0.1-0.2,0.1-0.4c0-0.1,0.1-0.2,0.1-0.3
			c0-0.1,0.1-0.1,0.1-0.2c0-0.1,0.1-0.1,0.2-0.2c0.1,0,0.1-0.1,0.2-0.1c0.1,0,0.2,0,0.2,0.1c0,0.1,0.1,0.2,0.1,0.3
			C43.7,48.5,43.7,48.7,43.6,48.9z"/>
		<path class="st0" d="M44.9,48.9c0.3,0,0.6-0.1,0.7-0.2c0.2-0.1,0.2-0.3,0.2-0.5c0-0.1,0-0.2-0.1-0.2c-0.1-0.1-0.2-0.1-0.3-0.1
			c-0.1,0-0.2,0-0.3,0.1c-0.1,0.1-0.2,0.1-0.3,0.3c-0.1,0.1-0.2,0.3-0.3,0.4c-0.1,0.1-0.1,0.3-0.1,0.4c0,0.2,0.1,0.4,0.2,0.5
			c0.1,0.1,0.2,0.2,0.4,0.2c0.1,0,0.3-0.1,0.4-0.2c0.1-0.1,0.3-0.3,0.4-0.5l-0.1,0c-0.1,0.2-0.2,0.4-0.4,0.5
			c-0.1,0.1-0.3,0.2-0.4,0.2c-0.1,0-0.2,0-0.2-0.1c0-0.1-0.1-0.2-0.1-0.3c0-0.1,0-0.1,0-0.2C44.9,49.1,44.9,49,44.9,48.9z
			 M45.2,48.2c0.1-0.2,0.2-0.2,0.3-0.2c0.1,0,0.1,0,0.2,0.1c0,0.1,0.1,0.1,0.1,0.2c0,0.2-0.1,0.3-0.2,0.4c-0.1,0.1-0.4,0.2-0.6,0.2
			C45,48.5,45.1,48.3,45.2,48.2z"/>
		<path class="st0" d="M48.1,49.3l0.6-2.2h-0.1c-0.1,0.1-0.2,0.3-0.4,0.3c-0.2,0.1-0.4,0.2-0.6,0.2v0.1c0.1,0,0.3-0.1,0.4-0.1
			c0.1,0,0.2-0.1,0.2-0.1c0,0,0,0,0,0c0,0,0,0,0,0c0,0,0,0,0,0.1c0,0,0,0.1,0,0.1l-0.4,1.5c0,0.1-0.1,0.2-0.1,0.2
			c0,0-0.1,0.1-0.1,0.1c0,0-0.1,0-0.2,0c-0.1,0-0.2,0-0.3,0h-0.1v0.1h1.5v-0.1c0,0,0,0-0.1,0c0,0-0.1,0-0.1,0c-0.1,0-0.2,0-0.3,0
			c-0.1,0-0.1-0.1-0.1-0.1C48.1,49.5,48.1,49.4,48.1,49.3C48.1,49.4,48.1,49.3,48.1,49.3z"/>
		<path class="st0" d="M51,47.7c0-0.2-0.1-0.3-0.2-0.4c-0.1-0.1-0.3-0.2-0.5-0.2c-0.2,0-0.4,0.1-0.5,0.2c-0.1,0.1-0.2,0.3-0.2,0.5
			c0,0.1,0,0.2,0.1,0.3c0,0.1,0.1,0.2,0.2,0.2c-0.2,0.1-0.4,0.2-0.5,0.3c-0.1,0.1-0.2,0.3-0.2,0.4c0,0.2,0.1,0.3,0.2,0.5
			c0.1,0.1,0.3,0.2,0.5,0.2c0.1,0,0.3,0,0.4-0.1c0.1,0,0.2-0.1,0.3-0.2c0.1-0.1,0.1-0.2,0.2-0.3c0-0.1,0.1-0.2,0.1-0.3
			c0-0.1,0-0.3-0.1-0.4c-0.1-0.1-0.2-0.2-0.3-0.3c0.2-0.1,0.3-0.1,0.4-0.2C51,48,51,47.9,51,47.7z M50.5,48.7
			c0.1,0.1,0.1,0.2,0.1,0.4c0,0.2-0.1,0.3-0.2,0.4c-0.1,0.1-0.3,0.2-0.5,0.2c-0.2,0-0.3-0.1-0.5-0.2c-0.1-0.1-0.2-0.2-0.2-0.4
			c0-0.2,0-0.3,0.1-0.4c0.1-0.1,0.2-0.2,0.4-0.3C50.2,48.5,50.4,48.6,50.5,48.7z M50.8,48.1c-0.1,0.1-0.2,0.2-0.3,0.2
			c-0.2-0.1-0.4-0.2-0.5-0.3c-0.1-0.1-0.1-0.2-0.1-0.3c0-0.1,0.1-0.3,0.2-0.3c0.1-0.1,0.2-0.1,0.4-0.1c0.2,0,0.3,0,0.4,0.1
			c0.1,0.1,0.2,0.2,0.2,0.4C50.9,47.8,50.8,48,50.8,48.1z"/>
		<path class="st0" d="M52.8,48.1c0.2-0.1,0.2-0.3,0.2-0.4c0-0.1-0.1-0.3-0.2-0.4c-0.1-0.1-0.3-0.1-0.4-0.1c-0.2,0-0.3,0-0.4,0.1
			c-0.1,0.1-0.2,0.2-0.2,0.3c0,0.1,0,0.1,0,0.1s0.1,0.1,0.1,0.1c0,0,0.1,0,0.1,0c0,0,0-0.1,0-0.1c0,0,0-0.1-0.1-0.1
			c0,0-0.1-0.1-0.1-0.1c0,0,0-0.1,0.1-0.1c0.1,0,0.2-0.1,0.2-0.1c0.1,0,0.2,0,0.3,0.1c0.1,0.1,0.1,0.2,0.1,0.3
			c0,0.2-0.1,0.3-0.2,0.4s-0.3,0.2-0.5,0.2c0,0-0.1,0-0.2,0c-0.1,0-0.2,0-0.2,0.1c0,0,0,0,0,0c0,0,0,0,0.1,0c0,0,0.1,0,0.2,0
			c0.1,0,0.1,0,0.2,0c0.1,0,0.2,0,0.2,0.1c0.1,0.1,0.1,0.2,0.1,0.3c0,0.2-0.1,0.4-0.2,0.6c-0.1,0.1-0.3,0.2-0.5,0.2
			c-0.1,0-0.2,0-0.3-0.1c-0.1-0.1-0.1-0.1-0.1-0.2c0,0,0-0.1,0.1-0.1c0.1,0,0.1-0.1,0.1-0.2c0,0,0-0.1,0-0.1c0,0-0.1,0-0.1,0
			c-0.1,0-0.1,0-0.1,0.1c0,0-0.1,0.1-0.1,0.2c0,0.1,0.1,0.3,0.2,0.3c0.1,0.1,0.3,0.1,0.4,0.1c0.1,0,0.3,0,0.4-0.1
			c0.1-0.1,0.3-0.2,0.4-0.3c0.1-0.1,0.1-0.2,0.1-0.2s0-0.1,0-0.2c0-0.2-0.1-0.3-0.2-0.4c-0.1-0.1-0.3-0.2-0.5-0.2l0,0
			C52.4,48.3,52.6,48.2,52.8,48.1z"/>
		<path class="st0" d="M54.1,49.3l0.6-2.2h-0.1c-0.1,0.1-0.2,0.3-0.4,0.3c-0.2,0.1-0.4,0.2-0.6,0.2v0.1c0.1,0,0.3-0.1,0.4-0.1
			c0.1,0,0.2-0.1,0.2-0.1c0,0,0,0,0,0c0,0,0,0,0,0c0,0,0,0,0,0.1c0,0,0,0.1,0,0.1l-0.4,1.5c0,0.1-0.1,0.2-0.1,0.2
			c0,0-0.1,0.1-0.1,0.1c0,0-0.1,0-0.2,0c-0.1,0-0.2,0-0.3,0h-0.1v0.1h1.5v-0.1c0,0,0,0-0.1,0c0,0-0.1,0-0.1,0c-0.1,0-0.2,0-0.3,0
			c-0.1,0-0.1-0.1-0.1-0.1C54.1,49.5,54.1,49.4,54.1,49.3C54.1,49.4,54.1,49.3,54.1,49.3z"/>
	</g>
	<path class="st0" d="M79,41.9c0-2.3-0.5-4.5-1.3-6.5c-0.4-1.2-1-2.3-1.7-3.2c0.4-1.2,0.2-2.3-0.3-3.2c-0.5-1-1.3-1.8-2.4-2
		c-0.1-0.1-0.2-0.3-0.3-0.4c-5.7-9.3-15.1-13.4-24.3-15.7c0,0,0,0.1,0,0.2v0.9c0,0.3-0.2,0.5-0.5,0.5v0c0,0,0,0,0,0
		c0.3,0,0.5,0.2,0.5,0.5v0.9c0,0.3-0.2,0.5-0.5,0.5v0c0,0,0,0,0,0c0.3,0,0.5,0.2,0.5,0.5v0l0.5,0.1l-0.2,0.7l-0.3-0.1v0.2
		c0,0.3-0.2,0.5-0.5,0.5v0c0,0,0,0,0,0c0.3,0,0.5,0.2,0.5,0.5l0,0.3c0.1,0,0.2,0.1,0.4,0.1l0.1-0.2l0.3,0.1l-0.1,0.2
		c0.2,0,0.3,0.1,0.5,0.1l0.1-0.2l0.3,0.1l-0.1,0.2c0.2,0.1,0.3,0.1,0.5,0.2l0.1-0.2l0.3,0.1l-0.1,0.2c0.2,0.1,0.3,0.1,0.5,0.2
		l0.1-0.2l0.3,0.1l-0.1,0.2c0.2,0.1,0.3,0.1,0.5,0.2l0.1-0.2l0.3,0.1L52.4,18c0.2,0.1,0.3,0.1,0.5,0.2l0.1-0.2l0.3,0.1l-0.1,0.2
		c0.2,0.1,0.3,0.1,0.5,0.2l0.1-0.2l0.3,0.1L54,18.6c0.2,0.1,0.3,0.1,0.5,0.2l0.1-0.2l0.3,0.1l-0.1,0.2c0.2,0.1,0.3,0.1,0.5,0.2
		l0.1-0.2l0.3,0.1l-0.1,0.2c0.2,0.1,0.3,0.2,0.5,0.2l0.1-0.2l0.3,0.1l-0.1,0.2c0.2,0.1,0.3,0.1,0.5,0.2l0.1-0.2l0.3,0.1L57,20
		c0.2,0.1,0.3,0.2,0.5,0.2l0.1-0.2l0.3,0.2l-0.1,0.2c0.2,0.1,0.3,0.2,0.5,0.3l0.1-0.2l0.3,0.2l-0.1,0.2c0.2,0.1,0.3,0.2,0.4,0.3
		l0.1-0.2l0.3,0.2l-0.1,0.2c0.1,0.1,0.3,0.2,0.4,0.3l0.1-0.2l0.3,0.2l-0.1,0.2c0.1,0.1,0.3,0.2,0.4,0.3l0.1-0.2
		c0.1,0.1,0.2,0.1,0.3,0.2l-0.1,0.2c0.1,0.1,0.3,0.2,0.4,0.3l0.1-0.2l0.2,0.2l-0.1,0.2c0.1,0.1,0.3,0.2,0.4,0.3l0.1-0.2L62,23
		l-0.1,0.2c0.1,0.1,0.3,0.2,0.4,0.3l0.1-0.2l0.2,0.2l-0.1,0.2c0.1,0.1,0.3,0.2,0.4,0.3l0.1-0.2c0.1,0.1,0.2,0.1,0.2,0.2l-0.1,0.2
		c0.1,0.1,0.2,0.2,0.4,0.4l0.2-0.2l0.2,0.2l-0.2,0.2c0.1,0.1,0.2,0.2,0.4,0.4l0.2-0.2l0.2,0.2l-0.2,0.1c0.1,0.1,0.2,0.3,0.3,0.4
		l0.2-0.2c0.1,0.1,0.1,0.2,0.2,0.2L64.9,26c0.1,0.1,0.2,0.3,0.3,0.4l0.2-0.1c0.1,0.1,0.1,0.2,0.2,0.2l-0.2,0.1
		c0.1,0.1,0.2,0.3,0.3,0.4l0.2-0.1l0.2,0.2l-0.2,0.1c0.1,0.1,0.2,0.3,0.3,0.4l0.2-0.1l0.2,0.3L66.4,28c0.1,0.1,0.2,0.3,0.3,0.4
		l0.2-0.1l0.2,0.3l-0.2,0.1c0.1,0.1,0.2,0.3,0.3,0.4l0.2-0.1l0.1,0.2l-0.2,0.2l0,0c0.1,0.1,0.1,0.1,0.2,0.2c0.1,0,0.2,0.1,0.2,0.1
		l0.1-0.2c0.1,0,0.2,0.1,0.3,0.1L68,29.8c0.2,0.1,0.3,0.2,0.4,0.3l0.1-0.2c0.1,0.1,0.2,0.1,0.3,0.2l-0.1,0.2
		c0.1,0.1,0.2,0.2,0.4,0.4l0.2-0.1c0.1,0.1,0.1,0.2,0.2,0.3l-0.2,0.1c0.1,0.1,0.2,0.3,0.2,0.4c0,0,0,0,0,0.1l0.2-0.1
		c0.1,0.1,0.1,0.2,0.1,0.3l-0.2,0.1c0.1,0.2,0.1,0.3,0.2,0.5l0.2-0.1c0,0.1,0,0.2,0.1,0.3l-0.2,0c0,0.2,0,0.3,0,0.5l0.2,0
		c0,0.1,0,0.2,0,0.3l-0.2,0c0,0.2-0.1,0.3-0.1,0.5l0.1,0l0,0c0,0,0,0,0,0l0.1,0c0,0,0,0,0,0c0,0,0,0,0,0L70,34c0,0,0,0,0,0l0,0
		L69.8,34c0.1,0.1,0.2,0.3,0.3,0.4l0.2-0.1c0.1,0.1,0.1,0.2,0.2,0.3l-0.2,0.1c0.1,0.2,0.2,0.3,0.3,0.4l0.2-0.1l0.1,0.3l-0.2,0.1
		c0.1,0.2,0.1,0.3,0.2,0.5l0.2-0.1l0.1,0.3L71,36.2c0,0.1,0.1,0.2,0.1,0.3c0,0.1,0,0.1,0.1,0.2l0.2-0.1c0,0.1,0.1,0.2,0.1,0.3
		L71.3,37c0.1,0.2,0.1,0.3,0.2,0.5l0.2-0.1c0,0.1,0.1,0.2,0.1,0.3l-0.2,0.1c0.1,0.2,0.1,0.3,0.1,0.5l0.2-0.1c0,0.1,0.1,0.2,0.1,0.3
		l-0.2,0.1c0,0.2,0.1,0.3,0.1,0.5l0.2,0c0,0.1,0,0.2,0.1,0.3l-0.2,0c0,0.2,0.1,0.3,0.1,0.5l0.2,0l0,0.3l-0.2,0c0,0.2,0,0.3,0.1,0.5
		l0.2,0l0,0.3l-0.2,0c0,0.2,0,0.3,0,0.5l0.2,0c0,0.1,0,0.2,0,0.3l0,0.1h-0.2c0,0.2,0,0.3,0,0.5l0.2,0c0,0.1,0,0.2,0,0.3l-0.2,0
		c0,0.2,0,0.3,0,0.5l0.2,0l0,0.3l-0.2,0c0,0.2,0,0.3-0.1,0.5l0.2,0l-0.1,0.3l-0.2,0c0,0.2-0.1,0.3-0.1,0.5l0.2,0l-0.1,0.3l-0.2,0
		c0,0.2-0.1,0.3-0.1,0.5l0.2,0.1c0,0.1-0.1,0.2-0.1,0.3l-0.2-0.1c-0.1,0.2-0.1,0.3-0.2,0.5l0.2,0.1c0,0.1-0.1,0.2-0.1,0.3l-0.2-0.1
		c-0.1,0.2-0.1,0.3-0.2,0.5l0.2,0.1c0,0.1-0.1,0.2-0.1,0.3L71,47.7c-0.1,0.2-0.1,0.3-0.2,0.5l0.2,0.1c0,0.1-0.1,0.2-0.1,0.3
		l-0.2-0.1c-0.1,0.2-0.2,0.3-0.3,0.5l0.2,0.1c-0.1,0.1-0.1,0.2-0.2,0.3l-0.2-0.1c-0.1,0.1-0.2,0.3-0.3,0.4l0.2,0.1
		c-0.1,0.1-0.1,0.1-0.2,0.2l-0.1-0.1l0,0c0.1,0.2,0.1,0.3,0.2,0.5l0.2,0c0,0.1,0,0.2,0.1,0.3l-0.2,0c0,0.2,0,0.3,0,0.5l0.2,0
		c0,0.1,0,0.2-0.1,0.3l-0.2,0c0,0.2-0.1,0.3-0.2,0.5L70,52c0,0.1-0.1,0.2-0.1,0.3l-0.2-0.1c-0.1,0.2-0.2,0.3-0.3,0.4l0.2,0.1
		c-0.1,0.1-0.1,0.2-0.2,0.3l-0.2-0.2c-0.1,0.1-0.2,0.3-0.4,0.4l0.1,0.2c-0.1,0.1-0.2,0.1-0.3,0.2l-0.1-0.2c-0.1,0.1-0.3,0.2-0.5,0.2
		l0.1,0.2c-0.1,0-0.2,0.1-0.3,0.1l-0.1-0.2c-0.1,0-0.2,0.1-0.3,0.1c0,0.1-0.1,0.1-0.1,0.2l0.2,0.1c-0.1,0.1-0.1,0.2-0.2,0.3
		l-0.2-0.1c-0.1,0.1-0.2,0.3-0.3,0.4c0,0,0,0,0,0l0.2,0.1L66.9,55l-0.2-0.1c-0.1,0.1-0.2,0.3-0.3,0.4l0.2,0.1l-0.2,0.2l-0.2-0.1
		c-0.1,0.1-0.2,0.3-0.3,0.4l0.2,0.1l-0.2,0.3l-0.2-0.1c-0.1,0.1-0.2,0.3-0.3,0.4l0.2,0.1l-0.2,0.2l-0.2-0.1
		c-0.1,0.1-0.2,0.3-0.3,0.4l0.2,0.1l-0.2,0.2l-0.2-0.1c-0.1,0.1-0.2,0.3-0.3,0.4l0.2,0.1l-0.2,0.2l-0.2-0.2
		c-0.1,0.1-0.2,0.3-0.4,0.4l0.2,0.2L63.8,59l-0.2-0.2c-0.1,0.1-0.2,0.2-0.4,0.4l0.2,0.2l-0.2,0.2L63,59.4c-0.1,0.1-0.3,0.2-0.4,0.4
		l0.1,0.2l-0.2,0.2L62.4,60c-0.1,0.1-0.3,0.2-0.4,0.3l0.1,0.2l-0.2,0.2l-0.1-0.2c-0.1,0.1-0.3,0.2-0.4,0.3l0.1,0.2
		c-0.1,0.1-0.2,0.1-0.2,0.2L61.1,61c-0.1,0.1-0.3,0.2-0.4,0.3l0.1,0.2l-0.3,0.2l-0.1-0.2c-0.1,0.1-0.3,0.2-0.4,0.3l0.1,0.2l-0.3,0.2
		L59.7,62c-0.1,0.1-0.3,0.2-0.4,0.3l0.1,0.2l-0.3,0.2L59,62.4c-0.1,0.1-0.3,0.2-0.4,0.3l0.1,0.2L58.4,63l-0.1-0.2
		c-0.2,0.1-0.3,0.2-0.5,0.3l0.1,0.2l-0.3,0.1l-0.1-0.2c-0.2,0.1-0.3,0.2-0.5,0.2l0.1,0.2l-0.3,0.1l-0.1-0.2
		c-0.2,0.1-0.3,0.2-0.5,0.2l0.1,0.2l-0.3,0.1L56.1,64c-0.2,0.1-0.3,0.1-0.5,0.2l0.1,0.2l-0.3,0.1l-0.1-0.2c-0.2,0.1-0.3,0.1-0.5,0.2
		l0.1,0.2l-0.3,0.1l-0.1-0.2c-0.2,0.1-0.3,0.1-0.5,0.2l0.1,0.2l-0.3,0.1l-0.1-0.2c-0.2,0.1-0.3,0.1-0.5,0.2l0.1,0.2l-0.3,0.1
		L53,65.2c-0.2,0.1-0.3,0.1-0.5,0.2l0.1,0.2l-0.3,0.1l-0.1-0.2c-0.2,0.1-0.3,0.1-0.5,0.2l0.1,0.2L51.5,66l-0.1-0.2
		c-0.2,0.1-0.3,0.1-0.5,0.2l0.1,0.2l-0.3,0.1L50.6,66c-0.2,0.1-0.3,0.1-0.5,0.2l0.1,0.2l-0.3,0.1l-0.1-0.2c-0.2,0-0.3,0.1-0.5,0.1
		l0.1,0.2l-0.3,0.1L49,66.5c-0.2,0-0.3,0.1-0.5,0.1l0.1,0.2L48.3,67l-0.1-0.2c-0.2,0-0.3,0.1-0.5,0.1l0.1,0.2l-0.3,0.1L47.4,67
		c-0.2,0-0.3,0.1-0.5,0.1l0.1,0.2l-0.3,0.1l-0.1-0.2c-0.2,0-0.3,0.1-0.5,0.1l0.1,0.2l-0.3,0.1l-0.1-0.2c-0.2,0-0.3,0.1-0.5,0.1
		l0.1,0.2c-0.1,0-0.2,0.1-0.3,0.1L45,67.6c-0.2,0.1-0.3,0.1-0.5,0.2l0.1,0.2c-0.1,0-0.2,0.1-0.3,0.1l-0.1-0.2
		c-0.2,0.1-0.3,0.2-0.5,0.2l0.1,0.2c-0.1,0-0.2,0.1-0.3,0.2l-0.1-0.2c-0.2,0.1-0.3,0.2-0.4,0.3l0.1,0.2c-0.1,0.1-0.2,0.1-0.2,0.2
		l-0.1-0.2c-0.1,0.1-0.3,0.2-0.4,0.3l0.1,0.2c-0.1,0.1-0.1,0.1-0.2,0.2l-0.2-0.1c-0.1,0.1-0.2,0.3-0.3,0.4l0.2,0.1
		C42,70,42,70.1,41.9,70.2L41.7,70c-0.1,0.1-0.1,0.2-0.1,0.2c0,0.1,0.1,0.2,0.1,0.2l-0.2,0.1l0,0l0,0l-0.2,0.1c0,0,0-0.1-0.1-0.2
		l0.2-0.1c-0.1-0.1-0.2-0.3-0.3-0.4l-0.2,0.1c-0.1-0.1-0.1-0.2-0.2-0.2l0.2-0.1c-0.1-0.1-0.2-0.3-0.4-0.4l-0.2,0.2
		c-0.1-0.1-0.1-0.1-0.2-0.2l0.1-0.2c-0.1-0.1-0.3-0.2-0.4-0.3l-0.1,0.2c-0.1-0.1-0.2-0.1-0.2-0.2l0.1-0.2c-0.1-0.1-0.3-0.2-0.4-0.3
		l-0.1,0.2c-0.1,0-0.2-0.1-0.3-0.1l0.1-0.2c-0.1-0.1-0.3-0.2-0.5-0.2L38.3,68c-0.1,0-0.2-0.1-0.3-0.1l0.1-0.2
		c-0.2-0.1-0.3-0.1-0.5-0.2l-0.1,0.2c-0.1,0-0.2-0.1-0.3-0.1l0.1-0.2c-0.1,0-0.2-0.1-0.3-0.1c-0.1,0-0.1,0-0.2-0.1l-0.1,0.2
		l-0.3-0.1l0.1-0.2c-0.2,0-0.3-0.1-0.5-0.1L36,67.3l-0.3-0.1l0.1-0.2c-0.2,0-0.3-0.1-0.5-0.1l-0.1,0.2L34.9,67l0.1-0.2
		c-0.2,0-0.3-0.1-0.5-0.1l-0.1,0.2l-0.3-0.1l0.1-0.2c-0.2,0-0.3-0.1-0.5-0.1l-0.1,0.2l-0.3-0.1l0.1-0.2c-0.2,0-0.3-0.1-0.5-0.1
		l-0.1,0.2l-0.3-0.1l0.1-0.2c-0.2-0.1-0.3-0.1-0.5-0.2L32,66.2l-0.3-0.1l0.1-0.2c-0.2-0.1-0.3-0.1-0.5-0.2l-0.1,0.2l-0.3-0.1
		l0.1-0.2c-0.2-0.1-0.3-0.1-0.5-0.2l-0.1,0.2l-0.3-0.1l0.1-0.2c-0.2-0.1-0.3-0.1-0.5-0.2l-0.1,0.2l-0.3-0.1l0.1-0.2
		c-0.2-0.1-0.3-0.1-0.5-0.2L28.8,65l-0.3-0.1l0.1-0.2c-0.2-0.1-0.3-0.1-0.5-0.2L28,64.7l-0.3-0.1l0.1-0.2c-0.2-0.1-0.3-0.1-0.5-0.2
		l-0.1,0.2L27,64.2l0.1-0.2c-0.2-0.1-0.3-0.2-0.5-0.2L26.5,64l-0.3-0.1l0.1-0.2c-0.2-0.1-0.3-0.1-0.5-0.2l-0.1,0.2l-0.3-0.1l0.1-0.2
		c-0.2-0.1-0.3-0.2-0.5-0.3L25,63.3l-0.3-0.2l0.1-0.2c-0.2-0.1-0.3-0.2-0.5-0.3l-0.1,0.2L24,62.7l0.1-0.2c-0.1-0.1-0.3-0.2-0.4-0.3
		l-0.1,0.2l-0.3-0.2l0.1-0.2c-0.1-0.1-0.3-0.2-0.4-0.3L22.9,62c-0.1-0.1-0.2-0.1-0.3-0.2l0.1-0.2c-0.1-0.1-0.3-0.2-0.4-0.3l-0.1,0.2
		c-0.1-0.1-0.2-0.1-0.3-0.2l0.1-0.2c-0.1-0.1-0.3-0.2-0.4-0.3L21.5,61l-0.2-0.2l0.1-0.2c-0.1-0.1-0.3-0.2-0.4-0.3l-0.1,0.2
		c-0.1-0.1-0.2-0.1-0.2-0.2l0.1-0.2c-0.1-0.1-0.3-0.2-0.4-0.4l-0.2,0.2L20,59.7l0.2-0.2c-0.1-0.1-0.3-0.2-0.4-0.4l-0.2,0.2
		c-0.1-0.1-0.1-0.1-0.2-0.2l0.2-0.2c-0.1-0.1-0.2-0.3-0.4-0.4L19,58.7l-0.2-0.2l0.2-0.2c-0.1-0.1-0.2-0.2-0.4-0.4l-0.2,0.1l-0.2-0.2
		l0.2-0.1c-0.1-0.1-0.2-0.3-0.3-0.4l-0.2,0.1l-0.2-0.2l0.2-0.1c-0.1-0.1-0.2-0.3-0.3-0.4l-0.2,0.1c-0.1-0.1-0.1-0.2-0.2-0.3l0.2-0.1
		c-0.1-0.1-0.2-0.3-0.3-0.4l-0.2,0.1l-0.2-0.3l0.2-0.1c-0.1-0.1-0.2-0.2-0.2-0.3c0,0,0-0.1-0.1-0.1l-0.2,0.1l-0.2-0.2l0.2-0.1
		c-0.1-0.1-0.2-0.3-0.3-0.4c0,0,0,0,0,0l-0.2,0.1c-0.1-0.1-0.1-0.2-0.2-0.3l0.2-0.1c-0.1-0.1-0.2-0.3-0.3-0.4l-0.2,0.1l0-0.1
		c0,0,0,0,0,0l0,0l0,0l0,0l0-0.1c-0.2,0-0.3-0.1-0.5-0.1l-0.1,0.2c-0.1,0-0.2-0.1-0.3-0.1l0.1-0.2c-0.2-0.1-0.3-0.2-0.4-0.3L14,53.4
		c-0.1-0.1-0.2-0.1-0.3-0.2l0.2-0.2c-0.1-0.1-0.2-0.3-0.3-0.4l-0.2,0.1c-0.1-0.1-0.1-0.2-0.2-0.3l0.2-0.1c-0.1-0.2-0.2-0.3-0.2-0.5
		L13,52c0-0.1-0.1-0.2-0.1-0.3l0.2-0.1c0-0.2-0.1-0.3-0.1-0.5l-0.2,0c0-0.1,0-0.2,0-0.3l0.2,0c0-0.2,0-0.4,0.1-0.5l-0.2-0.1
		c0-0.1,0.1-0.2,0.1-0.3l0.2,0.1c0-0.1,0-0.2,0.1-0.2c-0.1-0.1-0.1-0.2-0.2-0.2l-0.2,0.1c-0.1-0.1-0.1-0.2-0.2-0.3l0.2-0.1
		c-0.1-0.1-0.2-0.3-0.3-0.4L12.4,49c-0.1-0.1-0.1-0.2-0.2-0.3l0.2-0.1c-0.1-0.2-0.2-0.3-0.3-0.5L12,48.2c0-0.1-0.1-0.2-0.1-0.3
		l0.2-0.1c-0.1-0.2-0.2-0.3-0.2-0.5l-0.2,0.1c0-0.1-0.1-0.2-0.1-0.3l0.2-0.1c-0.1-0.2-0.1-0.3-0.2-0.5l-0.2,0.1
		c0-0.1-0.1-0.2-0.1-0.3l0.2-0.1c-0.1-0.2-0.1-0.3-0.1-0.5L11,45.9L11,45.6l0.2-0.1c0-0.2-0.1-0.3-0.1-0.5l0,0l-0.2,0l-0.1-0.3
		l0.2,0c0-0.2-0.1-0.3-0.1-0.5l-0.2,0l0-0.3l0.2,0c0-0.2,0-0.3-0.1-0.5l-0.2,0c0-0.1,0-0.2,0-0.3l0.2,0c0-0.2,0-0.3,0-0.5l-0.2,0
		c0-0.1,0-0.2,0-0.3l0.2,0c0-0.1,0-0.2,0-0.3c0-0.1,0-0.1,0-0.2l-0.2,0l0-0.3l0.2,0c0-0.2,0-0.3,0-0.5l-0.2,0l0-0.3l0.2,0
		c0-0.2,0-0.3,0.1-0.5l-0.2,0l0-0.3l0.2,0c0-0.2,0-0.3,0.1-0.5l-0.2,0c0-0.1,0-0.2,0.1-0.3l0.2,0c0-0.2,0.1-0.3,0.1-0.5L11,38.3
		c0-0.1,0.1-0.2,0.1-0.3l0.2,0.1c0-0.2,0.1-0.3,0.1-0.5l-0.2-0.1c0-0.1,0.1-0.2,0.1-0.3l0.2,0.1c0.1-0.2,0.1-0.3,0.2-0.5l-0.2-0.1
		c0-0.1,0.1-0.2,0.1-0.3l0.2,0.1c0,0,0,0,0,0c0.1-0.2,0.1-0.3,0.2-0.5L11.8,36c0-0.1,0.1-0.2,0.1-0.3l0.2,0.1
		c0.1-0.2,0.1-0.3,0.2-0.5l-0.2-0.1c0-0.1,0.1-0.2,0.1-0.3l0.2,0.1c0.1-0.2,0.2-0.3,0.3-0.4l-0.2-0.1c0.1-0.1,0.1-0.2,0.2-0.3
		l0.2,0.1c0.1-0.1,0.2-0.3,0.3-0.4c0,0,0,0,0,0L13,33.9c0-0.1-0.1-0.2-0.1-0.3l0.2,0c0-0.2-0.1-0.3-0.1-0.5l-0.2,0
		c0-0.1,0-0.1,0-0.2c0,0,0-0.1,0-0.1l0.2,0c0-0.2,0-0.3,0.1-0.5l-0.2,0c0-0.1,0-0.2,0.1-0.3l0.2,0.1c0.1-0.2,0.1-0.3,0.2-0.5
		l-0.2-0.1c0-0.1,0.1-0.1,0.1-0.2c0,0,0-0.1,0.1-0.1l0.2,0.1c0.1-0.2,0.2-0.3,0.3-0.4l-0.2-0.1c0.1-0.1,0.1-0.2,0.2-0.3l0.2,0.2
		c0.1-0.1,0.2-0.2,0.4-0.4L14.3,30c0.1-0.1,0.2-0.1,0.3-0.2l0.1,0.2c0.1-0.1,0.3-0.2,0.5-0.2L15,29.5c0.1,0,0.2-0.1,0.3-0.1l0.1,0.2
		c0,0,0,0,0,0c0.1-0.1,0.2-0.2,0.2-0.3c0,0,0,0,0-0.1l-0.2-0.1c0.1-0.1,0.1-0.2,0.2-0.3l0.2,0.1c0.1-0.1,0.2-0.3,0.3-0.4L16,28.4
		l0.2-0.3l0.2,0.1c0.1-0.1,0.2-0.3,0.3-0.4l-0.2-0.1l0.2-0.3l0.2,0.1c0.1-0.1,0.2-0.3,0.3-0.4L17,27l0.2-0.2l0.2,0.1
		c0.1-0.1,0.2-0.3,0.3-0.4l-0.2-0.1c0.1-0.1,0.1-0.2,0.2-0.2l0.2,0.1c0.1-0.1,0.2-0.3,0.3-0.4L18,25.7l0.2-0.2l0.2,0.2
		c0.1-0.1,0.2-0.3,0.4-0.4l-0.2-0.1l0.2-0.2l0.2,0.2c0.1-0.1,0.2-0.2,0.4-0.4l-0.2-0.2l0.2-0.2l0.2,0.2c0.1-0.1,0.3-0.2,0.4-0.4
		l-0.1-0.2l0.2-0.2l0.2,0.2c0.1-0.1,0.3-0.2,0.4-0.3l-0.1-0.2l0.2-0.2l0.1,0.2c0.1-0.1,0.3-0.2,0.4-0.3l-0.1-0.2
		c0.1-0.1,0.2-0.1,0.2-0.2l0.1,0.2c0.1-0.1,0.3-0.2,0.4-0.3l-0.1-0.2c0.1-0.1,0.2-0.1,0.3-0.2l0.1,0.2c0.1-0.1,0.3-0.2,0.4-0.3
		l-0.1-0.2l0.3-0.2l0.1,0.2c0.1-0.1,0.3-0.2,0.4-0.3l-0.1-0.2l0.3-0.2l0.1,0.2c0.1-0.1,0.3-0.2,0.4-0.3l-0.1-0.2l0.3-0.2l0.1,0.2
		c0.1-0.1,0.3-0.2,0.4-0.3l-0.1-0.2l0.3-0.2l0.1,0.2c0.2-0.1,0.3-0.2,0.5-0.2l-0.1-0.2l0.3-0.1l0.1,0.2c0.2-0.1,0.3-0.2,0.5-0.3
		L26,19.7l0.3-0.1l0.1,0.2c0.2-0.1,0.3-0.2,0.5-0.2l-0.1-0.2l0.3-0.1l0.1,0.2c0.2-0.1,0.3-0.2,0.5-0.2l-0.1-0.2l0.3-0.1l0.1,0.2
		c0.2-0.1,0.3-0.1,0.5-0.2l-0.1-0.2l0.3-0.1l0.1,0.2c0.2-0.1,0.3-0.1,0.5-0.2L29,18.3l0.3-0.1l0.1,0.2c0.2-0.1,0.3-0.1,0.5-0.2
		L29.8,18l0.3-0.1l0.1,0.2c0.2-0.1,0.3-0.1,0.5-0.2l-0.1-0.2l0.3-0.1l0.1,0.2c0.2-0.1,0.3-0.1,0.5-0.2l-0.1-0.2l0.3-0.1l0.1,0.2
		c0.2-0.1,0.3-0.1,0.5-0.2l-0.1-0.2l0.3-0.1l0.1,0.2c0.2-0.1,0.3-0.1,0.5-0.2L33,16.9l0.3-0.1l0.1,0.2c0.2,0,0.3-0.1,0.5-0.1
		l-0.1-0.2l0.3-0.1l0.1,0.2c0.1,0,0.1,0,0.2-0.1c0.1-0.1,0.2-0.1,0.3-0.2l0,0c-0.2,0-0.4-0.2-0.4-0.4v-0.9c0-0.1,0-0.2,0.1-0.2
		l-0.1-0.3c0.1,0,0.2,0,0.2-0.1c-0.1-0.1-0.2-0.2-0.2-0.4v-0.9c0-0.3,0.2-0.5,0.5-0.5v0c-0.3,0-0.5-0.2-0.5-0.5l0-0.9
		c0-0.3,0.2-0.5,0.5-0.5c0,0,0,0,0,0v0c0,0,0,0,0,0c-0.2,0-0.3-0.1-0.4-0.2c-9.2,2.3-18.6,6.4-24.3,15.7C10,26.7,9.9,26.8,9.8,27
		c-1.1,0.3-2,1.1-2.4,2c-0.5,0.9-0.7,2-0.3,3.2c-0.7,0.9-1.3,2-1.7,3.2c-0.9,2-1.3,4.3-1.3,6.5c0,3.7,1.1,7.2,3,9.6
		c-1,1.8,0.4,4.6,2.8,4.9c0.2,0.4,0.5,0.7,0.7,1c0.2,0.3,0.5,0.6,0.7,0.9c5.6,8.8,15.5,12.3,24.9,14.6c4.3,1,5.4,3.8,5.4,3.8
		s1.1-2.8,5.4-3.8c9.4-2.3,19.3-5.7,24.9-14.6c0.2-0.3,0.5-0.6,0.7-0.9c0.2-0.3,0.5-0.6,0.7-1c2.4-0.3,3.7-3.1,2.8-4.9
		C77.9,49.2,79,45.6,79,41.9z M50.2,15.9l-0.7-0.2l0.2-0.7l0.7,0.2L50.2,15.9z M51.5,16.3l-0.6-0.2l0.2-0.7l0.7,0.2L51.5,16.3z
		 M52.8,16.7l-0.6-0.2l0.2-0.6l0.7,0.2L52.8,16.7z M54.1,17.2c-0.2-0.1-0.4-0.2-0.6-0.2l0.2-0.6c0.2,0.1,0.4,0.2,0.6,0.2L54.1,17.2z
		 M55.4,17.7c-0.2-0.1-0.4-0.2-0.6-0.3l0.3-0.6c0.2,0.1,0.4,0.2,0.6,0.3L55.4,17.7z M56.6,18.3c-0.2-0.1-0.4-0.2-0.6-0.3l0.3-0.6
		c0.2,0.1,0.4,0.2,0.6,0.3L56.6,18.3z M57.8,18.9c-0.2-0.1-0.4-0.2-0.6-0.3l0.3-0.6c0.2,0.1,0.4,0.2,0.6,0.3L57.8,18.9z M59,19.5
		c-0.2-0.1-0.4-0.2-0.6-0.3l0.3-0.6c0.2,0.1,0.4,0.2,0.6,0.3L59,19.5z M60.2,20.2c-0.2-0.1-0.4-0.2-0.6-0.4l0.4-0.6
		c0.2,0.1,0.4,0.2,0.6,0.4L60.2,20.2z M61.3,21c-0.2-0.1-0.4-0.3-0.6-0.4l0.4-0.6c0.2,0.1,0.4,0.3,0.6,0.4L61.3,21z M62.4,21.8
		c-0.2-0.1-0.4-0.3-0.5-0.4l0.4-0.6c0.2,0.1,0.4,0.3,0.6,0.4L62.4,21.8z M63.4,22.6c-0.2-0.1-0.3-0.3-0.5-0.4l0.4-0.5
		c0.2,0.1,0.4,0.3,0.5,0.4L63.4,22.6z M64.4,23.5c-0.2-0.2-0.3-0.3-0.5-0.5l0.5-0.5c0.2,0.2,0.3,0.3,0.5,0.5L64.4,23.5z M65.4,24.5
		c-0.2-0.2-0.3-0.3-0.5-0.5l0.5-0.5c0.2,0.2,0.3,0.3,0.5,0.5L65.4,24.5z M66.3,25.5c-0.1-0.2-0.3-0.3-0.4-0.5l0.5-0.5
		c0.2,0.2,0.3,0.3,0.5,0.5L66.3,25.5z M67.1,26.6c-0.1-0.2-0.3-0.4-0.4-0.5l0.5-0.4c0.1,0.2,0.3,0.4,0.4,0.5L67.1,26.6z M67.9,27.7
		c-0.1-0.2-0.3-0.4-0.4-0.6l0.6-0.4c0.1,0.2,0.3,0.4,0.4,0.6L67.9,27.7z M68.7,28.8L68.7,28.8c-0.2-0.3-0.3-0.4-0.4-0.6l0.6-0.4
		c0.1,0.2,0.2,0.3,0.3,0.5l0.1,0.1L68.7,28.8z M69.9,29.6c-0.2-0.1-0.3-0.2-0.5-0.3l0.2-0.6c0.2,0.1,0.5,0.2,0.7,0.3L69.9,29.6z
		 M33.6,14.9l0.2,0.7l-0.7,0.2l-0.2-0.7L33.6,14.9z M32.3,15.3l0.2,0.7l-0.6,0.2l-0.2-0.7L32.3,15.3z M31,15.7l0.2,0.7
		c-0.2,0.1-0.4,0.1-0.6,0.2l-0.2-0.6C30.5,15.9,30.7,15.8,31,15.7z M29.7,16.2l0.2,0.6L29.3,17L29,16.4L29.7,16.2z M28.4,16.7
		l0.3,0.6c-0.2,0.1-0.4,0.2-0.6,0.3l-0.3-0.6C27.9,16.8,28.2,16.7,28.4,16.7z M27.1,17.2l0.3,0.6c-0.2,0.1-0.4,0.2-0.6,0.3l-0.3-0.6
		C26.7,17.4,26.9,17.3,27.1,17.2z M25.8,17.8l0.3,0.6c-0.2,0.1-0.4,0.2-0.6,0.3l-0.3-0.6C25.4,18,25.6,17.9,25.8,17.8z M24.6,18.4
		l0.3,0.6c-0.2,0.1-0.4,0.2-0.6,0.3L24,18.7C24.2,18.6,24.4,18.5,24.6,18.4z M23.4,19.1l0.3,0.6c-0.2,0.1-0.4,0.2-0.6,0.3l-0.4-0.6
		C23,19.3,23.2,19.2,23.4,19.1z M22.2,19.8l0.4,0.6c-0.2,0.1-0.4,0.2-0.6,0.4l-0.4-0.6C21.8,20,22,19.9,22.2,19.8z M21.1,20.6
		l0.4,0.6c-0.2,0.1-0.4,0.3-0.5,0.4L20.5,21C20.7,20.8,20.9,20.7,21.1,20.6z M20,21.4l0.4,0.5c-0.2,0.1-0.4,0.3-0.5,0.4l-0.4-0.5
		C19.6,21.7,19.8,21.5,20,21.4z M18.9,22.3l0.4,0.5c-0.2,0.1-0.3,0.3-0.5,0.5l-0.5-0.5C18.6,22.6,18.7,22.4,18.9,22.3z M17.9,23.2
		l0.5,0.5c-0.2,0.2-0.3,0.3-0.5,0.5l-0.5-0.5C17.6,23.5,17.7,23.4,17.9,23.2z M16.9,24.2l0.5,0.5c-0.2,0.2-0.3,0.3-0.5,0.5l-0.5-0.5
		C16.6,24.5,16.8,24.4,16.9,24.2z M16,25.2l0.5,0.4c-0.1,0.2-0.3,0.3-0.4,0.5l-0.5-0.4C15.7,25.6,15.8,25.4,16,25.2z M15.1,26.3
		l0.5,0.4c-0.1,0.2-0.3,0.4-0.4,0.5l-0.6-0.4C14.9,26.7,15,26.5,15.1,26.3z M14.3,27.5l0.6,0.4c-0.1,0.2-0.2,0.4-0.4,0.6L14,28.1
		C14.1,27.9,14.2,27.7,14.3,27.5z M13.7,28.5l0.1,0.3l0.3,0.2l0,0.1l-0.2,0.1c-0.2,0-0.3,0.1-0.5,0.2l-0.3-0.6
		C13.3,28.7,13.5,28.6,13.7,28.5z M11.4,49.7c0.1,0.1,0.2,0.2,0.3,0.4l0,0.4c0,0.1-0.1,0.1-0.1,0.2l-0.4-0.2l-0.1,0.1
		c0,0-0.1-0.1-0.1-0.1l0,0c0,0,0,0,0,0c-0.1-0.1-0.1-0.1-0.2-0.2L11.4,49.7z M11.7,33.6c-0.1,0.1-0.1,0.2-0.2,0.3L11,33.5
		c0-0.1,0.1-0.1,0.1-0.2c0-0.1,0-0.1,0-0.2l0.7-0.1c0,0.1,0,0.2,0.1,0.3L11.7,33.6z M12.5,29.2l0.4,0.5c-0.2,0.1-0.3,0.3-0.4,0.4
		l-0.5-0.4C12.1,29.5,12.3,29.3,12.5,29.2z M11.4,30.5c0,0,0-0.1,0.1-0.2l0.6,0.3c0,0-0.1,0.1-0.1,0.1c-0.1,0.2-0.2,0.3-0.2,0.4
		L11.2,31C11.3,30.8,11.3,30.6,11.4,30.5z M11,31.7l0.7,0.1c0,0.2,0,0.3,0,0.5l0,0.1l-0.7,0l0-0.1C10.9,32.1,11,31.9,11,31.7z
		 M10.6,34.1l0.6,0.4c-0.1,0.2-0.2,0.4-0.3,0.6l-0.6-0.3C10.3,34.5,10.4,34.3,10.6,34.1z M9.9,35.4l0.6,0.3
		c-0.1,0.2-0.2,0.4-0.3,0.6L9.7,36C9.7,35.8,9.8,35.6,9.9,35.4z M9.4,36.7l0.6,0.2c-0.1,0.2-0.2,0.4-0.2,0.6l-0.7-0.2
		C9.2,37.1,9.3,36.9,9.4,36.7z M9,38l0.7,0.2c-0.1,0.2-0.1,0.4-0.2,0.7l-0.7-0.1C8.9,38.4,8.9,38.2,9,38z M8.7,39.4l0.7,0.1
		c0,0.2-0.1,0.4-0.1,0.7l-0.7-0.1C8.6,39.8,8.6,39.6,8.7,39.4z M8.5,40.8l0.7,0.1c0,0.2,0,0.4,0,0.7l-0.7,0
		C8.5,41.2,8.5,41,8.5,40.8z M8.5,42.2l0.7,0c0,0.2,0,0.4,0,0.7l-0.7,0C8.5,42.6,8.5,42.4,8.5,42.2z M8.5,43.5l0.7-0.1
		c0,0.2,0,0.4,0.1,0.7l-0.7,0.1C8.6,44,8.6,43.8,8.5,43.5z M8.7,44.9l0.7-0.1c0,0.2,0.1,0.4,0.1,0.7l-0.7,0.2
		C8.8,45.4,8.8,45.2,8.7,44.9z M9.1,46.3l0.7-0.2c0.1,0.2,0.1,0.4,0.2,0.6L9.3,47C9.2,46.7,9.1,46.5,9.1,46.3z M9.8,48.3
		c-0.1-0.2-0.2-0.4-0.3-0.6l0.6-0.3c0.1,0.2,0.2,0.4,0.3,0.6L9.8,48.3z M10.5,49.5c-0.1-0.2-0.2-0.4-0.4-0.6l0.6-0.3
		c0.1,0.2,0.2,0.4,0.3,0.6L10.5,49.5z M10.8,51.4c0-0.1,0-0.2,0-0.3l0.7,0.1c0,0.1,0,0.2,0,0.2c0,0.1,0,0.2,0,0.3l-0.7,0.1
		C10.8,51.7,10.8,51.6,10.8,51.4z M11,52.6l0.6-0.2c0.1,0.2,0.2,0.4,0.3,0.6l-0.6,0.4C11.2,53,11.1,52.8,11,52.6z M12.4,54.4
		c-0.2-0.1-0.4-0.3-0.6-0.5l0.5-0.5c0.1,0.2,0.3,0.3,0.5,0.4L12.4,54.4z M13.8,54.9c-0.3,0-0.5-0.1-0.7-0.2l0.3-0.6
		c0.2,0.1,0.4,0.1,0.6,0.2L13.8,54.9z M14.4,55.9l-0.2-0.2c-0.1-0.1-0.2-0.2-0.3-0.3l0.6-0.4c0.1,0.1,0.2,0.2,0.2,0.3l0.2,0.2
		L14.4,55.9z M14.8,56.4l0.5-0.4l0,0c0.1,0.2,0.3,0.4,0.4,0.6L15.2,57C15,56.8,14.9,56.6,14.8,56.4z M15.6,57.6l0.6-0.4
		c0.1,0.2,0.3,0.4,0.4,0.5L16,58.1C15.8,57.9,15.7,57.7,15.6,57.6z M16.4,58.7l0.5-0.4c0.1,0.2,0.3,0.3,0.4,0.5l-0.5,0.5
		C16.7,59,16.6,58.8,16.4,58.7z M17.8,60.2c-0.2-0.2-0.3-0.3-0.5-0.5l0.5-0.5c0.2,0.2,0.3,0.3,0.5,0.5L17.8,60.2z M18.8,61.2
		c-0.2-0.2-0.3-0.3-0.5-0.5l0.5-0.5c0.2,0.2,0.3,0.3,0.5,0.5L18.8,61.2z M19.9,62.1c-0.2-0.1-0.4-0.3-0.5-0.4l0.4-0.5
		c0.2,0.1,0.3,0.3,0.5,0.4L19.9,62.1z M21,62.9c-0.2-0.1-0.4-0.3-0.6-0.4l0.4-0.5c0.2,0.1,0.4,0.3,0.5,0.4L21,62.9z M22.1,63.7
		c-0.2-0.1-0.4-0.3-0.6-0.4l0.4-0.6c0.2,0.1,0.4,0.2,0.6,0.4L22.1,63.7z M23.3,64.4c-0.2-0.1-0.4-0.2-0.6-0.4l0.4-0.6
		c0.2,0.1,0.4,0.2,0.6,0.3L23.3,64.4z M24.5,65c-0.2-0.1-0.4-0.2-0.6-0.3l0.3-0.6c0.2,0.1,0.4,0.2,0.6,0.3L24.5,65z M25.8,65.7
		c-0.2-0.1-0.4-0.2-0.6-0.3l0.3-0.6c0.2,0.1,0.4,0.2,0.6,0.3L25.8,65.7z M27,66.2c-0.2-0.1-0.4-0.2-0.6-0.3l0.3-0.6
		c0.2,0.1,0.4,0.2,0.6,0.3L27,66.2z M28.3,66.7c-0.2-0.1-0.4-0.2-0.6-0.3l0.3-0.6c0.2,0.1,0.4,0.2,0.6,0.3L28.3,66.7z M29.6,67.2
		c-0.2-0.1-0.4-0.2-0.6-0.2l0.2-0.6c0.2,0.1,0.4,0.2,0.6,0.2L29.6,67.2z M30.9,67.7c-0.2-0.1-0.4-0.1-0.7-0.2l0.2-0.6
		c0.2,0.1,0.4,0.1,0.6,0.2L30.9,67.7z M32.2,68.1l-0.7-0.2l0.2-0.7l0.7,0.2L32.2,68.1z M33.6,68.5l-0.7-0.2l0.2-0.7l0.7,0.2
		L33.6,68.5z M34.9,68.8c-0.2-0.1-0.4-0.1-0.7-0.2l0.2-0.7c0.2,0.1,0.4,0.1,0.7,0.2L34.9,68.8z M36.2,69.2L35.6,69l0.2-0.7l0.7,0.2
		L36.2,69.2z M37.5,69.5c-0.2-0.1-0.4-0.1-0.6-0.2l0.2-0.7c0.2,0.1,0.5,0.1,0.7,0.2L37.5,69.5z M38.7,70c-0.2-0.1-0.4-0.2-0.6-0.3
		l0.3-0.6c0.2,0.1,0.4,0.2,0.6,0.3L38.7,70z M39.8,70.8c-0.2-0.1-0.3-0.3-0.5-0.4l0.4-0.6c0.2,0.1,0.4,0.3,0.6,0.4L39.8,70.8z
		 M40.3,71.2l0.5-0.5c0.2,0.2,0.3,0.4,0.5,0.5l-0.5,0.4C40.6,71.5,40.4,71.4,40.3,71.2z M41.8,72.4c0,0.1-0.1,0.1-0.1,0.2l-0.3-0.2
		l-0.2,0.1c0,0,0-0.1-0.1-0.2l0.1-0.1c0,0,0.1-0.2,0.2-0.4l0.2,0.1l0,0c0,0,0,0,0,0.1l0.3,0.2C41.9,72.2,41.8,72.3,41.8,72.4z
		 M42.3,71.6l-0.5-0.4c0.1-0.2,0.3-0.3,0.5-0.5l0.5,0.5C42.6,71.3,42.5,71.4,42.3,71.6z M43.3,70.7l-0.4-0.5
		c0.2-0.1,0.4-0.3,0.6-0.4l0.4,0.6C43.6,70.4,43.4,70.6,43.3,70.7z M44.4,70L44,69.4c0.2-0.1,0.4-0.2,0.6-0.3l0.3,0.6
		C44.7,69.8,44.5,69.9,44.4,70z M45.6,69.5l-0.2-0.7c0.2-0.1,0.4-0.1,0.7-0.2l0.2,0.7C46,69.4,45.8,69.4,45.6,69.5z M46.9,69.1
		l-0.2-0.7l0.7-0.2l0.2,0.7L46.9,69.1z M48.2,68.8L48,68.1l0.7-0.2l0.2,0.7L48.2,68.8z M49.5,68.4l-0.2-0.7l0.7-0.2l0.2,0.7
		L49.5,68.4z M50.8,68l-0.2-0.7l0.6-0.2l0.2,0.7L50.8,68z M52.2,67.6L51.9,67c0.2-0.1,0.4-0.1,0.6-0.2l0.2,0.6
		C52.6,67.5,52.4,67.6,52.2,67.6z M53.5,67.2l-0.2-0.6c0.2-0.1,0.4-0.2,0.6-0.2l0.2,0.6C53.9,67,53.7,67.1,53.5,67.2z M54.7,66.7
		l-0.2-0.6c0.2-0.1,0.4-0.2,0.6-0.3l0.3,0.6C55.2,66.5,55,66.6,54.7,66.7z M56,66.2l-0.3-0.6c0.2-0.1,0.4-0.2,0.6-0.3l0.3,0.6
		C56.5,66,56.2,66.1,56,66.2z M57.3,65.6L57,65c0.2-0.1,0.4-0.2,0.6-0.3l0.3,0.6C57.7,65.4,57.5,65.5,57.3,65.6z M58.5,65l-0.3-0.6
		c0.2-0.1,0.4-0.2,0.6-0.3l0.3,0.6C58.9,64.8,58.7,64.9,58.5,65z M59.7,64.3l-0.3-0.6c0.2-0.1,0.4-0.2,0.6-0.3l0.4,0.6
		C60.1,64.1,59.9,64.2,59.7,64.3z M60.9,63.6L60.6,63c0.2-0.1,0.4-0.2,0.6-0.4l0.4,0.6C61.3,63.3,61.1,63.5,60.9,63.6z M62.1,62.8
		l-0.4-0.6c0.2-0.1,0.4-0.3,0.5-0.4l0.4,0.5C62.4,62.5,62.3,62.7,62.1,62.8z M63.2,62l-0.4-0.5c0.2-0.1,0.3-0.3,0.5-0.4l0.4,0.5
		C63.5,61.7,63.4,61.8,63.2,62z M64.2,61.1l-0.5-0.5c0.2-0.2,0.3-0.3,0.5-0.5l0.5,0.5C64.6,60.8,64.4,60.9,64.2,61.1z M65.2,60.1
		l-0.5-0.5c0.2-0.2,0.3-0.3,0.5-0.5l0.5,0.5C65.6,59.8,65.4,60,65.2,60.1z M66.2,59.1l-0.5-0.4c0.1-0.2,0.3-0.3,0.4-0.5l0.5,0.4
		C66.5,58.8,66.3,58.9,66.2,59.1z M67.1,58l-0.5-0.4c0.1-0.2,0.3-0.4,0.4-0.5l0.6,0.4C67.3,57.7,67.2,57.8,67.1,58z M68.2,56.5
		c-0.1,0.1-0.2,0.3-0.3,0.4l-0.6-0.4c0.1-0.2,0.2-0.3,0.3-0.5l0.1-0.1l0.5,0.4L68.2,56.5z M68.8,55.7l-0.1,0.1l-0.5-0.4l0.1-0.1
		c0.1-0.1,0.2-0.3,0.3-0.4l0.6,0.4C69,55.4,68.9,55.5,68.8,55.7z M69.3,54.9l-0.1-0.7c0.2,0,0.4-0.1,0.6-0.2l0.3,0.6
		C69.8,54.8,69.5,54.9,69.3,54.9z M74.4,40.5l-0.7,0.1c0-0.2,0-0.4-0.1-0.7l0.7-0.1C74.4,40,74.4,40.3,74.4,40.5z M74.2,39.1
		l-0.7,0.1c0-0.2-0.1-0.4-0.1-0.7l0.7-0.2C74.2,38.7,74.2,38.9,74.2,39.1z M73.9,37.8l-0.7,0.2c-0.1-0.2-0.1-0.4-0.2-0.6l0.6-0.2
		C73.8,37.3,73.9,37.5,73.9,37.8z M73.2,35.8c0,0.1,0.1,0.2,0.1,0.3c0,0.1,0.1,0.2,0.1,0.3l-0.6,0.3c0-0.1-0.1-0.2-0.1-0.3
		c0-0.1-0.1-0.2-0.1-0.3L73.2,35.8z M70.8,30.4c-0.1-0.2-0.2-0.3-0.4-0.5l0.5-0.5c0.2,0.2,0.3,0.4,0.5,0.6L70.8,30.4z M71.1,31
		l0.6-0.3c0.1,0.2,0.2,0.5,0.3,0.7l-0.7,0.2C71.2,31.4,71.2,31.2,71.1,31z M71.4,32.2l0.7,0l0,0.2c0,0.2,0,0.4,0,0.6l-0.7-0.1
		c0-0.2,0-0.3,0-0.5L71.4,32.2z M71.7,34.3c-0.1-0.2-0.2-0.4-0.4-0.5l0.6-0.4c0.1,0.2,0.3,0.4,0.4,0.6L71.7,34.3z M72.3,35.4
		c-0.1-0.2-0.2-0.4-0.3-0.6l0.6-0.3c0.1,0.2,0.2,0.4,0.3,0.6L72.3,35.4z M70.7,54.3l-0.4-0.6c0.2-0.1,0.3-0.3,0.4-0.4l0.5,0.4
		C71.1,54,70.9,54.1,70.7,54.3z M71.7,53.2l-0.6-0.3c0.1-0.2,0.2-0.4,0.2-0.6l0.7,0.2C71.9,52.7,71.8,52.9,71.7,53.2z M72.1,51.7
		l-0.7-0.1c0-0.1,0-0.2,0-0.3c0-0.1,0-0.2,0-0.3l0.7-0.1c0,0.1,0,0.3,0,0.4C72.1,51.5,72.1,51.6,72.1,51.7z M71.8,50.5l-0.2-0.1
		l-0.4,0.2l0-0.1l0-0.4c0.1-0.1,0.2-0.3,0.3-0.4l0.6,0.4C72,50.2,71.9,50.3,71.8,50.5z M72.6,49.4L72,49.1c0.1-0.2,0.2-0.4,0.3-0.6
		l0.6,0.3C72.8,49,72.7,49.2,72.6,49.4z M73.2,48.2l-0.6-0.3c0.1-0.2,0.2-0.4,0.3-0.6l0.6,0.3C73.4,47.7,73.3,48,73.2,48.2z
		 M73.7,46.9l-0.7-0.2c0.1-0.2,0.1-0.4,0.2-0.6l0.7,0.2C73.9,46.4,73.8,46.6,73.7,46.9z M74.1,45.5l-0.7-0.2c0-0.2,0.1-0.4,0.1-0.7
		l0.7,0.1C74.2,45.1,74.2,45.3,74.1,45.5z M74.4,44.1L73.7,44c0-0.2,0.1-0.4,0.1-0.7l0.7,0.1C74.4,43.7,74.4,43.9,74.4,44.1z
		 M74.5,42.7l-0.7,0c0-0.2,0-0.4,0-0.7l0.7,0C74.5,42.3,74.5,42.5,74.5,42.7z M73.8,41.9c0-0.2,0-0.4,0-0.7l0.7,0c0,0.2,0,0.5,0,0.7
		L73.8,41.9z"/>
	<path class="st0" d="M33,22.6c0,0,0.1,0,0.2,0c0.2,0,0.3,0,0.4,0.1c0.1,0.1,0.1,0.2,0.1,0.4c0,0.1,0,0.1,0,0.2c0,0.1,0,0.2,0,0.2
		h0.1l0.3-1h-1.7v0c0.1,0,0.2,0,0.3,0c0,0,0.1,0.1,0.1,0.1c0,0,0,0,0,0.1c0,0,0,0.1,0,0.1l-0.4,1.4c0,0,0,0,0,0
		c0,0.1-0.1,0.2-0.1,0.3c0,0-0.1,0-0.1,0c0,0-0.1,0-0.2,0v0h1.1v0c-0.2,0-0.3,0-0.3,0c0,0-0.1-0.1-0.1-0.1c0,0,0,0,0-0.1
		c0,0,0-0.1,0-0.1l0.2-0.7h0c0.1,0,0.2,0,0.3,0.1c0.1,0,0.1,0.1,0.1,0.3c0,0,0,0.1,0,0.1c0,0.1,0,0.1,0,0.2l0.1,0l0.3-1.2l0,0
		c-0.1,0.2-0.1,0.3-0.2,0.4c-0.1,0.1-0.2,0.1-0.4,0.1c0,0,0,0,0,0c0,0,0,0,0,0l0.2-0.7C32.9,22.7,32.9,22.6,33,22.6z"/>
	<path class="st0" d="M34.1,24.7c0.1,0,0.2,0,0.2-0.1c0.1-0.1,0.1-0.2,0.2-0.3l0,0c0,0,0,0.1,0,0.1c0,0,0,0,0,0.1c0,0.1,0,0.1,0,0.2
		c0,0,0.1,0.1,0.1,0.1c0.1,0,0.2-0.1,0.2-0.2c0.1-0.1,0.2-0.3,0.2-0.4l0,0c-0.1,0.2-0.1,0.3-0.2,0.4c-0.1,0.1-0.1,0.2-0.2,0.2
		c0,0,0,0,0,0c0,0,0,0,0-0.1c0,0,0,0,0-0.1c0,0,0-0.1,0-0.1l0.3-1.1h-0.2l-0.1,0.4l0,0v0c0-0.1,0-0.2-0.1-0.3c0-0.1-0.1-0.1-0.2-0.1
		c-0.1,0-0.1,0-0.2,0.1c-0.1,0-0.2,0.1-0.2,0.2c-0.1,0.1-0.2,0.2-0.2,0.3c0,0.1-0.1,0.2-0.1,0.3c0,0.2,0,0.3,0.1,0.4
		C33.9,24.6,33.9,24.7,34.1,24.7z M33.9,24.1c0-0.1,0-0.2,0.1-0.3c0-0.1,0.1-0.2,0.1-0.2c0-0.1,0-0.1,0.1-0.2c0-0.1,0.1-0.1,0.1-0.1
		c0,0,0.1-0.1,0.1-0.1c0.1,0,0.1,0,0.2,0.1c0,0.1,0.1,0.1,0.1,0.2c0,0.1,0,0.3-0.1,0.4c0,0.2-0.1,0.3-0.2,0.4c0,0.1-0.1,0.1-0.1,0.1
		c-0.1,0-0.1,0.1-0.2,0.1c-0.1,0-0.1,0-0.1-0.1c0,0-0.1-0.1-0.1-0.2C33.9,24.3,33.9,24.2,33.9,24.1z"/>
	<path class="st0" d="M35.9,23.5c0-0.1,0-0.1-0.1-0.2c0,0-0.1-0.1-0.1-0.1c-0.1,0-0.2,0.1-0.2,0.2c-0.1,0.1-0.2,0.3-0.2,0.4l0,0
		c0.1-0.2,0.1-0.3,0.2-0.4c0.1-0.1,0.1-0.2,0.2-0.2c0,0,0,0,0.1,0c0,0,0,0,0,0.1c0,0,0,0,0,0.1c0,0,0,0.1,0,0.1l-0.3,1.1h0.2
		c0.1-0.4,0.2-0.7,0.4-1c0.1-0.2,0.3-0.4,0.4-0.4c0,0,0.1,0,0.1,0c0,0,0,0.1,0,0.1c0,0,0,0.1,0,0.1c0,0,0,0.1,0,0.1l-0.3,1h0.2
		c0.1-0.4,0.2-0.7,0.4-1c0.1-0.2,0.2-0.4,0.3-0.4c0,0,0,0,0.1,0c0,0,0,0,0,0.1c0,0.1,0,0.2-0.1,0.4c0,0,0,0.1,0,0.1l0,0
		C37,24.1,37,24.3,37,24.4c0,0.1,0,0.2,0.1,0.2c0,0.1,0.1,0.1,0.1,0.1c0.1,0,0.1,0,0.2-0.2c0.1-0.1,0.1-0.2,0.2-0.4l0,0
		c-0.1,0.2-0.1,0.3-0.2,0.4c-0.1,0.1-0.1,0.1-0.2,0.1c0,0,0,0,0,0c0,0,0,0,0-0.1c0-0.1,0-0.2,0.1-0.5c0,0,0-0.1,0-0.1
		c0-0.1,0-0.1,0.1-0.2c0-0.1,0-0.1,0-0.2c0-0.1,0-0.2-0.1-0.2c0-0.1-0.1-0.1-0.2-0.1c-0.1,0-0.2,0.1-0.3,0.2
		c-0.1,0.2-0.2,0.4-0.3,0.7h0c0-0.1,0.1-0.2,0.1-0.3c0-0.1,0-0.2,0-0.2c0-0.1,0-0.2-0.1-0.3c0-0.1-0.1-0.1-0.2-0.1
		c-0.1,0-0.2,0.1-0.3,0.2c-0.1,0.2-0.2,0.4-0.3,0.7h0c0-0.2,0.1-0.3,0.1-0.4C35.9,23.7,35.9,23.6,35.9,23.5z"/>
	<path class="st0" d="M38.5,22.8c0,0,0.1,0,0.1,0c0,0,0-0.1,0-0.1c0,0,0-0.1,0-0.1c0,0-0.1,0-0.1,0c0,0-0.1,0-0.1,0c0,0,0,0.1,0,0.1
		C38.4,22.7,38.4,22.7,38.5,22.8C38.4,22.8,38.5,22.8,38.5,22.8z"/>
	<path class="st0" d="M38,23.4c-0.1,0.1-0.1,0.3-0.2,0.5l0,0C37.9,23.7,37.9,23.5,38,23.4c0.1-0.1,0.2-0.1,0.2-0.1c0,0,0,0,0.1,0
		c0,0,0,0,0,0.1c0,0,0,0.1-0.1,0.2c0,0.1-0.1,0.2-0.1,0.3c0,0.1-0.1,0.2-0.1,0.3c0,0.1,0,0.1,0,0.2c0,0.1,0,0.2,0.1,0.2
		c0,0.1,0.1,0.1,0.1,0.1c0.1,0,0.1-0.1,0.2-0.2c0.1-0.1,0.1-0.2,0.2-0.4l0,0c-0.1,0.2-0.1,0.3-0.2,0.4c-0.1,0.1-0.1,0.1-0.2,0.1
		c0,0,0,0-0.1,0c0,0,0,0,0-0.1c0,0,0-0.1,0.1-0.3c0,0,0-0.1,0-0.1c0.1-0.1,0.1-0.3,0.1-0.3c0-0.1,0-0.2,0-0.2c0-0.1,0-0.2-0.1-0.2
		c0-0.1-0.1-0.1-0.2-0.1C38.1,23.2,38,23.3,38,23.4z"/>
	<path class="st0" d="M39.2,22.9L38.9,24c0,0.1,0,0.1,0,0.2c0,0.1,0,0.1,0,0.2c0,0.1,0,0.2,0.1,0.2c0,0.1,0.1,0.1,0.2,0.1
		c0.1,0,0.2-0.1,0.3-0.2c0.1-0.1,0.2-0.3,0.3-0.5l0,0c-0.1,0.2-0.1,0.3-0.2,0.4c-0.1,0.1-0.1,0.2-0.2,0.2c0,0-0.1,0-0.1,0
		c0,0,0-0.1,0-0.1c0,0,0-0.1,0-0.1c0,0,0-0.1,0-0.2l0.5-1.7h-0.6v0c0.1,0,0.2,0,0.3,0c0,0,0.1,0.1,0.1,0.1c0,0,0,0,0,0.1
		C39.3,22.8,39.2,22.8,39.2,22.9z"/>
	<path class="st0" d="M40.2,24L40.2,24c0.1-0.2,0.1-0.4,0.1-0.5c0-0.1,0-0.2-0.1-0.2c0-0.1-0.1-0.1-0.2-0.1c-0.1,0-0.2,0.1-0.2,0.2
		c-0.1,0.1-0.1,0.3-0.2,0.5l0,0c0.1-0.2,0.1-0.3,0.2-0.4c0.1-0.1,0.1-0.2,0.2-0.2c0,0,0,0,0.1,0c0,0,0,0,0,0.1c0,0,0,0.1,0,0.1
		c0,0,0,0.1,0,0.1c0,0,0,0.1,0,0.1C40,24,40,24.2,40,24.3c0,0.1,0,0.2,0.1,0.3c0,0.1,0.1,0.1,0.2,0.1c0.1,0,0.2-0.1,0.3-0.2
		c0.1-0.2,0.2-0.4,0.4-0.7l0,0l-0.2,0.6c-0.1,0.3-0.2,0.6-0.3,0.7c-0.1,0.1-0.2,0.2-0.4,0.2c-0.1,0-0.1,0-0.1,0c0,0-0.1,0-0.1-0.1
		c0,0,0,0,0.1,0c0,0,0.1-0.1,0.1-0.1c0,0,0-0.1,0-0.1c0,0-0.1,0-0.1,0c0,0-0.1,0-0.1,0c0,0,0,0.1,0,0.1c0,0.1,0,0.1,0.1,0.2
		c0.1,0.1,0.2,0.1,0.3,0.1c0.2,0,0.3-0.1,0.5-0.3c0.2-0.2,0.3-0.4,0.3-0.7l0.3-1.1H41c-0.2,0.5-0.3,0.8-0.5,1
		c-0.1,0.2-0.2,0.3-0.3,0.3c0,0-0.1,0-0.1,0c0,0,0-0.1,0-0.1c0-0.1,0-0.2,0.1-0.4C40.2,24.1,40.2,24,40.2,24z"/>
	<path class="st0" d="M42.5,22.8l-0.5,1.8h0.2c0.2-0.4,0.3-0.8,0.4-1c0.1-0.2,0.2-0.3,0.3-0.3c0,0,0,0,0.1,0c0,0,0,0,0,0.1
		c0,0,0,0.1-0.1,0.3c0,0,0,0.1,0,0.1c0,0.2-0.1,0.3-0.1,0.4c0,0.1,0,0.2,0,0.2c0,0.1,0,0.2,0.1,0.3c0,0.1,0.1,0.1,0.2,0.1
		c0.1,0,0.2,0,0.2-0.1c0.1-0.1,0.1-0.2,0.2-0.4l0,0c-0.1,0.2-0.1,0.3-0.2,0.4c-0.1,0.1-0.1,0.1-0.2,0.1c0,0-0.1,0-0.1,0
		c0,0,0-0.1,0-0.1c0-0.1,0-0.2,0.1-0.3c0-0.1,0-0.1,0.1-0.2c0-0.1,0.1-0.2,0.1-0.2c0-0.1,0-0.1,0-0.2c0-0.1,0-0.2-0.1-0.2
		c0-0.1-0.1-0.1-0.2-0.1c-0.1,0-0.2,0.1-0.3,0.2c-0.1,0.2-0.2,0.4-0.4,0.8l0,0l0.5-1.7h-0.6v0h0.1c0.1,0,0.2,0,0.2,0
		c0,0,0.1,0.1,0.1,0.1C42.6,22.7,42.6,22.7,42.5,22.8C42.6,22.8,42.6,22.8,42.5,22.8z"/>
	<path class="st0" d="M44.6,23.3c0-0.1-0.1-0.1-0.2-0.1c-0.1,0-0.1,0-0.2,0.1c-0.1,0-0.2,0.1-0.2,0.2c-0.1,0.1-0.2,0.2-0.2,0.3
		c0,0.1-0.1,0.2-0.1,0.3c0,0.2,0,0.3,0.1,0.4c0.1,0.1,0.2,0.1,0.3,0.1c0.1,0,0.2,0,0.2-0.1c0.1-0.1,0.1-0.2,0.2-0.3l0,0
		c0,0,0,0.1,0,0.1c0,0,0,0,0,0.1c0,0.1,0,0.1,0,0.2c0,0,0.1,0.1,0.1,0.1c0.1,0,0.2-0.1,0.2-0.2c0.1-0.1,0.2-0.3,0.2-0.4l0,0
		c-0.1,0.2-0.1,0.3-0.2,0.4c-0.1,0.1-0.1,0.2-0.2,0.2c0,0,0,0,0,0c0,0,0,0,0-0.1c0,0,0,0,0-0.1c0,0,0-0.1,0-0.1l0.3-1.1h-0.2
		l-0.1,0.4l0,0v0C44.7,23.5,44.7,23.4,44.6,23.3z M44.6,24c0,0.2-0.1,0.3-0.2,0.4c0,0.1-0.1,0.1-0.1,0.1c-0.1,0-0.1,0.1-0.2,0.1
		c-0.1,0-0.1,0-0.1-0.1c0,0-0.1-0.1-0.1-0.2c0-0.1,0-0.1,0-0.2c0-0.1,0-0.2,0.1-0.3c0-0.1,0.1-0.2,0.1-0.2c0-0.1,0.1-0.1,0.1-0.2
		c0-0.1,0.1-0.1,0.1-0.1c0,0,0.1-0.1,0.1-0.1c0.1,0,0.1,0,0.2,0.1c0,0.1,0.1,0.1,0.1,0.2C44.7,23.7,44.6,23.9,44.6,24z"/>
	<path class="st0" d="M46.3,23.5C46.3,23.5,46.3,23.6,46.3,23.5c0.1,0.1,0.1,0.1,0.1,0.1c0,0,0.1,0,0.1-0.1c0,0,0-0.1,0-0.1
		c0-0.1,0-0.1-0.1-0.1c0,0-0.1-0.1-0.1-0.1c-0.1,0-0.2,0.1-0.3,0.2c-0.1,0.1-0.2,0.3-0.3,0.5l0,0c0-0.1,0-0.2,0-0.2
		c0-0.1,0-0.1,0-0.2c0-0.1,0-0.1,0-0.2c0,0-0.1-0.1-0.1-0.1c-0.1,0-0.2,0.1-0.2,0.2c-0.1,0.1-0.1,0.3-0.2,0.4l0,0
		c0.1-0.2,0.1-0.3,0.2-0.4c0.1-0.1,0.1-0.1,0.2-0.1c0,0,0,0,0,0c0,0,0,0,0,0.1c0,0,0,0,0,0.1c0,0,0,0.1,0,0.1l-0.3,1.1h0.2
		c0.1-0.4,0.2-0.8,0.3-1c0.1-0.2,0.2-0.4,0.3-0.4c0,0,0,0,0,0c0,0,0,0,0,0c0,0,0,0-0.1,0.1C46.3,23.4,46.3,23.5,46.3,23.5z"/>
	<path class="st0" d="M46.8,23.4c0.1-0.1,0.1-0.2,0.2-0.2c0,0,0,0,0.1,0c0,0,0,0,0,0.1c0,0,0,0.1,0,0.1c0,0,0,0.1,0,0.1
		c0,0,0,0.1,0,0.1c-0.1,0.3-0.1,0.4-0.1,0.5c0,0.1,0,0.2,0.1,0.3c0.1,0.1,0.1,0.1,0.2,0.1c0.1,0,0.2,0,0.3-0.1
		c0.1-0.1,0.2-0.2,0.3-0.3c0.1-0.1,0.1-0.2,0.2-0.4c0-0.1,0.1-0.2,0.1-0.3c0-0.1,0-0.2,0-0.3c0-0.1-0.1-0.1-0.1-0.1
		c0,0-0.1,0-0.1,0.1c0,0,0,0.1,0,0.2c0,0.1,0,0.2,0.1,0.2c0,0.1,0.1,0.1,0.1,0.1c0,0.2-0.1,0.5-0.3,0.6c-0.1,0.2-0.2,0.3-0.4,0.3
		c-0.1,0-0.1,0-0.1-0.1c0,0,0-0.1,0-0.1c0-0.1,0-0.2,0.1-0.3c0,0,0-0.1,0-0.1c0-0.1,0.1-0.2,0.1-0.3c0-0.1,0-0.1,0-0.2
		c0-0.1,0-0.2,0-0.2c0-0.1-0.1-0.1-0.1-0.1C46.9,23.2,46.8,23.3,46.8,23.4c-0.1,0.1-0.2,0.2-0.2,0.4l0,0
		C46.6,23.7,46.7,23.5,46.8,23.4z"/>
	<path class="st0" d="M48.3,24c0.2,0,0.4-0.1,0.6-0.2c0.1-0.1,0.2-0.2,0.2-0.4c0-0.1,0-0.1-0.1-0.2c-0.1-0.1-0.1-0.1-0.2-0.1
		c-0.1,0-0.1,0-0.2,0.1c-0.1,0-0.2,0.1-0.2,0.2c-0.1,0.1-0.2,0.2-0.2,0.3c0,0.1-0.1,0.2-0.1,0.3c0,0.2,0,0.3,0.1,0.4
		c0.1,0.1,0.2,0.1,0.3,0.1c0.1,0,0.2,0,0.3-0.1c0.1-0.1,0.2-0.2,0.3-0.4l0,0c-0.1,0.2-0.2,0.3-0.3,0.4c-0.1,0.1-0.2,0.1-0.3,0.1
		c-0.1,0-0.1,0-0.2-0.1c0,0-0.1-0.1-0.1-0.2c0,0,0-0.1,0-0.2C48.3,24.1,48.3,24.1,48.3,24z M48.5,23.4c0.1-0.1,0.2-0.2,0.3-0.2
		c0.1,0,0.1,0,0.1,0.1c0,0,0.1,0.1,0.1,0.2c0,0.1-0.1,0.2-0.2,0.3c-0.1,0.1-0.3,0.1-0.5,0.2C48.4,23.7,48.5,23.6,48.5,23.4z"/>
	<path class="st0" d="M49.5,24.3C49.5,24.3,49.5,24.3,49.5,24.3c-0.1-0.1-0.1-0.1-0.1-0.1c0,0-0.1,0-0.1,0c0,0,0,0.1,0,0.1
		c0,0.1,0,0.2,0.1,0.2c0.1,0.1,0.2,0.1,0.3,0.1c0.1,0,0.3,0,0.4-0.1c0.1-0.1,0.1-0.2,0.1-0.3c0-0.1,0-0.1-0.1-0.2
		c0-0.1-0.1-0.1-0.3-0.3c-0.1-0.1-0.1-0.1-0.2-0.2c0,0,0-0.1,0-0.1c0-0.1,0-0.1,0.1-0.2c0.1,0,0.1-0.1,0.2-0.1c0.1,0,0.1,0,0.2,0
		c0,0,0.1,0.1,0.1,0.1c0,0,0,0-0.1,0.1c0,0-0.1,0.1-0.1,0.1c0,0,0,0.1,0,0.1c0,0,0.1,0,0.1,0c0,0,0.1,0,0.1,0c0,0,0-0.1,0-0.1
		c0-0.1,0-0.2-0.1-0.2c-0.1-0.1-0.2-0.1-0.3-0.1c-0.1,0-0.2,0-0.3,0.1c-0.1,0.1-0.1,0.2-0.1,0.3c0,0.1,0.1,0.3,0.3,0.5
		c0,0,0,0,0.1,0c0.1,0,0.1,0.1,0.1,0.1c0,0,0,0.1,0,0.1c0,0.1,0,0.1-0.1,0.2c-0.1,0-0.1,0.1-0.2,0.1c-0.1,0-0.2,0-0.2,0
		c-0.1,0-0.1-0.1-0.1-0.1c0,0,0,0,0,0C49.4,24.5,49.5,24.4,49.5,24.3z"/>
	<path class="st0" d="M50.9,22.6l-0.2,0.7h-0.3l0,0.1h0.3L50.6,24c0,0.1,0,0.2,0,0.2c0,0,0,0.1,0,0.1c0,0.1,0,0.2,0.1,0.2
		c0,0.1,0.1,0.1,0.2,0.1c0.1,0,0.2-0.1,0.2-0.2c0.1-0.1,0.1-0.3,0.2-0.5l0,0c0,0.2-0.1,0.3-0.2,0.4c-0.1,0.1-0.1,0.2-0.2,0.2
		c0,0,0,0-0.1,0c0,0,0,0,0-0.1c0,0,0-0.1,0-0.1c0,0,0-0.1,0-0.1l0.3-1h0.3l0-0.1H51l0.2-0.7H50.9z"/>
	
		<ellipse transform="matrix(5.791697e-02 -0.9983 0.9983 5.791697e-02 22.3305 55.8638)" class="st0" cx="40.8" cy="16.1" rx="0.1" ry="0.1"/>
	
		<ellipse transform="matrix(5.791697e-02 -0.9983 0.9983 5.791697e-02 22.3305 55.8638)" class="st0" cx="40.8" cy="16.1" rx="0.1" ry="0.1"/>
	<path class="st0" d="M45.7,11.8c0-0.2-0.2-0.1-0.2-0.1c0.1,0.1,0,0.2-0.1,0.2c-0.1-0.1-0.1-0.3,0-0.7c0.1-0.4,0.1-0.7,0-0.8
		c-0.1-0.1-0.1-0.3-0.4-0.3c-0.3,0-0.6,0.3-0.5,0.4c0,0.1-0.1,0.1-0.1,0.1c-0.5-0.2-0.8,0.2-0.8,0.2c0.2,0,0.4,0,0.5,0.1
		c0.1,0.1-0.4,0.5-0.6,0.7c-0.2,0.2-0.2,0.7-0.2,0.7c0,0.6,0.4,1,0.4,1.4c0,0.1-0.1,0.5-0.5,0.5c-0.4,0-0.5-0.4-0.5-0.4
		s-0.6,0.4-0.7,0.6c-0.1,0.1-0.1,0.3-0.1,0.3c-0.1-0.3-0.5-0.4-0.5-0.4c-0.9-0.2-1.7,0.5-1.7,1.1c0,0.5,0.3,0.5,0.5,0.8
		c0.1,0.1,0,0.1,0,0.1c-0.3-0.3-0.9-0.2-0.9-0.2c-0.5-0.3-0.7,0.2-0.7,0.2c0.1,0.1,0.5,0.1,0.5,0.1c0.1,0.2,0.4,0.3,0.4,0.3
		c-0.2,0-0.3,0-0.4,0.1c-0.4,0.3-0.1,0.7-0.1,0.7c0-0.3,0.5-0.4,0.5-0.4c-0.2,0.8,0.3,0.7,0.2,0.7c0,0-0.1-0.7,0.4-0.7
		c0.5,0,0.5,0.5,0.5,0.5c0.1,0,0.5,0,0.2-0.5c-0.3-0.5,0.4-0.4,0.4-0.4c0.3,0,0.3-0.5,0.1-0.5c-0.5-0.1-0.4-0.7,0-0.7
		c0.3,0,0.4,0.1,0.4,0.1c0,1.4,0.4,1.4,0.9,1.4c0.5,0,0.6-0.4,0.9-0.5c0.2-0.1,0.6,0.1,0.4,0.5c-0.2,0.5,0.2,1,0.4,1
		c0.1,0,0.1,0,0.1-0.1C44,17.7,44,17.6,44,17.6s0-0.1,0.1,0c0.2,0.2,0.4,0.3,0.4,0.2c0-0.1-0.3-0.5-0.3-0.5c0.1-0.1,0.5,0.3,0.6,0
		c-0.1,0-0.2-0.1-0.3-0.2c-0.1-0.2-0.4-1.1-0.4-1.1c-0.1-0.1,0.2-0.6-0.2-0.6c-0.4,0-0.7,0.4-0.7,0.4c-0.3,0.3-0.4,0.2-0.4,0.2
		c-0.3-0.3,0.7-1.4,0.7-1.4c0.2-0.2,0.4-0.4,0.4-0.8c0-0.4-0.2-0.8-0.3-1c-0.1-0.2-0.1-0.4-0.1-0.4c0-0.4,0.3-0.5,0.5-0.4
		c0.4,0.2,0,0.5,0,0.5s0.5,0,0.5-0.4c0-0.5-0.6-0.5-0.6-0.5l0.5-0.6c0.3-0.3,0.4-0.3,0.5-0.2c0.2,0.2,0,0.7,0,1
		c0,0.3,0.2,0.5,0.4,0.5C45.6,12.2,45.7,11.9,45.7,11.8"/>
	
		<ellipse transform="matrix(5.791697e-02 -0.9983 0.9983 5.791697e-02 22.3305 55.8638)" class="st0" cx="40.8" cy="16.1" rx="0.1" ry="0.1"/>
	<path class="st0" d="M38.1,12.7c-0.2,0-0.3,0.1-0.3,0.1c-0.2,0.2-0.1,0.5-0.1,0.5c0,0,0.2-0.3,0.3-0.2c0.1,0.1,0.4-0.1,0.3,0
		c-0.1,0.1,0,0.2,0,0.2c-0.5,0.2,0,0.7,0,0.7c0-0.3,0.2-0.4,0.3-0.5c0.3-0.1,0.3-0.2,0.3-0.2c0.3,0.2,0.4-0.1,0.6-0.1
		c0.2,0,0.1,0.3,0.1,0.3c0.1,0,0.2,0,0.2-0.1c0-0.2,0.3-0.2,0.3,0c0,0,0,0,0,0c0.1,0,0.2-0.1,0.3-0.2c0,0,0-0.1,0-0.1s0.5,1.1,1.1,1
		c0.5-0.1,1.1-0.7,1.1-0.7c0,0-0.2-0.2-0.3-0.4c-0.1-0.2,0.1-0.4,0.1-0.4s0.4,0.2,0.7-0.2c0,0-0.5,0.1-0.5-0.4c0,0,0.2-0.1,0.1-0.5
		c0,0,0.3,0.7,0.7,0c0,0-0.3,0.2-0.4-0.2c-0.2-0.4-0.2-0.5-0.2-0.5s-0.1-0.1,0,0c0.1,0.1,0.6,0.4,0.8,0c0.1-0.1,0-0.1,0-0.1
		S43,10.9,43,10.6c0,0,0-0.6-0.1-0.7c0,0,0.6,0.3,0.6-0.3c0,0-0.1,0.2-0.4,0.1c-0.2-0.1-0.2-0.4-0.2-0.4c0,0-0.1,0-0.2-0.1
		c0,0-0.3-0.1-0.4-0.2c-0.4-0.2-0.4-0.1-0.7-0.2c-0.1,0-0.1,0-0.2-0.1c0,0.1-0.3,0.3-0.3,0.3c-0.1,0-0.3,0-0.4,0
		c-0.1,0,0,0.4,0.1,0.4c0.1,0,0.4,0,0.4,0c0.2,0,0.2,0.3-0.3,0.3c-0.2,0-0.2,0.3-0.1,0.3c0.2,0,0.6,0,0.6,0c0.1,0,0.2,0.1,0.2,0.2
		c0,0.1-0.1,0.2-0.2,0.2l0,0c-0.2,0-0.3,0.1-0.4,0.2c-0.1,0.1-0.3,0.1-0.5,0c-0.1-0.1-0.1-0.1-0.2-0.1c-0.1,0,0,0.5,0,0.5
		c-0.3-0.3-0.4-0.7-0.3-1.1c0.1-0.4-0.2-0.7-0.3-0.8c-0.1-0.1-0.3-0.3-0.4-0.4c-0.1-0.1-0.2,0-0.2,0c0.3,0.3,0.2,0.6,0.2,0.6
		C39.2,8.8,39,8.8,39,8.8c-0.3-0.1-0.5,0.1-0.5,0.2c0,0.1,0.3,0.1,0.3,0.1L39,9.3c-0.5,0-0.6,0.3-0.6,0.3s0.2,0.2,0.3,0
		c0.1-0.1,0.3,0,0.3,0.1c0,0,0.2,0,0.3,0c0.1,0,0.2,0.3-0.3,0.7c-0.5,0.4-0.2,1.1-0.2,1.1s0-0.2,0.2-0.2c0.1,0,0.1,0,0.2,0.3
		c0,0.2,0.1,0.3,0.2,0.4c0.1,0.1,0.1,0.1,0.2,0.1c0.1,0,0.1-0.6,0.1-0.6c0,0.3,0.4,0.4,0.4,0.4c-0.3,0-0.3,0.1-0.5,0.3
		c-0.1,0.2-0.5,0.2-0.7,0c-0.2-0.1-0.4-0.3-0.8-0.3c-0.4,0-0.7,0.4-0.5,0.3C37.6,12.3,38.3,12.6,38.1,12.7z M41.9,9.2
		c0,0-0.4,0-0.3-0.1C41.6,9,41.9,9.1,41.9,9.2z"/>
	<path class="st0" d="M40.7,9.6c0.1,0,0-0.1,0-0.1s-0.4-0.7-0.5-0.9c-0.1-0.2-0.2-0.2-0.3-0.2c-0.1,0-0.2,0.1-0.1,0.4
		C40,9.2,40.7,9.6,40.7,9.6z"/>
	<path class="st0" d="M43.5,10.7c0.2,0,0.4,0,0.5,0.1c0.1,0.1-0.4,0.5-0.6,0.7c-0.2,0.2-0.2,0.7-0.2,0.7c0,0.6,0.4,1,0.4,1.4
		c0,0.1-0.1,0.5-0.5,0.5c-0.4,0-0.5-0.4-0.5-0.4s-0.6,0.4-0.7,0.6c-0.1,0.1-0.1,0.3-0.1,0.3c-0.1-0.3-0.5-0.4-0.5-0.4
		c-0.9-0.2-1.7,0.5-1.7,1.1c0,0.5,0.3,0.5,0.5,0.8c0.1,0.1,0,0.1,0,0.1c-0.3-0.3-0.9-0.2-0.9-0.2c-0.5-0.3-0.7,0.2-0.7,0.2
		c0.1,0.1,0.5,0.1,0.5,0.1c0.1,0.2,0.4,0.3,0.4,0.3c-0.2,0-0.3,0-0.4,0.1c-0.4,0.3-0.1,0.7-0.1,0.7c0-0.3,0.5-0.4,0.5-0.4
		c-0.2,0.8,0.3,0.7,0.2,0.7c0,0-0.1-0.7,0.4-0.7c0.5,0,0.5,0.5,0.5,0.5c0.1,0,0.5,0,0.2-0.5c-0.3-0.5,0.4-0.4,0.4-0.4
		c0.3,0,0.3-0.5,0.1-0.5c-0.5-0.1-0.4-0.7,0-0.7c0.3,0,0.4,0.1,0.4,0.1c0,1.4,0.4,1.4,0.9,1.4c0.5,0,0.6-0.4,0.9-0.5
		c0.2-0.1,0.6,0.1,0.4,0.5c-0.2,0.5,0.2,1,0.4,1c0.1,0,0.1,0,0.1-0.1C44,17.7,44,17.6,44,17.6s0-0.1,0.1,0c0.2,0.2,0.4,0.3,0.4,0.2
		c0-0.1-0.3-0.5-0.3-0.5c0.1-0.1,0.5,0.3,0.6,0c-0.1,0-0.2-0.1-0.3-0.2c-0.1-0.2-0.4-1.1-0.4-1.1c-0.1-0.1,0.2-0.6-0.2-0.6
		c-0.4,0-0.7,0.4-0.7,0.4c-0.3,0.3-0.4,0.2-0.4,0.2c-0.3-0.3,0.7-1.4,0.7-1.4c0.2-0.2,0.4-0.4,0.4-0.8c0-0.4-0.2-0.8-0.3-1
		c-0.1-0.2-0.1-0.4-0.1-0.4c0-0.4,0.3-0.5,0.5-0.4c0.4,0.2,0,0.5,0,0.5s0.5,0,0.5-0.4c0-0.5-0.6-0.5-0.6-0.5l0.5-0.6
		c0.3-0.3,0.4-0.3,0.5-0.2c0.2,0.2,0,0.7,0,1c0,0.3,0.2,0.5,0.4,0.5c0.3,0,0.4-0.2,0.4-0.4c0-0.2-0.2-0.1-0.2-0.1
		c0.1,0.1,0,0.2-0.1,0.2c-0.1-0.1-0.1-0.3,0-0.7c0.1-0.4,0.1-0.7,0-0.8c-0.1-0.1-0.1-0.3-0.4-0.3c-0.3,0-0.6,0.3-0.5,0.4
		c0,0.1-0.1,0.1-0.1,0.1C43.8,10.3,43.5,10.7,43.5,10.7z M40.9,16.1c0,0-0.1,0.1-0.1,0.1c-0.1,0-0.1,0-0.1-0.1
		C40.7,16.1,40.7,16,40.9,16.1C40.8,16,40.9,16.1,40.9,16.1z"/>
	<polygon class="st0" points="42.5,8.1 42.5,8.1 42.5,8.1 	"/>
	<path class="st0" d="M41.1,7.8c0.3,0.3,0.4,0.4,0.3,0.4c0,0,0,0.1,0,0.1c0.1,0,0.6-0.1,1.2,0.3c0.2,0.1,0.5,0.3,0.5,0.5
		c0,0.1,0.4,0.1,0.6,0.1c0.2,0,0.2-0.1,0.1-0.1c0,0-0.2,0-0.2-0.3c0,0,0-0.1,0-0.1l0,0c0,0,0,0,0,0c0,0,0,0,0,0c0,0-0.1,0.2-0.2,0.2
		c-0.1,0-0.2-0.2-0.2-0.3c0,0,0.1,0,0.1-0.1c0.1-0.1,0.1-0.2,0-0.2c0,0,0,0,0,0c0,0,0,0,0,0c0,0-0.1,0-0.2,0.1c0,0.1,0,0.1,0,0.1
		c-0.1,0-0.1,0-0.2,0c-0.1-0.1-0.3-0.1-0.3-0.2v0c0-0.1,0-0.1,0.1-0.1c0,0,0,0,0,0l0,0l0,0c0,0,0,0,0,0c0.1,0,0.2,0,0.2,0
		c0,0,0-0.1-0.1-0.1c0,0,0,0,0,0c-0.1,0-0.1-0.1-0.1-0.1c0,0,0-0.1,0-0.1c0,0-0.1,0-0.1,0c0,0,0,0.1-0.1,0c0,0,0,0,0,0
		c-0.1,0-0.2,0-0.2,0c0,0,0,0.1,0.1,0.1l0,0c0,0,0,0.1,0,0.1c0,0,0,0,0,0v0c0,0,0,0,0,0c0,0.1-0.1,0.1-0.2,0.1
		c-0.1,0-0.2-0.1-0.2-0.2c0,0,0.1-0.1,0.1-0.1c0-0.1,0-0.2,0-0.2c-0.1,0-0.1,0-0.2,0.1c0,0.1,0,0.2,0,0.2c0,0,0,0.1-0.2,0.1
		c-0.3,0-0.1-0.4-0.1-0.4v0c0-0.1,0-0.1,0-0.1c0,0-0.1,0-0.1,0C41.4,7.8,41.3,7.8,41.1,7.8C41,7.6,41,7.6,41.1,7.8
		C41,7.7,41,7.7,41.1,7.8L41.1,7.8z"/>
	<path class="st0" d="M38.1,12.7c-0.2,0-0.3,0.1-0.3,0.1c-0.2,0.2-0.1,0.5-0.1,0.5c0,0,0.2-0.3,0.3-0.2c0.1,0.1,0.4-0.1,0.3,0
		c-0.1,0.1,0,0.2,0,0.2c-0.5,0.2,0,0.7,0,0.7c0-0.3,0.2-0.4,0.3-0.5c0.3-0.1,0.3-0.2,0.3-0.2c0.3,0.2,0.4-0.1,0.6-0.1
		c0.2,0,0.1,0.3,0.1,0.3c0.1,0,0.2,0,0.2-0.1c0-0.2,0.3-0.2,0.3,0c0,0,0,0,0,0c0.1,0,0.2-0.1,0.3-0.2c0,0,0-0.1,0-0.1s0.5,1.1,1.1,1
		c0.5-0.1,1.1-0.7,1.1-0.7c0,0-0.2-0.2-0.3-0.4c-0.1-0.2,0.1-0.4,0.1-0.4s0.4,0.2,0.7-0.2c0,0-0.5,0.1-0.5-0.4c0,0,0.2-0.1,0.1-0.5
		c0,0,0.3,0.7,0.7,0c0,0-0.3,0.2-0.4-0.2c-0.2-0.4-0.2-0.5-0.2-0.5s-0.1-0.1,0,0c0.1,0.1,0.6,0.4,0.8,0c0.1-0.1,0-0.1,0-0.1
		S43,10.9,43,10.6c0,0,0-0.6-0.1-0.7c0,0,0.6,0.3,0.6-0.3c0,0-0.1,0.2-0.4,0.1c-0.2-0.1-0.2-0.4-0.2-0.4c0,0-0.1,0-0.2-0.1
		c0,0-0.3-0.1-0.4-0.2c-0.4-0.2-0.4-0.1-0.7-0.2c-0.1,0-0.1,0-0.2-0.1c0,0.1-0.3,0.3-0.3,0.3c-0.1,0-0.3,0-0.4,0
		c-0.1,0,0,0.4,0.1,0.4c0.1,0,0.4,0,0.4,0c0.2,0,0.2,0.3-0.3,0.3c-0.2,0-0.2,0.3-0.1,0.3c0.2,0,0.6,0,0.6,0c0.1,0,0.2,0.1,0.2,0.2
		c0,0.1-0.1,0.2-0.2,0.2l0,0c-0.2,0-0.3,0.1-0.4,0.2c-0.1,0.1-0.3,0.1-0.5,0c-0.1-0.1-0.1-0.1-0.2-0.1c-0.1,0,0,0.5,0,0.5
		c-0.3-0.3-0.4-0.7-0.3-1.1c0.1-0.4-0.2-0.7-0.3-0.8c-0.1-0.1-0.3-0.3-0.4-0.4c-0.1-0.1-0.2,0-0.2,0c0.3,0.3,0.2,0.6,0.2,0.6
		C39.2,8.8,39,8.8,39,8.8c-0.3-0.1-0.5,0.1-0.5,0.2c0,0.1,0.3,0.1,0.3,0.1L39,9.3c-0.5,0-0.6,0.3-0.6,0.3s0.2,0.2,0.3,0
		c0.1-0.1,0.3,0,0.3,0.1c0,0,0.2,0,0.3,0c0.1,0,0.2,0.3-0.3,0.7c-0.5,0.4-0.2,1.1-0.2,1.1s0-0.2,0.2-0.2c0.1,0,0.1,0,0.2,0.3
		c0,0.2,0.1,0.3,0.2,0.4c0.1,0.1,0.1,0.1,0.2,0.1c0.1,0,0.1-0.6,0.1-0.6c0,0.3,0.4,0.4,0.4,0.4c-0.3,0-0.3,0.1-0.5,0.3
		c-0.1,0.2-0.5,0.2-0.7,0c-0.2-0.1-0.4-0.3-0.8-0.3c-0.4,0-0.7,0.4-0.5,0.3C37.6,12.3,38.3,12.6,38.1,12.7z M41.9,9.2
		c0,0-0.4,0-0.3-0.1C41.6,9,41.9,9.1,41.9,9.2z"/>
	<path class="st0" d="M42.9,8.8c-0.2-0.1-0.2-0.2-0.6-0.3c-0.3-0.1-0.5-0.1-0.7-0.1h-0.3c-0.1,0.1,0,0.3,0,0.3
		c0.1,0,0.2,0.1,0.5,0.1c0.2,0,0.7,0.3,0.8,0.3c0.1,0.1,0.2,0.1,0.3,0.1c0,0,0.2-0.2,0.2-0.2S43.1,8.9,42.9,8.8z M41.6,8.6
		C41.6,8.6,41.5,8.6,41.6,8.6C41.5,8.5,41.6,8.5,41.6,8.6C41.6,8.5,41.6,8.5,41.6,8.6C41.6,8.6,41.6,8.6,41.6,8.6z M41.9,8.6
		c-0.1,0-0.1-0.1-0.1-0.1c0,0,0.1,0,0.2,0C42,8.5,42,8.6,42,8.6C42,8.6,41.9,8.6,41.9,8.6z M42.2,8.7C42.1,8.7,42.1,8.6,42.2,8.7
		c-0.1-0.1,0-0.2,0-0.2C42.3,8.5,42.3,8.6,42.2,8.7C42.3,8.7,42.2,8.7,42.2,8.7z M42.5,8.9c-0.1,0-0.1-0.1-0.1-0.1
		C42.5,8.7,42.5,8.8,42.5,8.9c0.1,0,0.2,0,0.1,0C42.6,8.9,42.6,8.9,42.5,8.9z M42.8,9.1C42.8,9.1,42.8,9,42.8,9.1
		C42.8,9,42.8,9,42.8,9.1C42.8,9,42.8,9,42.8,9.1C42.8,9,42.8,9.1,42.8,9.1z"/>
	<g>
		<path class="st0" d="M41.4,22.2c-0.1,0-0.3-0.1-0.4-0.2c-0.1-0.1-0.2-0.3-0.6-0.5c-0.2-0.1-0.3-0.3-0.2-0.5
			c-0.1,0.2-0.3,0.3-0.5,0.2c-0.2-0.1-0.5-0.1-0.8-0.2c-0.2,0-0.4-0.2-0.4-0.5c0,0.2-0.2,0.4-0.5,0.4c-0.2,0-0.4,0-0.6,0l-0.1,0
			l-0.2,0c-0.3,0-0.5-0.2-0.4-0.5c0-0.3,0.2-0.4,0.5-0.4l0.2,0c0.3,0,0.5,0,0.7,0c0,0,0,0,0,0c0.3,0,0.5,0.2,0.5,0.5c0,0,0,0,0,0
			c0,0,0,0,0,0c0-0.3,0.3-0.4,0.5-0.4c0.3,0,0.7,0.1,1,0.2c0.2,0.1,0.4,0.3,0.3,0.6c0,0,0,0,0,0c0,0,0,0,0,0
			c0.1-0.2,0.4-0.3,0.6-0.2c0.3,0.2,0.5,0.3,0.6,0.5c0-0.1,0.1-0.3,0.2-0.4c0.3-0.2,0.6-0.3,0.9-0.5c0.2-0.1,0.5,0,0.6,0.3
			c0,0,0,0,0,0c0,0,0,0,0,0c0-0.2,0.1-0.5,0.4-0.5c0.3,0,0.6-0.1,1-0.1c0.3,0,0.5,0.2,0.5,0.4c0,0.3-0.2,0.5-0.4,0.5
			c-0.3,0-0.6,0-0.8,0.1c-0.2,0-0.4-0.1-0.5-0.3c0,0.2-0.1,0.4-0.3,0.5c-0.3,0.1-0.5,0.2-0.7,0.4c-0.1,0.1-0.3,0.1-0.4,0
			c0,0.2,0,0.3-0.2,0.4C41.6,22.2,41.5,22.2,41.4,22.2z M45.6,21c-0.3,0-0.5-0.2-0.5-0.5c0-0.3,0.2-0.5,0.5-0.5c0.1,0,0.4,0,0.8,0
			c0.2,0,0.5,0.2,0.5,0.4c0,0.3-0.2,0.5-0.4,0.5C46.1,21,45.7,21,45.6,21z M36.2,21C36.2,21,36.2,21,36.2,21c-0.4,0-0.8-0.1-1-0.2
			c-0.2-0.1-0.4-0.3-0.3-0.6c0,0,0,0,0,0c-0.3,0.1-0.7-0.1-0.7-0.4v-0.9c0-0.2,0.2-0.4,0.4-0.5c-0.2,0-0.4-0.2-0.4-0.5V17
			c0-0.3,0.2-0.5,0.5-0.5s0.5,0.2,0.5,0.5v0.9c0,0.2-0.2,0.4-0.4,0.5c0.2,0,0.4,0.2,0.4,0.5v0.9c0,0.1,0,0.1,0,0.2
			c0.1,0,0.2-0.1,0.3,0c0.2,0.1,0.5,0.1,0.8,0.2c0.3,0,0.4,0.3,0.4,0.5C36.7,20.8,36.5,21,36.2,21z M47.3,20.8
			c-0.2,0-0.4-0.1-0.4-0.3c-0.1-0.2,0.1-0.5,0.3-0.6c0.4-0.1,0.5-0.2,0.5-0.2c0.1-0.1,0.2-0.2,0.4-0.2c-0.2,0-0.4-0.2-0.4-0.4l0-0.9
			c0-0.3,0.2-0.5,0.5-0.5c0,0,0,0,0,0c0.3,0,0.5,0.2,0.5,0.5l0,0.9c0,0.2-0.2,0.4-0.4,0.5c0,0,0.1,0,0.1,0c0.2,0.1,0.3,0.4,0.2,0.6
			c-0.2,0.3-0.5,0.5-1.1,0.7C47.4,20.8,47.4,20.8,47.3,20.8z M48.1,17.7c-0.3,0-0.5-0.2-0.5-0.5v-0.9c0-0.3,0.2-0.5,0.5-0.5
			s0.5,0.2,0.5,0.5v0.9C48.6,17.5,48.4,17.7,48.1,17.7z M34.7,16.6c-0.3,0-0.5-0.2-0.5-0.5v-0.9c0-0.3,0.2-0.5,0.5-0.5
			s0.5,0.2,0.5,0.5v0.9C35.2,16.4,35,16.6,34.7,16.6z M48.1,15.8c-0.3,0-0.5-0.2-0.5-0.5v-0.9c0-0.3,0.2-0.5,0.5-0.5
			s0.5,0.2,0.5,0.5v0.9C48.6,15.6,48.4,15.8,48.1,15.8z M34.7,14.7c-0.3,0-0.5-0.2-0.5-0.5v-0.9c0-0.3,0.2-0.5,0.5-0.5
			s0.5,0.2,0.5,0.5v0.9C35.2,14.5,35,14.7,34.7,14.7z M48.1,14c-0.3,0-0.5-0.2-0.5-0.5v-0.9c0-0.3,0.2-0.5,0.5-0.5s0.5,0.2,0.5,0.5
			v0.9C48.6,13.8,48.4,14,48.1,14z M34.7,12.9c-0.3,0-0.5-0.2-0.5-0.5l0-0.9c0-0.3,0.2-0.5,0.5-0.5l0,0c0.3,0,0.5,0.2,0.5,0.5l0,0.9
			C35.2,12.7,35,12.9,34.7,12.9C34.7,12.9,34.7,12.9,34.7,12.9z M48.1,12.2c-0.3,0-0.5-0.2-0.5-0.5v-0.9c0-0.3,0.2-0.5,0.5-0.5
			s0.5,0.2,0.5,0.5v0.9C48.6,12,48.4,12.2,48.1,12.2z M34.7,11.1c-0.3,0-0.5-0.2-0.5-0.5l0-0.9c0-0.3,0.2-0.5,0.5-0.5l0,0
			c0.3,0,0.5,0.2,0.5,0.5l0,0.9C35.2,10.9,35,11.1,34.7,11.1L34.7,11.1z M48.1,10.4c-0.3,0-0.5-0.2-0.5-0.5V9c0-0.2,0.2-0.4,0.4-0.5
			c-0.2,0-0.4-0.2-0.4-0.5V7.2c0-0.3,0.2-0.5,0.5-0.5s0.5,0.2,0.5,0.5v0.9c0,0.2-0.2,0.4-0.4,0.5c0.2,0,0.4,0.2,0.4,0.5v0.9
			C48.6,10.2,48.4,10.4,48.1,10.4z M34.7,9.3c-0.3,0-0.5-0.2-0.5-0.5l0-0.9c0-0.3,0.2-0.5,0.5-0.5c0,0,0,0,0,0
			c0.3,0,0.5,0.2,0.5,0.5l0,0.9C35.2,9.1,35,9.3,34.7,9.3C34.7,9.3,34.7,9.3,34.7,9.3z M34.7,7.4c-0.3,0-0.5-0.2-0.5-0.5V6.1
			c0-0.3,0.2-0.5,0.5-0.5s0.5,0.2,0.5,0.5V7C35.2,7.2,35,7.4,34.7,7.4z M48.1,6.7c-0.3,0-0.5-0.2-0.5-0.5l0-0.9
			c0-0.2,0.2-0.4,0.4-0.5c-0.2,0-0.3-0.1-0.4-0.3c0,0-0.1-0.1-0.1-0.1l-0.9,0c-0.3,0-0.5-0.2-0.5-0.5s0.2-0.5,0.5-0.5h0.9
			c0.3,0,0.7,0.2,0.9,0.6c0.1,0.2,0,0.5-0.2,0.6c0,0-0.1,0-0.1,0c0.2,0,0.4,0.2,0.4,0.5l0,0.9C48.6,6.5,48.4,6.7,48.1,6.7
			C48.1,6.7,48.1,6.7,48.1,6.7z M34.7,5.6c-0.3,0-0.5-0.2-0.5-0.5V4.6c0-0.3,0.1-0.5,0.3-0.7c0.2-0.2,0.5-0.2,0.6,0
			c0,0,0.1,0.1,0.1,0.1c0-0.2,0.2-0.4,0.5-0.4h0.9c0.3,0,0.5,0.2,0.5,0.5s-0.2,0.5-0.5,0.5h-0.9c-0.2,0-0.3-0.1-0.4-0.3
			c0,0.1-0.1,0.2-0.1,0.3c0,0,0,0,0,0v0.5C35.2,5.4,35,5.6,34.7,5.6z M45.8,4.6h-0.9c-0.3,0-0.5-0.2-0.5-0.5s0.2-0.5,0.5-0.5h0.9
			c0.3,0,0.5,0.2,0.5,0.5S46,4.6,45.8,4.6z M44,4.6H43c-0.2,0-0.4-0.2-0.5-0.4c0,0.2-0.2,0.4-0.5,0.4h-0.9c-0.3,0-0.5-0.2-0.5-0.5
			s0.2-0.5,0.5-0.5h0.9c0.2,0,0.4,0.2,0.5,0.4c0-0.2,0.2-0.4,0.5-0.4H44c0.3,0,0.5,0.2,0.5,0.5S44.2,4.6,44,4.6z M40.3,4.6h-0.9
			c-0.3,0-0.5-0.2-0.5-0.5s0.2-0.5,0.5-0.5h0.9c0.3,0,0.5,0.2,0.5,0.5S40.6,4.6,40.3,4.6z M38.5,4.6h-0.9c-0.3,0-0.5-0.2-0.5-0.5
			s0.2-0.5,0.5-0.5h0.9c0.3,0,0.5,0.2,0.5,0.5S38.7,4.6,38.5,4.6z"/>
	</g>
</g>
</svg>
