<?xml version="1.0" encoding="utf-8"?>
<!-- Generator: Adobe Illustrator 21.1.0, SVG Export Plug-In . SVG Version: 6.00 Build 0)  -->
<svg version="1.1" id="Layer_1" xmlns="http://www.w3.org/2000/svg" xmlns:xlink="http://www.w3.org/1999/xlink" x="0px" y="0px"
	 viewBox="0 0 124.4 51.4" style="enable-background:new 0 0 124.4 51.4;" xml:space="preserve">
<style type="text/css">
	.st0{fill:#FFFFFF;}
	.st1{fill:#00937F;}
	.st2{fill:#7C7C81;}
	.st3{fill:#B3CB04;}
	.st4{fill:#1E6679;}
	.st5{fill:#60AE42;}
	.st6{fill:#0046AD;}
	.st7{fill-rule:evenodd;clip-rule:evenodd;fill:#FFFFFF;}
	.st8{fill-rule:evenodd;clip-rule:evenodd;}
	.st9{fill:none;stroke:#FFFFFF;stroke-width:0.685;stroke-miterlimit:1;stroke-dasharray:0.685,0.685;}
	.st10{fill:none;stroke:#FFFFFF;stroke-width:0.429;stroke-miterlimit:1;stroke-dasharray:0.309,0.524;}
	.st11{fill:none;stroke:#000000;stroke-width:0.913;stroke-linecap:round;stroke-miterlimit:6;stroke-dasharray:0.913,0.913;}
</style>
<g>
	<g>
		<path class="st0" d="M10,15.6c1.1-0.7,2.5-0.7,3.6,0c1.1-0.7,2.5-0.7,3.6,0c1.1-0.7,2.5-0.7,3.6,0c0.7-0.4,1.6-0.6,2.4-0.4
			c0.8,0.1,1.6,0.6,2.1,1.3c0.5,0.7,0.8,1.5,0.7,2.4c0,0.3-0.1,0.6-0.2,0.9c0.6-0.7,1.6-1.1,2.5-1.1c0.1-0.9,0.4-1.9,1.1-2.5
			c0.5-0.5,1.1-0.9,1.8-1c0.8-0.2,1.8,0,2.5,0.4c1.1-0.7,2.5-0.7,3.6,0c1.1-0.7,2.5-0.7,3.6,0c0.8-0.5,1.8-0.6,2.7-0.4
			c0.8,0.2,1.6,0.8,2,1.5c0.4,0.5,0.5,1.2,0.5,1.8c1,0.1,1.9,0.5,2.6,1.2c0.6,0.6,0.9,1.3,1,2.1c0-0.5,0.2-1.1,0.5-1.5
			c-0.4-0.7-0.6-1.6-0.4-2.4c0.2-0.9,0.7-1.8,1.5-2.3c1.1-0.7,2.6-0.7,3.7,0c1.1-0.7,2.7-0.7,3.8,0.1c0.9,0.6,1.4,1.7,1.4,2.8
			c1.1,0.1,2.2,0.6,2.9,1.6c0.4,0.6,0.7,1.3,0.7,2c0.1,0,0.2,0.1,0.3,0.1c0-0.7,0.1-1.4,0.5-1.9c-0.6-1-0.7-2.3-0.1-3.4
			c0.5-0.9,1.4-1.6,2.4-1.8c0.7-0.1,1.4,0,2.1,0.3c0.1,0.1,0.2,0.1,0.4,0.2c0.9-0.5,2-0.6,2.9-0.3c1,0.3,1.7,1.1,2.1,2
			c0.4,1,0.3,2.1-0.3,3c0.7,1.1,0.7,2.5,0,3.6c0.5,0.9,0.6,2,0.3,2.9c-0.1,0.2-0.2,0.5-0.3,0.7c0,0.1,0.1,0.2,0.1,0.2
			c0.2,0.4,0.3,0.9,0.4,1.4c0-0.8,0.3-1.5,0.8-2.1c0.6-0.7,1.6-1.2,2.6-1.2c0.1-0.7,0.3-1.4,0.7-2c-0.5-0.8-0.6-1.9-0.3-2.8
			c0.3-0.9,0.9-1.7,1.8-2.1c0.5-0.2,1-0.4,1.5-0.4c0.1-1,0.5-2,1.3-2.7c0.6-0.6,1.5-0.9,2.3-0.9c0.6,0,1.2,0.2,1.8,0.5
			c0.9-0.5,2-0.6,2.9-0.3c1,0.3,1.7,1.1,2.1,2c0.2,0.4,0.2,0.8,0.2,1.2c1,0.1,1.9,0.5,2.6,1.2c0.7,0.7,1,1.7,1,2.7
			c-0.1,0.5-0.2,1.1-0.5,1.5c0.3,0.5,0.5,1.2,0.5,1.8c1,0.1,2,0.5,2.6,1.2c-0.1-0.3-0.2-0.6-0.2-0.8c0-0.4,0-0.9,0.1-1.3
			c0.1-0.3,0.2-0.6,0.4-0.9c-0.6-1-0.7-2.3-0.1-3.3c0.6-1.1,1.8-1.9,3.1-1.9c0.1-0.9,0.4-1.8,1.1-2.5c0.7-0.7,1.6-1.1,2.5-1.1
			c0.6,0,1.2,0.2,1.8,0.5c1.1-0.7,2.5-0.7,3.6,0c1-0.6,2.4-0.7,3.4-0.1c0.1,0,0.2,0.1,0.2,0.1c1.1-0.6,2.5-0.6,3.5,0
			c0.9-0.5,2-0.7,3-0.3c1,0.4,1.8,1.2,2.1,2.2c0.2,0.5,0.2,1.1,0.1,1.6c-0.1,0.7-0.5,1.4-1,1.9c-0.7,0.7-1.7,1-2.7,1
			c-0.5,0-1-0.2-1.5-0.5c-0.2,0.1-0.4,0.2-0.6,0.3c-1,0.4-2.1,0.3-3.1-0.3c-1,0.6-2.3,0.7-3.3,0.2c-0.1,0-0.2-0.1-0.3-0.1
			c-0.5,0.3-1.2,0.5-1.8,0.5c-0.1,0.1-0.1,0.2-0.2,0.3c0.7,0,1.4,0.1,1.9,0.5c1.1-0.7,2.5-0.7,3.6,0c0.7-0.4,1.6-0.6,2.5-0.4
			c0.9,0.2,1.7,0.7,2.2,1.5c0.5,0.8,0.7,1.8,0.5,2.7c-0.2,0.9-0.8,1.7-1.6,2.2c-0.9,0.6-2.1,0.6-3,0.3c-0.2-0.1-0.4-0.2-0.6-0.3
			c-0.4,0.3-0.9,0.4-1.4,0.5c-0.4,0-0.8,0-1.1-0.1c-0.4-0.1-0.7-0.2-1-0.4c-0.5,0.3-1.2,0.5-1.8,0.5c-0.1,0.1-0.1,0.2-0.2,0.3
			c0.7,0,1.4,0.1,1.9,0.5c1.1-0.7,2.5-0.7,3.6,0c0.7-0.4,1.6-0.6,2.5-0.4c0.4,0.1,0.8,0.2,1.1,0.4c0.7-0.4,1.6-0.6,2.5-0.4
			c1.2,0.2,2.2,1.1,2.6,2.3c0.2,0.5,0.3,1.1,0.1,1.6c-0.1,0.7-0.4,1.4-0.9,1.9c-0.6,0.7-1.6,1.1-2.5,1c-0.5,0-1.1-0.1-1.6-0.4
			c-0.1,0-0.2-0.1-0.3-0.1c-0.3,0.1-0.6,0.3-0.9,0.3c-0.4,0.1-0.8,0.1-1.1,0.1c-0.5,0-1-0.2-1.4-0.4c-0.1-0.1-0.2,0-0.2,0
			c-0.5,0.3-1.1,0.4-1.6,0.4c-0.6,0-1.2-0.1-1.7-0.4c-0.1,0-0.1-0.1-0.2,0c-0.4,0.2-0.9,0.4-1.4,0.4c-0.4,0-0.7,0-1.1-0.1
			c-0.3-0.1-0.7-0.2-1-0.4c-0.1-0.1-0.2,0-0.3,0.1c-0.5,0.3-1.1,0.4-1.6,0.4c-1.5,0-2.9-1-3.3-2.4c-0.1-0.3-0.1-0.7-0.2-1
			c-1-0.1-1.9-0.5-2.6-1.2c0.4,1,0.2,2.3-0.4,3.2c-0.6,0.9-1.8,1.5-2.9,1.5c-0.6,0-1.2-0.2-1.7-0.5c-0.4,0.3-0.9,0.4-1.5,0.5
			c-0.4,0-0.9,0-1.3-0.1c-0.9-0.2-1.6-0.8-2.1-1.6c-0.3-0.5-0.5-1.1-0.5-1.7c-0.7-0.1-1.3-0.3-1.9-0.6c-0.5,0.3-1.2,0.5-1.8,0.5
			c-0.1,1-0.5,1.9-1.2,2.6c-0.6,0.6-1.5,1-2.4,1c-0.6,0-1.2-0.2-1.7-0.4c-0.1,0-0.1,0-0.2,0c-0.4,0.2-0.8,0.4-1.3,0.4
			c-0.4,0-0.9,0-1.3-0.1c-1.4-0.4-2.5-1.7-2.5-3.1c-0.1,0.8-0.4,1.7-1,2.2c-0.4,0.5-1,0.8-1.7,0.9c-0.3,0.1-0.7,0.1-1,0.1
			c-0.5,0-1-0.2-1.4-0.4c-0.1-0.1-0.2,0-0.3,0c-0.5,0.3-1.1,0.4-1.6,0.4c-0.9,0-1.9-0.4-2.5-1c-0.6-0.6-1-1.5-1-2.4
			c-0.6-0.1-1.2-0.2-1.8-0.5c-1.1-0.6-1.9-1.8-1.8-3.1c-0.1-0.1-0.2-0.1-0.3-0.2c0,0.7-0.1,1.4-0.5,1.9c0.3,0.6,0.5,1.2,0.5,1.9
			c0,1.4-1,2.7-2.3,3.2c-0.5,0.2-1,0.2-1.5,0.2c-0.5,0-0.9-0.2-1.3-0.4c-0.1-0.1-0.2,0.1-0.4,0.1c-0.5,0.2-1,0.4-1.5,0.3
			c-0.7,0-1.4-0.2-1.9-0.6c-0.8-0.5-1.3-1.4-1.5-2.3c-0.1-0.8,0-1.6,0.4-2.2c0-0.1,0.1-0.1,0-0.2c-0.3-0.5-0.4-1-0.4-1.5
			c-0.1,0.9-0.5,1.9-1.3,2.4c-0.6,0.5-1.4,0.7-2.2,0.8c-0.1,0.9-0.4,1.8-1.1,2.5c-0.6,0.6-1.3,1-2.1,1.1c-0.5,0-0.9,0-1.4-0.1
			c-0.3-0.1-0.6-0.2-0.8-0.3c-0.1,0-0.3,0.1-0.4,0.2c-0.6,0.3-1.3,0.3-1.9,0.3c-0.4-0.1-0.8-0.2-1.2-0.4c-0.1-0.1-0.2,0-0.3,0.1
			c-0.6,0.4-1.4,0.4-2.1,0.3c-0.4-0.1-0.8-0.2-1.1-0.4c-0.1,0-0.1,0-0.2,0c-0.4,0.2-0.9,0.4-1.4,0.4c-0.4,0-0.8,0-1.1-0.1
			c-0.9-0.2-1.6-0.8-2.1-1.5c-0.3-0.5-0.5-1.2-0.5-1.8c-0.2-0.1-0.5-0.1-0.7-0.2c-0.9-0.2-1.7-0.8-2.3-1.5c-0.5,0.7-1.2,1.2-2.1,1.4
			c-0.3,0.1-0.5,0.1-0.8,0.1c-0.1,0.8-0.3,1.6-0.8,2.2c-0.5,0.7-1.3,1.2-2.1,1.3c-0.8,0.1-1.7,0-2.4-0.4c-0.5,0.3-1.2,0.5-1.8,0.5
			c-0.6,0-1.2-0.1-1.7-0.4c-0.1-0.1-0.3,0-0.4,0.1c-0.6,0.3-1.4,0.4-2.1,0.3c-0.4-0.1-0.8-0.2-1.2-0.4c-0.1,0-0.1,0-0.2,0
			c-1,0.6-2.4,0.6-3.4,0c-0.1-0.1-0.1,0-0.2,0c-0.4,0.2-0.9,0.4-1.3,0.4c-0.4,0-0.8,0-1.1-0.1C2.9,36,2,35.4,1.6,34.5
			c-0.4-0.7-0.5-1.5-0.4-2.2c0.1-0.8,0.5-1.5,1.1-2c0.6-0.6,1.5-0.9,2.3-0.9c0.6,0,1.2,0.2,1.8,0.5c1.1-0.7,2.5-0.7,3.6,0
			c1.1-0.7,2.5-0.7,3.6,0c0.5-0.3,1.2-0.5,1.8-0.5c0-0.1,0.1-0.2,0.1-0.3c-0.7,0-1.4-0.1-2-0.5c-1.1,0.7-2.5,0.7-3.6,0
			c-1.1,0.7-2.6,0.7-3.6,0c-1-0.6-1.6-1.7-1.6-2.9c-1-0.1-1.9-0.5-2.6-1.1c-0.5-0.5-0.9-1.3-1-2c0-0.1,0-0.2,0-0.3
			c0-0.6,0.1-1.1,0.4-1.6c0.6-1.2,1.8-2,3.1-1.9c0.1-0.8,0.3-1.6,0.8-2.2c0.5-0.7,1.3-1.2,2.1-1.3C8.4,15,9.3,15.1,10,15.6z
			 M7.8,16.9c-0.4,0.1-0.7,0.4-0.9,0.7c-0.3,0.5-0.3,1.3,0,1.8C7.2,20,8,20.3,8.7,20.1c0.8-0.2,1.3-1.2,1.1-2
			C9.6,17.3,8.6,16.7,7.8,16.9z M11.6,16.9C10.7,17,10,18,10.2,19c0.2,0.8,1.2,1.4,2,1.2c0.8-0.2,1.4-1.1,1.2-1.9
			C13.3,17.4,12.4,16.8,11.6,16.9z M15.2,16.9c-0.5,0.1-1,0.4-1.3,0.9c-0.2,0.4-0.2,1,0,1.4c0.3,0.7,1.2,1.2,2,0.9
			c0.8-0.2,1.4-1.1,1.1-2C16.8,17.4,16,16.8,15.2,16.9z M18.8,16.9c-0.9,0.1-1.6,1.1-1.4,2c0.2,0.8,1.1,1.5,1.9,1.3
			c0.9-0.1,1.5-1.1,1.3-1.9C20.5,17.4,19.6,16.8,18.8,16.9z M22.4,16.9c-0.2,0-0.5,0.1-0.7,0.2c-0.6,0.4-0.9,1.2-0.7,1.9
			c0.2,0.8,1.1,1.3,1.9,1.1c0.5-0.1,0.9-0.4,1.2-0.9c0.2-0.5,0.2-1,0-1.5C23.8,17.2,23.1,16.8,22.4,16.9z M31.7,16.9
			c-0.9,0.1-1.6,1-1.4,1.9c0.1,0.9,1,1.5,1.9,1.3c0.8-0.1,1.4-0.9,1.4-1.7C33.5,17.5,32.6,16.7,31.7,16.9z M35.1,16.9
			c-0.7,0.2-1.2,1-1.2,1.7c0,0.7,0.6,1.3,1.2,1.5c0.7,0.2,1.5-0.2,1.8-0.8c0.3-0.5,0.3-1.2,0-1.7C36.5,17,35.7,16.7,35.1,16.9z
			 M38.9,16.9c-0.4,0.1-0.8,0.3-1.1,0.6c-0.4,0.5-0.5,1.1-0.3,1.7c0.3,0.7,1.1,1.2,1.8,1c0.7-0.1,1.2-0.7,1.3-1.4
			c0.1-0.5-0.1-1-0.5-1.4C39.9,17,39.4,16.8,38.9,16.9z M42.5,16.9c-0.8,0.1-1.5,0.9-1.4,1.8c0,0.9,1,1.6,1.9,1.5
			c0.6-0.1,1.1-0.4,1.3-1c0.2-0.4,0.2-0.9,0-1.3C44,17.2,43.2,16.8,42.5,16.9z M53,16.9c-0.2,0-0.4,0.1-0.6,0.2
			c-0.7,0.4-1,1.3-0.7,2.1c0.3,0.7,1.1,1.1,1.8,1c0.8-0.1,1.5-1,1.3-1.9C54.7,17.4,53.9,16.8,53,16.9z M56.5,16.9
			c-0.4,0.1-0.8,0.3-1.1,0.6c-0.3,0.4-0.4,1.1-0.2,1.6c0.3,0.7,1.1,1.2,1.9,1c0.9-0.2,1.5-1.1,1.3-2C58.2,17.3,57.4,16.8,56.5,16.9z
			 M67.3,16.9C66.7,17,66.2,17.4,66,18c-0.1,0.4-0.1,0.9,0.1,1.3c0.3,0.7,1.2,1.1,1.9,0.8c0.8-0.2,1.4-1.2,1.1-2
			C69,17.3,68.1,16.8,67.3,16.9z M71,16.9c-0.2,0-0.4,0.1-0.6,0.2c-0.7,0.4-1,1.2-0.7,1.9c0.2,0.8,1.1,1.3,1.9,1.1
			c0.4-0.1,0.8-0.4,1.1-0.8c0.3-0.4,0.3-1,0.1-1.5C72.4,17.2,71.7,16.8,71,16.9z M85,16.9c-0.5,0.1-1,0.4-1.2,0.9
			c-0.2,0.4-0.2,0.8-0.1,1.2c0.2,0.7,1,1.3,1.8,1.2c0.5-0.1,1-0.4,1.3-0.9c0.2-0.4,0.3-1,0.1-1.5C86.4,17.2,85.7,16.8,85,16.9z
			 M88.6,16.9c-0.5,0.1-0.9,0.3-1.2,0.7c-0.3,0.5-0.4,1.2-0.1,1.7c0.4,0.6,1.2,1,1.9,0.8c0.8-0.2,1.3-1.1,1.2-1.9
			C90.3,17.4,89.5,16.8,88.6,16.9z M105.2,16.9c-0.3,0-0.6,0.2-0.8,0.3c-0.6,0.4-0.8,1.3-0.5,1.9c0.3,0.7,1.1,1.2,1.9,1
			c0.9-0.2,1.5-1.1,1.3-2C106.8,17.4,106,16.8,105.2,16.9z M108.7,16.9c-0.2,0-0.4,0.1-0.6,0.2c-0.7,0.3-1.1,1.2-0.8,1.9
			c0.2,0.8,1.1,1.4,1.9,1.2c0.9-0.2,1.5-1.1,1.3-1.9C110.4,17.4,109.6,16.8,108.7,16.9z M112.3,16.9c-0.5,0.1-0.9,0.4-1.2,0.8
			c-0.3,0.4-0.3,1-0.1,1.5c0.3,0.7,1.1,1.1,1.8,0.9c0.7-0.1,1.2-0.7,1.3-1.4c0.1-0.7-0.2-1.4-0.8-1.7
			C113,16.9,112.6,16.8,112.3,16.9z M115.9,16.9c-0.7,0.1-1.2,0.7-1.4,1.3c-0.1,0.5,0.1,1.1,0.5,1.5c0.3,0.3,0.8,0.5,1.2,0.5
			c0.2,0,0.4-0.1,0.5-0.1c0.7-0.3,1.1-1.1,1-1.8C117.6,17.4,116.7,16.7,115.9,16.9z M118.3,17.8c-0.3,0.6-0.2,1.4,0.3,1.9
			c0.3,0.3,0.7,0.5,1.1,0.5c0.2,0,0.4,0,0.7-0.1c0.6-0.2,1.1-0.9,1.1-1.6c0-0.8-0.6-1.5-1.3-1.6C119.3,16.8,118.6,17.1,118.3,17.8z
			 M4.5,20.5c-0.5,0-1,0.3-1.3,0.7c-0.3,0.4-0.4,1-0.2,1.4c0.2,0.8,1.1,1.3,1.9,1.1c0.8-0.1,1.4-0.9,1.3-1.7
			C6.2,21.2,5.4,20.4,4.5,20.5z M8.1,20.5c-0.3,0-0.5,0.1-0.8,0.3c-0.6,0.4-0.9,1.2-0.7,1.9c0.2,0.8,1.1,1.3,1.9,1.1
			c0.8-0.2,1.4-1,1.3-1.8C9.8,21.1,9,20.4,8.1,20.5z M28.1,20.5c-0.9,0.1-1.5,1-1.4,1.9c0.1,0.3,0.2,0.7,0.5,0.9
			c0.4,0.5,1.1,0.6,1.7,0.4c0.8-0.3,1.3-1.1,1.1-1.9C29.8,20.9,28.9,20.3,28.1,20.5z M31.8,20.5c-0.2,0-0.4,0.1-0.5,0.1
			c-0.7,0.3-1.1,1.1-1,1.8c0.1,0.7,0.8,1.3,1.5,1.4c0.6,0.1,1.2-0.2,1.5-0.7c0.3-0.4,0.3-1,0.2-1.5C33.2,20.9,32.5,20.4,31.8,20.5z
			 M42.6,20.5c-0.5,0-1.1,0.4-1.3,0.8c-0.2,0.4-0.3,1-0.1,1.5c0.3,0.7,1.2,1.2,1.9,0.9c0.8-0.2,1.4-1.1,1.2-2
			C44.1,21,43.4,20.4,42.6,20.5z M46.2,20.5c-0.5,0-1,0.4-1.3,0.8c-0.3,0.4-0.3,1-0.1,1.5c0.2,0.4,0.5,0.7,0.9,0.9
			c0.7,0.3,1.5,0,1.9-0.5c0.5-0.6,0.5-1.5,0-2.1C47.2,20.7,46.7,20.4,46.2,20.5z M53.1,20.5c-0.6,0-1.2,0.4-1.4,1
			c-0.3,0.7-0.1,1.5,0.4,1.9c0.5,0.5,1.3,0.5,1.9,0.1c0.5-0.3,0.8-1,0.8-1.6C54.7,21.1,53.9,20.4,53.1,20.5z M56.7,20.5
			c-0.2,0-0.5,0.1-0.7,0.2c-0.7,0.3-1.1,1.2-0.8,1.9c0.2,0.8,1.2,1.4,2,1.1c0.8-0.2,1.4-1.1,1.2-1.9C58.2,21,57.5,20.4,56.7,20.5z
			 M60.3,20.5c-0.5,0-1,0.3-1.3,0.7c-0.3,0.5-0.4,1.1-0.1,1.6c0.3,0.6,1,1.1,1.7,1c0.7-0.1,1.3-0.6,1.4-1.3c0.1-0.6-0.1-1.2-0.5-1.5
			C61.1,20.6,60.7,20.4,60.3,20.5z M67.5,20.5c-0.8,0-1.5,0.8-1.5,1.6c0,0.6,0.4,1.2,0.9,1.5c0.4,0.2,0.9,0.2,1.4,0
			c0.6-0.3,1-0.9,1-1.6C69.2,21.2,68.3,20.4,67.5,20.5z M71,20.5c-0.5,0-0.9,0.3-1.2,0.7c-0.3,0.5-0.4,1.1-0.2,1.6
			c0.3,0.7,1.1,1.1,1.8,1c0.8-0.1,1.5-0.9,1.4-1.8C72.7,21.1,71.9,20.4,71,20.5z M81.3,20.5c-0.8,0.2-1.4,1-1.3,1.8
			c0.1,0.5,0.4,1,0.9,1.2c0.6,0.3,1.3,0.2,1.8-0.2c0.4-0.3,0.6-0.9,0.6-1.4c0-0.2-0.1-0.4-0.2-0.6C82.8,20.7,82,20.3,81.3,20.5z
			 M92.3,20.5c-0.3,0-0.5,0.1-0.7,0.2c-0.6,0.4-0.9,1.2-0.7,1.9c0.2,0.8,1.1,1.3,1.9,1.1c0.9-0.2,1.5-1.1,1.3-1.9
			C93.9,21,93.1,20.4,92.3,20.5z M101.7,20.5c-0.2,0-0.4,0.1-0.6,0.2c-0.7,0.3-1.1,1.3-0.8,2c0.3,0.8,1.2,1.2,1.9,1
			c0.8-0.2,1.4-1,1.2-1.8C103.3,21.1,102.5,20.4,101.7,20.5z M105.2,20.5c-0.2,0-0.5,0.1-0.7,0.2c-0.7,0.3-1.1,1.2-0.8,1.9
			c0.2,0.8,1.1,1.3,1.9,1.1c0.8-0.2,1.4-1,1.3-1.8C106.9,21.1,106.1,20.4,105.2,20.5z M23.3,21.9c-0.8,0.2-1.7,0-2.4-0.4
			c-0.1-0.1-0.2,0-0.2,0c-0.6,0.3-1.2,0.5-1.9,0.4c-0.5,0-1.1-0.2-1.5-0.5c-1.1,0.7-2.5,0.7-3.6,0c-0.5,0.3-1.2,0.5-1.8,0.5
			c-0.1,0.1-0.1,0.2-0.2,0.3c0.5,0,1,0.1,1.4,0.2c0.2,0.1,0.3,0.2,0.5,0.2c0.2-0.1,0.4-0.2,0.7-0.3c0.9-0.3,2-0.2,2.8,0.2
			c0.1,0,0.1,0.1,0.2,0c0.5-0.3,1.1-0.5,1.7-0.5c0.8,0,1.6,0.3,2.3,0.8c0.8,0.6,1.2,1.6,1.3,2.6c1,0.1,1.9,0.5,2.6,1.2
			c-0.3-1-0.2-2.1,0.3-3c-0.6-0.9-0.7-2-0.3-3C24.6,21.4,24,21.8,23.3,21.9z M35.5,22c-0.1,0.7-0.3,1.4-0.7,1.9
			c0.7,1.1,0.7,2.5,0,3.6c0.3,0.5,0.5,1.2,0.5,1.8c0.7,0.2,1.4,0.3,1.9,0.7c0.5-0.3,1.2-0.5,1.8-0.5c0.1-0.6,0.3-1.3,0.6-1.8
			c0.1-0.1,0-0.2-0.1-0.3c-0.6-1-0.5-2.4,0.1-3.4c-0.3-0.5-0.5-1.2-0.5-1.8c-0.7-0.1-1.4-0.3-1.9-0.7C36.8,21.8,36.2,22,35.5,22z
			 M85.2,22c-0.1,0.7-0.3,1.4-0.7,1.9c0.3,0.5,0.5,1.2,0.5,1.8c0.7,0.1,1.4,0.3,1.9,0.7c0.5-0.3,1.2-0.5,1.8-0.5
			c0.1-0.7,0.3-1.4,0.7-2c-0.3-0.5-0.5-1.2-0.5-1.8c-0.7-0.1-1.4-0.3-2-0.7C86.5,21.8,85.9,22,85.2,22z M49.3,23.9
			c0.3,0.5,0.4,1,0.5,1.5c0-0.5,0.2-1.1,0.5-1.5c-0.3-0.5-0.5-1-0.5-1.5C49.7,22.9,49.5,23.5,49.3,23.9z M7.9,24.1
			C7,24.3,6.4,25.2,6.6,26c0.1,0.8,0.9,1.4,1.7,1.3c1-0.1,1.7-1.1,1.5-2C9.6,24.5,8.7,23.9,7.9,24.1z M10.2,25.3
			c-0.3,0.8,0.3,1.8,1.1,2c0.5,0.2,1.2,0.1,1.6-0.3c0.3-0.3,0.5-0.6,0.6-1c0.1-0.8-0.5-1.7-1.3-1.8C11.3,23.9,10.5,24.5,10.2,25.3z
			 M15.1,24.1c-0.6,0.1-1.1,0.6-1.3,1.2c-0.2,0.6,0,1.4,0.6,1.7c0.5,0.4,1.2,0.5,1.7,0.2c0.7-0.4,1.1-1.3,0.8-2
			C16.7,24.4,15.9,23.9,15.1,24.1z M18.9,24.1c-0.8,0.1-1.5,0.8-1.5,1.7c0,0.9,0.8,1.7,1.7,1.6c0.8,0,1.5-0.6,1.6-1.4
			c0.1-0.6-0.2-1.2-0.7-1.6C19.7,24.2,19.3,24,18.9,24.1z M26.7,25.9c0.1,0.3,0.2,0.7,0.4,0.9c0.4,0.5,1.1,0.6,1.7,0.4
			c0.8-0.3,1.3-1.1,1.1-1.9c-0.2-0.8-1-1.4-1.9-1.3C27.2,24.2,26.6,25.1,26.7,25.9z M31.6,24.1c-0.6,0.1-1.2,0.7-1.3,1.3
			c-0.1,0.5,0.1,1,0.4,1.4c0.5,0.6,1.3,0.8,2,0.5c0.7-0.3,1.1-1.2,0.9-2C33.3,24.4,32.4,23.9,31.6,24.1z M42.4,24.1
			c-0.5,0.1-0.9,0.4-1.1,0.9c-0.3,0.5-0.2,1.2,0.1,1.7c0.4,0.7,1.4,0.9,2.1,0.6c0.7-0.3,1.1-1.2,0.9-2C44,24.4,43.2,23.9,42.4,24.1z
			 M46.2,24.1c-0.6,0.1-1.2,0.5-1.4,1.1c-0.2,0.5-0.1,1,0.1,1.4c0.4,0.6,1.2,1,1.9,0.7c0.8-0.2,1.3-1.1,1.1-1.9
			C47.8,24.6,47,24,46.2,24.1z M52.8,24.1c-0.7,0.1-1.3,0.8-1.3,1.6c0,0.7,0.4,1.3,1,1.5c0.7,0.3,1.6,0.1,2-0.5
			c0.3-0.5,0.4-1.1,0.2-1.6C54.4,24.4,53.6,23.9,52.8,24.1z M56.4,24.1c-0.6,0.1-1.1,0.6-1.2,1.3c-0.1,0.5,0,1,0.4,1.4
			c0.5,0.6,1.3,0.7,2,0.4c0.7-0.3,1.1-1.2,0.8-1.9C58.1,24.4,57.2,23.9,56.4,24.1z M60.1,24.1c-0.3,0.1-0.6,0.2-0.8,0.4
			c-0.5,0.5-0.7,1.4-0.3,2.1c0.4,0.7,1.4,1,2.1,0.6c0.7-0.3,1.1-1.2,0.9-2C61.7,24.4,60.9,23.9,60.1,24.1z M63.6,24.1
			c-0.6,0.1-1.1,0.6-1.2,1.1c-0.2,0.5-0.1,1,0.2,1.4c0.4,0.6,1.2,0.8,1.8,0.6c0.8-0.3,1.4-1.2,1.1-2.1
			C65.3,24.4,64.4,23.9,63.6,24.1z M67.2,24.1c-0.7,0.1-1.3,0.8-1.3,1.5c-0.1,0.7,0.4,1.4,1,1.7c0.7,0.3,1.5,0.1,1.9-0.5
			c0.4-0.4,0.5-1.1,0.2-1.6C68.8,24.4,68,23.9,67.2,24.1z M71,24.1c-0.5,0-0.9,0.3-1.2,0.7c-0.3,0.4-0.4,0.9-0.2,1.4
			c0.2,0.7,0.8,1.2,1.5,1.2c0.5,0,1.1-0.3,1.4-0.7c0.3-0.4,0.4-1,0.2-1.5C72.5,24.5,71.7,24,71,24.1z M81.3,24.1
			c-0.6,0.1-1.2,0.6-1.3,1.3c-0.1,0.5,0,1,0.3,1.3c0.4,0.6,1.2,0.8,1.8,0.6c0.8-0.2,1.3-1.1,1.1-1.9C83.1,24.5,82.2,23.9,81.3,24.1z
			 M92.1,24.1c-0.9,0.2-1.5,1.1-1.3,2c0.2,0.9,1.1,1.5,1.9,1.3c0.9-0.2,1.5-1.1,1.3-2C93.8,24.5,92.9,23.9,92.1,24.1z M101.4,24.1
			c-0.6,0.1-1.1,0.6-1.3,1.2c-0.2,0.6,0.1,1.3,0.6,1.7c0.5,0.4,1.3,0.5,1.8,0.1c0.6-0.4,1-1.1,0.8-1.8
			C103.1,24.5,102.3,23.9,101.4,24.1z M105,24.1c-0.7,0.1-1.2,0.7-1.3,1.4c-0.1,0.7,0.4,1.5,1.1,1.8c0.6,0.2,1.4,0,1.8-0.5
			c0.4-0.5,0.5-1.2,0.2-1.7C106.5,24.3,105.7,23.9,105,24.1z M108.6,24.1c-0.6,0.1-1.2,0.6-1.3,1.3c-0.1,0.4,0,0.9,0.3,1.3
			c0.4,0.6,1.2,0.9,1.8,0.7c0.8-0.2,1.3-1.1,1.1-1.9C110.4,24.5,109.5,23.9,108.6,24.1z M111.6,24.4c-0.4,0.3-0.7,0.8-0.7,1.3
			c0,0.3,0.1,0.7,0.3,0.9c0.4,0.5,1.1,0.8,1.7,0.7c0.6-0.1,1.1-0.7,1.2-1.3c0.2-0.6-0.1-1.3-0.7-1.7C112.9,24,112.1,24,111.6,24.4z
			 M115.8,24.1c-0.7,0.1-1.2,0.7-1.3,1.4c-0.1,0.8,0.5,1.6,1.3,1.8c0.7,0.2,1.5-0.2,1.8-0.9c0.3-0.6,0.2-1.4-0.3-1.9
			C116.9,24.2,116.3,24,115.8,24.1z M49.8,26c-0.1,0.5-0.2,1.1-0.5,1.5c0.3,0.5,0.4,1,0.5,1.6c0-0.5,0.2-1.1,0.5-1.6
			C50,27,49.8,26.5,49.8,26z M18.7,27.7c-0.9,0.1-1.5,1.1-1.3,1.9c0.2,0.9,1.1,1.5,1.9,1.3c0.7-0.1,1.3-0.8,1.3-1.5
			c0.1-0.6-0.3-1.3-0.9-1.6C19.5,27.7,19.1,27.6,18.7,27.7z M22.4,27.7c-0.8,0.1-1.4,0.8-1.4,1.6c0,0.8,0.6,1.5,1.4,1.6
			c0.6,0.1,1.3-0.2,1.6-0.7c0.3-0.4,0.4-1,0.2-1.5C23.9,28,23.1,27.6,22.4,27.7z M27.3,28c-0.3,0.3-0.5,0.7-0.6,1.1
			c-0.1,0.8,0.4,1.5,1.1,1.8c0.6,0.2,1.2,0.1,1.6-0.3c0.4-0.4,0.6-1,0.5-1.5c-0.1-0.5-0.4-1-0.9-1.2C28.5,27.6,27.8,27.6,27.3,28z
			 M31.6,27.7c-0.8,0.2-1.5,1.1-1.3,1.9c0.2,0.9,1.1,1.5,2,1.3c0.7-0.1,1.3-0.9,1.3-1.6c0-0.6-0.3-1.1-0.8-1.4
			C32.4,27.7,32,27.6,31.6,27.7z M42.5,27.7c-0.8,0.1-1.4,0.8-1.4,1.6c0,0.7,0.4,1.3,1,1.6c0.7,0.3,1.5,0.1,1.9-0.5
			c0.5-0.6,0.5-1.5,0-2.1C43.6,27.8,43,27.6,42.5,27.7z M46,27.7c-0.6,0.1-1,0.5-1.2,1c-0.3,0.6-0.1,1.4,0.5,1.8
			c0.5,0.4,1.2,0.5,1.8,0.2c0.7-0.3,1.1-1.2,0.9-2C47.7,28.1,46.8,27.5,46,27.7z M52.9,27.7c-0.4,0.1-0.8,0.3-1.1,0.7
			c-0.3,0.4-0.4,1-0.2,1.5c0.3,0.7,1.1,1.2,1.9,1c0.8-0.2,1.4-1,1.3-1.7c0-0.5-0.4-1.1-0.9-1.3C53.6,27.7,53.3,27.6,52.9,27.7z
			 M56.5,27.7c-0.9,0.2-1.5,1.1-1.3,1.9c0.1,0.9,1.1,1.5,2,1.3c0.8-0.2,1.4-1,1.3-1.8c-0.1-0.6-0.5-1.1-1-1.3
			C57.1,27.7,56.8,27.6,56.5,27.7z M63.7,27.7c-0.2,0-0.4,0.1-0.6,0.2c-0.6,0.4-0.9,1.2-0.7,1.9c0.2,0.8,1.1,1.4,2,1.1
			c0.8-0.2,1.5-1.1,1.2-2C65.4,28.1,64.5,27.5,63.7,27.7z M67.3,27.7c-0.8,0.1-1.5,0.9-1.4,1.7c0,0.8,0.8,1.5,1.6,1.5
			c0.9,0,1.6-0.7,1.7-1.5c0.1-0.6-0.3-1.2-0.8-1.5C68.1,27.7,67.7,27.6,67.3,27.7z M70.9,27.7c-0.6,0.1-1,0.5-1.2,1
			c-0.3,0.7,0,1.5,0.5,1.9c0.4,0.3,0.9,0.4,1.4,0.3c0.4-0.1,0.8-0.4,1-0.7c0.3-0.5,0.3-1.1,0.1-1.5C72.4,28,71.6,27.6,70.9,27.7z
			 M77.8,27.7c-0.8,0.1-1.5,0.9-1.4,1.7c0,0.9,0.8,1.6,1.7,1.5c0.9,0,1.7-0.8,1.6-1.7C79.7,28.3,78.7,27.5,77.8,27.7z M81.4,27.7
			c-0.5,0.1-1,0.4-1.2,0.9c-0.3,0.5-0.2,1.2,0.1,1.7c0.4,0.6,1.2,0.8,1.8,0.6c0.7-0.2,1.2-0.9,1.1-1.7c-0.1-0.5-0.3-1-0.8-1.3
			C82.2,27.7,81.8,27.6,81.4,27.7z M88.5,27.7c-0.2,0-0.4,0.1-0.5,0.2c-0.6,0.3-1,1.1-0.8,1.9c0.2,0.8,1,1.3,1.8,1.2
			c0.6-0.1,1.2-0.5,1.3-1.1c0.2-0.6,0-1.4-0.5-1.8C89.5,27.7,89,27.6,88.5,27.7z M92.1,27.7c-0.9,0.1-1.5,1.1-1.3,2
			c0.2,0.8,1.1,1.4,1.9,1.3c0.7-0.1,1.3-0.8,1.4-1.5c0-0.6-0.3-1.3-0.9-1.6C92.9,27.7,92.5,27.6,92.1,27.7z M95.8,27.7
			c-0.4,0.1-0.9,0.3-1.1,0.7c-0.3,0.4-0.4,0.9-0.2,1.3c0.1,0.5,0.5,0.9,0.9,1.1c0.7,0.3,1.6,0.1,2-0.6c0.3-0.4,0.4-1,0.2-1.5
			C97.3,28,96.5,27.6,95.8,27.7z M101.4,27.7c-0.9,0.1-1.5,1.1-1.3,1.9c0.2,0.9,1.1,1.5,2,1.3c0.8-0.1,1.4-0.9,1.3-1.7
			c0-0.6-0.4-1.1-0.9-1.4C102.2,27.7,101.8,27.6,101.4,27.7z M105.1,27.7c-0.6,0.1-1.1,0.5-1.3,1.1c-0.2,0.6,0,1.3,0.4,1.7
			c0.4,0.4,1.2,0.6,1.7,0.4c0.7-0.3,1.2-1.1,1-1.8C106.8,28.2,105.9,27.5,105.1,27.7z M84.7,27.7c-0.6,0.2-1,0.7-1.1,1.2
			c-0.1,0.5,0,1,0.3,1.4c0.5,0.6,1.4,0.8,2,0.4c0.7-0.4,1.1-1.3,0.8-2.1C86.5,27.9,85.5,27.5,84.7,27.7z M74.1,31.1
			c0.3,0.5,0.4,1,0.5,1.6c0-0.6,0.2-1.1,0.5-1.6c-0.3-0.5-0.5-1-0.5-1.6C74.6,30.1,74.4,30.6,74.1,31.1z M31.6,31.3
			c-0.5,0.1-0.9,0.4-1.1,0.8c-0.2,0.4-0.3,0.9-0.2,1.3c0.2,0.7,0.9,1.2,1.6,1.2c0.7,0,1.3-0.4,1.5-1c0.2-0.6,0.1-1.3-0.3-1.7
			C32.8,31.4,32.2,31.2,31.6,31.3z M35.2,31.3c-0.8,0.1-1.4,0.8-1.3,1.6c0,0.9,0.8,1.7,1.7,1.6c0.9,0,1.7-1,1.6-1.9
			C37,31.8,36.1,31.1,35.2,31.3z M52.9,31.3c-0.8,0.1-1.4,0.8-1.4,1.6c0,0.8,0.7,1.6,1.5,1.6c0.6,0.1,1.2-0.3,1.5-0.8
			c0.3-0.4,0.3-1,0.1-1.5C54.4,31.6,53.6,31.1,52.9,31.3z M56.5,31.3c-0.9,0.1-1.5,1.1-1.3,1.9c0.1,0.8,0.9,1.4,1.7,1.3
			c0.7,0,1.4-0.6,1.5-1.3c0.1-0.5-0.1-1.1-0.5-1.5C57.5,31.4,57,31.2,56.5,31.3z M70.9,31.3c-0.6,0.1-1.1,0.5-1.3,1.1
			c-0.2,0.7,0,1.4,0.6,1.8c0.5,0.4,1.2,0.4,1.8,0.1c0.7-0.4,1-1.3,0.7-2C72.5,31.6,71.6,31.1,70.9,31.3z M95.7,31.3
			c-0.7,0.1-1.3,0.8-1.3,1.6c0,0.6,0.3,1.2,0.9,1.5c0.7,0.4,1.6,0.2,2.1-0.5c0.5-0.6,0.4-1.5-0.1-2.1C96.9,31.4,96.2,31.2,95.7,31.3
			z M111.2,32c-0.2,0.3-0.3,0.6-0.3,0.9c0,0.3,0.1,0.6,0.2,0.8c0.3,0.6,1,0.9,1.6,0.8c0.8-0.1,1.4-0.7,1.5-1.5
			c0.1-0.9-0.6-1.7-1.5-1.8C112.1,31.2,111.5,31.5,111.2,32z M4.3,31.3c-0.4,0.1-0.9,0.4-1.1,0.8c-0.3,0.4-0.3,1-0.1,1.4
			c0.2,0.6,0.9,1.1,1.6,1.1c0.7,0,1.3-0.5,1.5-1.2c0.2-0.6,0-1.2-0.5-1.7C5.4,31.3,4.8,31.2,4.3,31.3z M7.8,31.3
			C7,31.5,6.5,32.3,6.6,33c0,0.6,0.4,1.2,1,1.4c0.3,0.1,0.6,0.2,0.9,0.1c0.6-0.1,1.1-0.5,1.3-1.1c0.2-0.7-0.1-1.5-0.7-1.9
			C8.7,31.3,8.2,31.2,7.8,31.3z M11.5,31.3c-0.6,0.1-1.2,0.6-1.3,1.3C10,33.2,10.4,34,11,34.3c0.5,0.3,1,0.3,1.5,0
			c0.7-0.3,1.1-1.2,0.9-2C13.2,31.7,12.3,31.1,11.5,31.3z M15.1,31.3c-0.6,0.1-1.1,0.6-1.3,1.1c-0.2,0.6,0,1.4,0.6,1.8
			c0.5,0.4,1.2,0.5,1.8,0.2c0.7-0.3,1-1.2,0.8-1.9C16.8,31.7,15.9,31.1,15.1,31.3z M18.7,31.3c-0.9,0.2-1.5,1.1-1.3,1.9
			c0.1,0.8,0.9,1.4,1.6,1.3c0.6,0,1.1-0.3,1.4-0.8c0.3-0.5,0.3-1.1,0.1-1.6C20.2,31.5,19.4,31.1,18.7,31.3z M38.8,31.3
			c-0.2,0-0.4,0.1-0.6,0.3c-0.6,0.4-0.9,1.3-0.6,2c0.3,0.8,1.2,1.2,2,1c0.8-0.2,1.4-1.2,1.2-2C40.5,31.7,39.6,31.1,38.8,31.3z
			 M42.4,31.3c-0.7,0.1-1.3,0.9-1.3,1.6c0,0.8,0.7,1.6,1.5,1.6c0.6,0,1.2-0.2,1.5-0.7c0.3-0.5,0.4-1.1,0.1-1.6
			C43.9,31.5,43.1,31.1,42.4,31.3z M67.3,31.3c-0.5,0.1-1,0.5-1.2,1c-0.3,0.7-0.1,1.6,0.6,2c0.6,0.4,1.5,0.4,2.1-0.1
			c0.5-0.4,0.7-1.2,0.4-1.8C68.9,31.6,68,31.1,67.3,31.3z M77.7,31.3c-0.8,0.2-1.4,1-1.3,1.8c0,0.6,0.5,1.2,1.1,1.4
			c0.7,0.2,1.5,0,1.9-0.6c0.3-0.5,0.4-1.1,0.1-1.7C79.2,31.5,78.4,31.1,77.7,31.3z M81.3,31.3c-0.6,0.1-1.1,0.6-1.3,1.2
			c-0.2,0.7,0.2,1.5,0.8,1.8c0.5,0.3,1.2,0.3,1.7,0c0.6-0.4,0.9-1.1,0.7-1.8C83.1,31.7,82.1,31.1,81.3,31.3z M92.1,31.3
			c-0.5,0.1-1,0.5-1.2,1c-0.3,0.7,0,1.5,0.6,1.9c0.5,0.3,1.1,0.4,1.6,0.1c0.7-0.3,1.1-1.2,0.9-1.9C93.8,31.7,92.9,31.1,92.1,31.3z
			 M105,31.3c-0.8,0.1-1.4,0.9-1.4,1.8c0.1,0.8,0.9,1.6,1.7,1.5c0.9,0,1.7-0.9,1.6-1.8C106.9,31.9,106,31.1,105,31.3z M108.6,31.3
			c-0.9,0.2-1.6,1.2-1.3,2.1c0.2,0.8,1.1,1.4,2,1.2c0.8-0.2,1.4-1.1,1.2-1.9C110.4,31.7,109.5,31.1,108.6,31.3z M115.6,31.3
			c-0.6,0.2-1.1,0.7-1.1,1.4c-0.1,0.6,0.2,1.2,0.7,1.6c0.5,0.4,1.2,0.4,1.8,0.1c0.7-0.4,1-1.4,0.6-2.2
			C117.2,31.5,116.4,31.1,115.6,31.3z M119.4,31.3c-0.6,0.1-1.2,0.6-1.3,1.2c-0.2,0.6,0.1,1.4,0.7,1.7c0.5,0.4,1.3,0.4,1.8,0
			c0.6-0.4,0.9-1.2,0.6-1.9C121,31.6,120.2,31.1,119.4,31.3z"/>
	</g>
</g>
</svg>
