<?xml version="1.0" encoding="utf-8"?>
<!-- Generator: Adobe Illustrator 21.1.0, SVG Export Plug-In . SVG Version: 6.00 Build 0)  -->
<svg version="1.1" id="Layer_1" xmlns="http://www.w3.org/2000/svg" xmlns:xlink="http://www.w3.org/1999/xlink" x="0px" y="0px"
	 viewBox="0 0 119.7 51.4" style="enable-background:new 0 0 119.7 51.4;" xml:space="preserve">
<style type="text/css">
	.st0{fill:#FFFFFF;}
	.st1{fill:#00937F;}
	.st2{fill:#7C7C81;}
	.st3{fill:#B3CB04;}
	.st4{fill:#1E6679;}
	.st5{fill:#60AE42;}
	.st6{fill:#0046AD;}
	.st7{fill-rule:evenodd;clip-rule:evenodd;fill:#FFFFFF;}
	.st8{fill-rule:evenodd;clip-rule:evenodd;}
	.st9{fill:none;stroke:#FFFFFF;stroke-width:0.685;stroke-miterlimit:1;stroke-dasharray:0.685,0.685;}
	.st10{fill:none;stroke:#FFFFFF;stroke-width:0.429;stroke-miterlimit:1;stroke-dasharray:0.309,0.524;}
	.st11{fill:none;stroke:#000000;stroke-width:0.913;stroke-linecap:round;stroke-miterlimit:6;stroke-dasharray:0.913,0.913;}
</style>
<g>
	<path class="st0" d="M18.5,11.7l2.8,7.7h-5.6L18.5,11.7z M17.4,2.4L5.5,35.1H10l4.2-11.6h8.7l4.2,11.6h4.5L19.7,2.4H17.4z"/>
	<path class="st0" d="M67.9,24.6H64v10.5h-4.2V2.4h9.3c2.6,0.4,4.8,1.4,6.7,3.2c2.2,2.2,3.2,4.8,3.2,7.8c0,3.1-1.1,5.7-3.2,7.9
		c-1.5,1.5-2.6,2.3-3.4,2.5l7.3,11.2h-5.1L67.9,24.6z M64,6.6v13.7h3.9c1.9,0,3.5-0.7,4.8-2c1.3-1.3,2-3,2-4.9c0-1.9-0.7-3.5-2-4.8
		c-1.3-1.3-3-2-4.8-2H64z"/>
	<path class="st0" d="M56.6,30.6c-3.4,3.2-7.2,4.8-11.5,4.8c-4.6,0-8.6-1.6-11.8-4.9c-3.3-3.3-4.9-7.2-4.9-11.8
		c0-4.6,1.6-8.5,4.9-11.8c3.3-3.3,7.2-4.9,11.8-4.9c4.3,0,8.4,1.8,12.3,5.3l-3.2,2.9c-2.9-2.6-6-3.9-9.1-3.9c-3.4,0-6.3,1.2-8.8,3.6
		c-2.4,2.4-3.6,5.4-3.6,8.8c0,3.4,1.2,6.4,3.6,8.8c2.4,2.4,5.4,3.6,8.8,3.6c2.9,0,5.4-0.8,7.3-2.3V19h4.2V30.6z"/>
	<polygon class="st0" points="4.4,47 5.7,37.9 5.9,37.9 9.6,45.4 13.3,37.9 13.5,37.9 14.8,47 13.9,47 13,40.5 9.7,47 9.5,47 
		6.2,40.4 5.3,47 	"/>
	<path class="st0" d="M22.2,44.8l0.7,0.4c-0.2,0.5-0.5,0.9-0.8,1.1c-0.3,0.3-0.7,0.5-1.1,0.7c-0.4,0.2-0.8,0.2-1.3,0.2
		c-1.1,0-2-0.4-2.6-1.1c-0.6-0.7-0.9-1.5-0.9-2.5c0-0.9,0.3-1.6,0.8-2.3c0.7-0.9,1.6-1.3,2.7-1.3c1.2,0,2.1,0.4,2.8,1.3
		c0.5,0.6,0.7,1.4,0.7,2.3H17c0,0.8,0.3,1.4,0.8,1.9c0.5,0.5,1.1,0.8,1.8,0.8c0.3,0,0.7-0.1,1-0.2c0.3-0.1,0.6-0.3,0.8-0.5
		C21.6,45.6,21.9,45.2,22.2,44.8 M22.2,43c-0.1-0.5-0.3-0.8-0.5-1.1c-0.2-0.3-0.5-0.5-0.9-0.7c-0.4-0.2-0.8-0.3-1.2-0.3
		c-0.7,0-1.2,0.2-1.7,0.6c-0.4,0.3-0.6,0.8-0.8,1.4H22.2z"/>
	<path class="st0" d="M24.4,40.3h0.9v1c0.3-0.4,0.5-0.7,0.8-0.9c0.3-0.2,0.6-0.3,0.9-0.3c0.2,0,0.5,0.1,0.8,0.2L27.4,41
		c-0.2-0.1-0.3-0.1-0.5-0.1c-0.3,0-0.6,0.1-0.8,0.4c-0.3,0.2-0.5,0.6-0.6,1.1c-0.1,0.4-0.2,1.2-0.2,2.3V47h-0.9V40.3z"/>
	<path class="st0" d="M35.1,41.7l-0.7,0.4c-0.6-0.8-1.4-1.2-2.5-1.2c-0.8,0-1.5,0.3-2.1,0.8c-0.5,0.5-0.8,1.2-0.8,1.9
		c0,0.5,0.1,1,0.4,1.4c0.3,0.4,0.6,0.8,1,1c0.4,0.2,0.9,0.4,1.5,0.4c1,0,1.8-0.4,2.4-1.2l0.7,0.5c-0.3,0.5-0.8,0.9-1.3,1.1
		c-0.5,0.3-1.2,0.4-1.9,0.4c-1.1,0-2-0.3-2.7-1c-0.7-0.7-1.1-1.5-1.1-2.5c0-0.7,0.2-1.3,0.5-1.8c0.3-0.6,0.8-1,1.4-1.3
		c0.6-0.3,1.2-0.5,1.9-0.5c0.4,0,0.9,0.1,1.3,0.2s0.8,0.3,1.1,0.5C34.7,41,34.9,41.3,35.1,41.7"/>
	<path class="st0" d="M36.8,37.6h0.9v3.8c0.4-0.5,0.7-0.8,1.2-1c0.4-0.2,0.9-0.3,1.4-0.3c0.5,0,1,0.1,1.4,0.4c0.4,0.3,0.7,0.6,0.9,1
		c0.2,0.4,0.3,1.1,0.3,2V47h-0.9v-3.2c0-0.8,0-1.3-0.1-1.6c-0.1-0.4-0.3-0.8-0.6-1c-0.3-0.2-0.7-0.3-1.1-0.3c-0.5,0-1,0.2-1.4,0.5
		c-0.4,0.3-0.7,0.8-0.8,1.3c-0.1,0.3-0.1,0.9-0.1,1.8V47h-0.9V37.6z"/>
	<path class="st0" d="M51.3,40.3V47h-0.9v-1.2c-0.4,0.4-0.8,0.8-1.2,1s-1,0.3-1.5,0.3c-1,0-1.8-0.3-2.5-1c-0.7-0.7-1-1.5-1-2.5
		c0-1,0.3-1.8,1-2.5c0.7-0.7,1.5-1,2.5-1c0.6,0,1.1,0.1,1.5,0.4c0.5,0.2,0.8,0.6,1.2,1.1v-1.2H51.3z M47.9,40.9
		c-0.5,0-0.9,0.1-1.3,0.4c-0.4,0.2-0.7,0.6-1,1c-0.2,0.4-0.4,0.9-0.4,1.4c0,0.5,0.1,0.9,0.4,1.4c0.2,0.4,0.6,0.8,1,1
		c0.4,0.2,0.9,0.4,1.3,0.4c0.5,0,0.9-0.1,1.4-0.4c0.4-0.2,0.8-0.6,1-1c0.2-0.4,0.3-0.9,0.3-1.4c0-0.8-0.3-1.4-0.8-2
		C49.2,41.2,48.6,40.9,47.9,40.9"/>
	<path class="st0" d="M53.3,40.3h0.9v1.2c0.4-0.5,0.7-0.8,1.2-1c0.4-0.2,0.9-0.3,1.4-0.3c0.5,0,1,0.1,1.4,0.4c0.4,0.3,0.7,0.6,0.9,1
		c0.2,0.4,0.3,1.1,0.3,2V47h-0.9v-3.2c0-0.8,0-1.3-0.1-1.6c-0.1-0.5-0.3-0.8-0.6-1c-0.3-0.2-0.7-0.3-1.1-0.3c-0.5,0-1,0.2-1.4,0.5
		c-0.4,0.3-0.7,0.8-0.8,1.3c-0.1,0.3-0.1,1-0.1,1.8V47h-0.9V40.3z"/>
	<polygon class="st0" points="61.9,37.7 62.7,37.7 62.7,40.3 64.1,40.3 64.1,41 62.7,41 62.7,47 61.9,47 61.9,41 60.7,41 60.7,40.3 
		61.9,40.3 	"/>
	<path class="st0" d="M68.9,41l-0.6,0.6c-0.5-0.5-0.9-0.7-1.4-0.7c-0.3,0-0.5,0.1-0.7,0.3c-0.2,0.2-0.3,0.4-0.3,0.7
		c0,0.2,0.1,0.4,0.2,0.6c0.2,0.2,0.5,0.4,1.1,0.7c0.7,0.3,1.1,0.7,1.3,1c0.2,0.3,0.3,0.7,0.3,1.1c0,0.6-0.2,1-0.6,1.4
		c-0.4,0.4-0.9,0.6-1.5,0.6c-0.4,0-0.8-0.1-1.1-0.3c-0.4-0.2-0.7-0.4-0.9-0.7l0.5-0.6c0.4,0.5,0.9,0.8,1.4,0.8
		c0.4,0,0.6-0.1,0.9-0.3c0.2-0.2,0.4-0.5,0.4-0.8c0-0.2-0.1-0.5-0.2-0.7c-0.2-0.2-0.5-0.4-1.1-0.7c-0.6-0.3-1-0.6-1.2-0.9
		c-0.2-0.3-0.3-0.7-0.3-1.1c0-0.5,0.2-0.9,0.5-1.3c0.4-0.3,0.8-0.5,1.3-0.5C67.6,40.1,68.2,40.4,68.9,41"/>
	<path class="st0" d="M83,39.4l-0.7,0.7c-0.5-0.5-1.1-0.9-1.7-1.1c-0.6-0.3-1.2-0.4-1.8-0.4c-0.7,0-1.4,0.2-2.1,0.5
		c-0.7,0.4-1.2,0.8-1.5,1.4c-0.4,0.6-0.5,1.2-0.5,1.9c0,0.7,0.2,1.3,0.6,2c0.4,0.6,0.9,1.1,1.5,1.5c0.7,0.4,1.4,0.5,2.1,0.5
		c0.9,0,1.7-0.3,2.4-0.8c0.7-0.5,1-1.2,1.2-2.1h-2.9v-0.9h4c0,1.4-0.4,2.5-1.3,3.4c-0.8,0.8-2,1.3-3.3,1.3c-1.7,0-3-0.6-4-1.7
		c-0.8-0.9-1.1-1.9-1.1-3.1c0-0.9,0.2-1.7,0.7-2.4c0.4-0.7,1-1.3,1.8-1.8c0.8-0.4,1.6-0.6,2.6-0.6c0.8,0,1.5,0.1,2.2,0.4
		C81.6,38.3,82.3,38.8,83,39.4"/>
	<path class="st0" d="M84.8,40.3h0.9v1c0.3-0.4,0.5-0.7,0.8-0.9c0.3-0.2,0.6-0.3,0.9-0.3c0.2,0,0.5,0.1,0.8,0.2L87.7,41
		c-0.2-0.1-0.3-0.1-0.5-0.1c-0.3,0-0.6,0.1-0.8,0.4c-0.3,0.2-0.5,0.6-0.6,1.1c-0.1,0.4-0.2,1.2-0.2,2.3V47h-0.9V40.3z"/>
	<path class="st0" d="M92.1,40.1c1,0,1.9,0.4,2.6,1.1c0.6,0.7,0.9,1.5,0.9,2.5c0,0.9-0.3,1.8-1,2.5c-0.7,0.7-1.5,1.1-2.5,1.1
		c-1,0-1.9-0.4-2.6-1.1c-0.7-0.7-1-1.5-1-2.5c0-0.9,0.3-1.8,0.9-2.4C90.2,40.5,91.1,40.1,92.1,40.1 M92.1,40.9
		c-0.7,0-1.4,0.3-1.9,0.8c-0.5,0.5-0.8,1.2-0.8,1.9c0,0.5,0.1,0.9,0.4,1.4c0.2,0.4,0.6,0.8,1,1c0.4,0.2,0.9,0.3,1.3,0.3
		c0.5,0,0.9-0.1,1.3-0.3c0.4-0.2,0.7-0.6,1-1c0.2-0.4,0.4-0.9,0.4-1.4c0-0.8-0.3-1.4-0.8-1.9S92.8,40.9,92.1,40.9"/>
	<path class="st0" d="M97.2,40.3H98v3.2c0,0.8,0,1.3,0.1,1.6c0.1,0.4,0.4,0.7,0.7,1c0.4,0.2,0.8,0.4,1.3,0.4c0.5,0,0.9-0.1,1.2-0.4
		c0.3-0.2,0.6-0.5,0.7-0.9c0.1-0.3,0.1-0.8,0.1-1.7v-3.2h0.9v3.3c0,0.9-0.1,1.6-0.3,2.1c-0.2,0.5-0.5,0.8-1,1.1
		c-0.4,0.3-1,0.4-1.7,0.4c-0.7,0-1.2-0.1-1.7-0.4c-0.4-0.3-0.8-0.6-1-1.1c-0.2-0.5-0.3-1.2-0.3-2.2V40.3z"/>
	<path class="st0" d="M105.1,40.3h0.9v1.2c0.3-0.5,0.7-0.8,1.2-1.1c0.4-0.2,0.9-0.4,1.5-0.4c1,0,1.8,0.3,2.5,1c0.7,0.7,1,1.5,1,2.5
		c0,1-0.3,1.8-1,2.5c-0.7,0.7-1.5,1-2.5,1c-0.5,0-1-0.1-1.5-0.3c-0.5-0.2-0.9-0.6-1.2-1v3.7h-0.9V40.3z M108.5,40.9
		c-0.8,0-1.4,0.3-1.9,0.8c-0.5,0.5-0.8,1.2-0.8,2c0,0.5,0.1,1,0.3,1.4c0.2,0.4,0.6,0.7,1,1c0.4,0.2,0.9,0.4,1.4,0.4
		c0.5,0,0.9-0.1,1.3-0.4c0.4-0.2,0.7-0.6,1-1c0.2-0.4,0.4-0.9,0.4-1.4c0-0.5-0.1-0.9-0.4-1.4c-0.2-0.4-0.6-0.8-1-1
		C109.5,41,109,40.9,108.5,40.9"/>
	<path class="st0" d="M97.7,10c2.5-0.3,5.3,0.5,7.4,2.2c2.3,1.8,3.8,4.6,4.2,7.6c0.3,3.1-0.6,6.5-2.7,9c-2.2,2.6-5.5,4.4-9,4.8
		c-3.7,0.3-7.5-0.9-10.5-3.3c-3-2.5-5-6.4-5.4-10.5c-0.3-4.2,1.1-8.6,3.9-11.9c2.9-3.3,7.2-5.6,11.7-5.9c0,0,0,0,0,0
		c-4.6,0.1-9.2,2-12.4,5.2c-3.3,3.3-5.2,8-5.2,12.6c0,4.7,1.9,9.3,5.2,12.6c3.3,3.3,8,5.2,12.6,5.2c4.7,0,9.3-1.9,12.6-5.2
		c3.3-3.3,5.2-8,5.2-12.6c0-4.7-1.9-9.3-5.2-12.6c-3.2-3.2-7.8-5.2-12.4-5.2c-0.1,0-0.2,0.1-0.2,0.2v7.7C97.5,9.9,97.6,10,97.7,10"
		/>
	<path class="st0" d="M90.4,21.3c0-1.9,0.7-3.5,2.1-4.9c1.4-1.4,3-2.1,4.9-2.1c1.9,0,3.6,0.7,5,2.1c1.4,1.3,2.1,3,2.1,5
		c0,2-0.7,3.6-2.1,5c-1.3,1.4-3,2.1-4.9,2.1c-1.9,0-3.6-0.7-5-2.1C91.1,25,90.4,23.3,90.4,21.3"/>
</g>
</svg>
