<?xml version="1.0" encoding="utf-8"?>
<!-- Generator: Adobe Illustrator 21.1.0, SVG Export Plug-In . SVG Version: 6.00 Build 0)  -->
<svg version="1.1" id="Layer_1" xmlns="http://www.w3.org/2000/svg" xmlns:xlink="http://www.w3.org/1999/xlink" x="0px" y="0px"
	 viewBox="0 0 124.4 51.4" style="enable-background:new 0 0 124.4 51.4;" xml:space="preserve">
<style type="text/css">
	.st0{fill:#FFFFFF;}
	.st1{fill:#00937F;}
	.st2{fill:#7C7C81;}
	.st3{fill:#B3CB04;}
	.st4{fill:#1E6679;}
	.st5{fill:#60AE42;}
	.st6{fill:#0046AD;}
	.st7{fill-rule:evenodd;clip-rule:evenodd;fill:#FFFFFF;}
	.st8{fill-rule:evenodd;clip-rule:evenodd;}
	.st9{fill:none;stroke:#FFFFFF;stroke-width:0.685;stroke-miterlimit:1;stroke-dasharray:0.685,0.685;}
	.st10{fill:none;stroke:#FFFFFF;stroke-width:0.429;stroke-miterlimit:1;stroke-dasharray:0.309,0.524;}
	.st11{fill:none;stroke:#000000;stroke-width:0.913;stroke-linecap:round;stroke-miterlimit:6;stroke-dasharray:0.913,0.913;}
</style>
<g>
	<path class="st0" d="M10.8,32.2c2.8-6.9,11.1-7.5,14.1-11c-1.9,3.7-10.1,6.2-12.2,13.2c7.6,1.2,17.7-8.3,14.4-17.1
		C25.3,21,9.2,21.2,10.8,32.2z"/>
	<path class="st0" d="M19.2,9.2c-9.1,0-16.5,7.4-16.5,16.5s7.4,16.5,16.5,16.5s16.5-7.4,16.5-16.5S28.3,9.2,19.2,9.2z M12.1,36.5
		c-1.4-0.2-2.7-0.7-3-2.4C7,18.2,28.9,21.6,26.9,14.1C34.9,24,27.5,38.6,12.1,36.5z"/>
	<path class="st0" d="M118.9,26.1h-12.7V15.7h6.8v9.1h5.9V26.1z M105,26.1H91.8V15.7h13.1v1.3h-6.4v2.8h5.8v1.3h-5.8v3.7h6.5V26.1z
		 M83.7,24.2v-2.6c0-0.4-0.6-0.5-1.9-0.5v3.7C83.1,24.8,83.7,24.6,83.7,24.2 M83.7,19.4v-1.8c0-0.4-0.6-0.5-1.9-0.5v2.9
		C83.1,19.9,83.7,19.8,83.7,19.4 M75,26.1V15.7h8c1.9,0,3.6,0.1,5,0.4c1.4,0.3,2.1,0.8,2.1,1.4V19c0,0.7-1.3,1.2-4,1.5
		c2.8,0.2,4.2,0.7,4.2,1.5v2c0,0.7-0.7,1.2-2,1.5c-1.3,0.3-2.9,0.5-4.7,0.5H75z M57.8,15.7h6.8v8.7c0,0.2,0.4,0.3,1.1,0.3
		c0.7,0,1.1-0.1,1.1-0.3v-8.7h6.8v8.6c0,0.6-0.7,1.1-2.2,1.4s-3.4,0.5-5.7,0.5c-2.1,0-4-0.1-5.6-0.4c-1.6-0.3-2.3-0.8-2.3-1.4V15.7z
		 M56.5,26.1h-6.8v-5h-1.9v5h-6.8V15.7h6.8v4.2h1.9v-4.2h6.8V26.1z"/>
	<path class="st0" d="M45.4,36.4l3.2-7.3h-1.1l-2.7,6.4l-2.7-6.4H41l3.2,7.3H45.4z M49.3,33.2c0.1-0.5,0.3-0.8,0.6-1.1
		c0.3-0.3,0.8-0.4,1.3-0.4c0.5,0,0.9,0.1,1.3,0.4c0.3,0.3,0.5,0.6,0.6,1.1H49.3z M49.3,33.9h4.9v-0.2c0-0.9-0.3-1.6-0.8-2.1
		c-0.5-0.5-1.2-0.8-2.2-0.8c-0.9,0-1.6,0.3-2.2,0.8c-0.5,0.5-0.8,1.2-0.8,2.1c0,0.9,0.3,1.6,0.8,2.1c0.5,0.5,1.3,0.8,2.2,0.8
		c0.7,0,1.3-0.2,1.8-0.5c0.5-0.3,0.9-0.8,1-1.4H53c-0.1,0.3-0.3,0.5-0.6,0.7c-0.3,0.2-0.7,0.3-1.1,0.3c-0.6,0-1-0.2-1.4-0.5
		C49.5,34.9,49.3,34.5,49.3,33.9L49.3,33.9z M58.3,31.9c0.1,0,0.2,0,0.4,0.1v-1c-0.1,0-0.1-0.1-0.2-0.1c-0.1,0-0.1,0-0.2,0
		c-0.4,0-0.8,0.1-1.1,0.3c-0.3,0.2-0.6,0.5-0.9,0.8V31h-1v5.4h1v-2.6c0-0.6,0.2-1,0.5-1.4c0.3-0.4,0.7-0.6,1.2-0.6
		C58.1,31.8,58.2,31.9,58.3,31.9 M64,33.7c0,0.6-0.2,1.1-0.5,1.4c-0.4,0.3-0.8,0.5-1.4,0.5c-0.6,0-1.1-0.2-1.4-0.5
		c-0.3-0.3-0.5-0.8-0.5-1.4c0-0.6,0.2-1.1,0.5-1.4c0.3-0.3,0.8-0.5,1.4-0.5c0.6,0,1.1,0.2,1.4,0.5C63.8,32.7,64,33.1,64,33.7
		 M64,36.4h1v-7.3h-1v2.7c-0.3-0.3-0.6-0.5-0.9-0.7c-0.3-0.2-0.7-0.2-1.2-0.2c-0.9,0-1.6,0.3-2.1,0.8c-0.5,0.5-0.8,1.2-0.8,2
		c0,0.8,0.3,1.5,0.8,2.1c0.5,0.5,1.2,0.8,2.1,0.8c0.4,0,0.8-0.1,1.2-0.2c0.3-0.2,0.6-0.4,0.9-0.7V36.4z M71,33.2h-3.8
		c0.1-0.5,0.3-0.8,0.6-1.1c0.3-0.3,0.8-0.4,1.3-0.4c0.5,0,0.9,0.1,1.3,0.4C70.7,32.4,70.9,32.8,71,33.2 M72,33.9v-0.2
		c0-0.9-0.3-1.6-0.8-2.1c-0.5-0.5-1.2-0.8-2.2-0.8c-0.9,0-1.6,0.3-2.2,0.8c-0.5,0.5-0.8,1.2-0.8,2.1c0,0.9,0.3,1.6,0.8,2.1
		c0.5,0.5,1.3,0.8,2.2,0.8c0.7,0,1.3-0.2,1.8-0.5c0.5-0.3,0.9-0.8,1-1.4h-1.1c-0.1,0.3-0.3,0.5-0.6,0.7c-0.3,0.2-0.7,0.3-1.1,0.3
		c-0.6,0-1-0.2-1.4-0.5c-0.4-0.3-0.5-0.7-0.5-1.3v0H72z"/>
	<path class="st0" d="M119.8,17.3h0.2c0.2,0,0.4-0.1,0.4-0.3c0-0.2-0.1-0.3-0.4-0.3c-0.1,0-0.2,0-0.2,0V17.3z M119.8,18.3h-0.3v-1.8
		c0.2,0,0.3,0,0.5,0c0.3,0,0.5,0.1,0.6,0.1c0.1,0.1,0.2,0.2,0.2,0.4c0,0.2-0.2,0.4-0.4,0.4v0c0.2,0,0.3,0.2,0.3,0.4
		c0,0.3,0.1,0.4,0.1,0.4h-0.3c0-0.1-0.1-0.2-0.1-0.5c0-0.2-0.2-0.3-0.4-0.3h-0.2V18.3z M120.1,16c-0.7,0-1.3,0.6-1.3,1.4
		c0,0.8,0.6,1.4,1.3,1.4c0.7,0,1.3-0.6,1.3-1.4S120.8,16,120.1,16L120.1,16z M120.1,15.7c0.9,0,1.6,0.7,1.6,1.6
		c0,0.9-0.7,1.6-1.6,1.6c-0.9,0-1.6-0.7-1.6-1.6C118.5,16.4,119.2,15.7,120.1,15.7L120.1,15.7z"/>
</g>
</svg>
