<?xml version="1.0" encoding="utf-8"?>
<!-- Generator: Adobe Illustrator 21.1.0, SVG Export Plug-In . SVG Version: 6.00 Build 0)  -->
<svg version="1.1" id="Layer_1" xmlns="http://www.w3.org/2000/svg" xmlns:xlink="http://www.w3.org/1999/xlink" x="0px" y="0px"
	 viewBox="0 0 440 145.3" style="enable-background:new 0 0 440 145.3;" xml:space="preserve">
<style type="text/css">
	.st0{fill:#FFFFFF;}
	.st1{fill:#76B72A;}
	.st2{fill:url(#SVGID_1_);}
	.st3{fill:url(#SVGID_2_);}
	.st4{clip-path:url(#SVGID_4_);}
	.st5{fill:url(#SVGID_5_);}
	.st6{opacity:0.71;fill:url(#SVGID_6_);enable-background:new    ;}
	.st7{clip-path:url(#SVGID_8_);}
	.st8{fill:url(#SVGID_9_);}
	.st9{fill:url(#SVGID_10_);}
	.st10{clip-path:url(#SVGID_12_);}
	.st11{clip-path:url(#SVGID_14_);}
	.st12{clip-path:url(#SVGID_14_);fill:url(#SVGID_15_);}
</style>
<title>ww-logo</title>
<g>
	<g id="WORK_PERMIT_">
		<path id="_" class="st0" d="M416.8,85.5c0,1-0.3,1.9-1,2.7c-1.5,1.4-3.8,1.4-5.3,0c-1.4-1.5-1.4-3.8,0-5.3
			c0.7-0.7,1.7-1.1,2.6-1.1c1,0,2,0.3,2.7,1.1C416.5,83.6,416.9,84.5,416.8,85.5L416.8,85.5z M416.4,85.5c0-0.9-0.3-1.7-0.9-2.4
			c-1.3-1.3-3.4-1.3-4.7,0c-1.2,1.4-1.2,3.4,0,4.8c1.3,1.3,3.4,1.3,4.7,0C416.1,87.3,416.4,86.4,416.4,85.5L416.4,85.5z M412.5,87.5
			c0,0.1,0,0.2-0.1,0.2c0,0,0,0-0.1,0h-0.4c-0.1,0-0.2-0.1-0.2-0.2c0,0,0,0,0-0.1v-4c0-0.2,0.1-0.3,0.2-0.3h1c0.4,0,0.9,0,1.3,0.2
			c0.4,0.2,0.7,0.7,0.6,1.2c0.1,0.5-0.2,1-0.7,1.2l0.9,1.6c0,0.1,0.1,0.1,0.1,0.2c0,0.1-0.1,0.2-0.2,0.2h-0.5
			c-0.1,0-0.2-0.1-0.3-0.2l-0.9-1.6h-0.8L412.5,87.5L412.5,87.5z M412.9,85.2c0.2,0,0.4,0,0.7-0.1c0.2-0.1,0.4-0.3,0.4-0.6
			c0-0.2-0.1-0.5-0.3-0.6c-0.2-0.1-0.5-0.1-0.7-0.1h-0.4v1.3L412.9,85.2z"/>
		<g id="PERMIT">
			<path class="st1" d="M299.4,70c-1,7.3-3.7,9.1-10.8,9.1c-1.6,0-3.2-0.1-4.8-0.3l-1.4,10h-7.6l3.9-28c3.5-0.4,5.8-0.4,10.9-0.4
				C297.6,60.3,300.4,62.6,299.4,70z M289.3,65.9h-3.8l-1.1,7.6h3.5c2.6,0,3.4-0.5,3.9-4.1C292.3,66.6,291.7,65.9,289.3,65.9z"/>
			<path class="st1" d="M310.6,66.5c-1.5,0-2,0.4-2.2,1.9l-0.4,3.3h10.5l-0.7,5.2h-10.6l-0.6,4.2c-0.2,1.3,0.3,1.8,1.6,1.8h10
				l-0.2,5.5c-3.8,0.4-8.9,0.4-13,0.4c-4.7,0-6.8-2.9-6.3-7.2l2.1-15.2c0.5-3.6,2.9-5.9,7-5.9c4.7,0,9.8,0,13.6,0.5l-0.9,5.4H310.6z
				"/>
			<path class="st1" d="M338.4,75.5l0,0.3c1.4,0.2,3.2,1.2,3.5,4.4l1.2,8.5h-7.8l-1-8.6c-0.1-1.7-0.6-2-2-2h-3.8l-1.5,10.6h-7.4
				l3.9-28c3.5-0.4,6-0.4,10.9-0.4c7.2,0,11.1,2.1,10.2,8.7C344.3,72.4,342.8,75.1,338.4,75.5z M334.4,65.9h-4.1l-0.9,6.7h3.7
				c2.8,0,3.7-0.7,4.1-3.7C337.4,66.6,336.8,65.9,334.4,65.9L334.4,65.9z"/>
			<path class="st1" d="M377.6,60.7c1.8,0,2.8,1.1,2.6,2.8l-2.5,25.2h-7l2.3-22.2h-0.6l-5.6,15.8c-0.5,1.6-1.5,2.2-3.1,2.2h-4.3
				c-1.7,0-2.7-0.9-2.8-2.5l-1.3-15.5h-0.7l-3.8,22.2h-7l4.6-25.5c0.3-1.7,1.1-2.6,2.8-2.6h6.7c1.6,0,2.6,0.9,2.6,2.5l1,12.4
				c0.1,1.4,0.1,2.7,0,4.1h0.5c0.4-1.5,0.7-2.7,1.1-4l4.3-12.8c0.4-1.6,1.4-2.3,3.1-2.3L377.6,60.7z"/>
			<path class="st1" d="M380,88.7l3.9-28h7.6l-3.9,28H380z"/>
			<path class="st1" d="M407.3,66.6l-3.1,22.1h-7.6l3.1-22.1h-8l0.8-5.9h23.7l-0.8,5.9H407.3z"/>
		</g>
		<g id="WORK">
			<path class="st0" d="M191.4,86.8c-0.3,1.2-1.5,2-2.7,1.9H182c-1.3,0-2.5-1-2.5-2.2L179.5,70c0-1.4,0-2.6,0.1-3.9h-0.8
				c-0.2,1.3-0.5,2.7-0.9,3.9l-4.7,16.7c-0.3,1.2-1.5,2-2.7,2h-6.8c-1.3,0-2.5-1-2.5-2.2l-0.4-25.8h7.6L167.8,79
				c0,1.3-0.2,2.7-0.2,4.4h0.8c0.3-1.6,0.7-3.3,1.1-4.7l4.6-15.9c0.3-1.3,1.4-2.2,2.8-2.2h5.7c1.3,0,2.4,1.1,2.4,2.4c0,0,0,0,0,0.1
				l0.3,16c0,1.4,0,3,0,4.3h0.8c0.2-1.5,0.5-3.1,1-4.6l4.5-18.2h7.6L191.4,86.8z"/>
			<path class="st0" d="M222.4,74.9c-1.5,11.4-5.4,14.3-14,14.3c-9.2,0-12.5-3.5-10.9-14.9c1.5-11.2,5.2-14.3,13.9-14.3
				C220.2,60,224,63.5,222.4,74.9z M205.5,74.9c-1,6.8-0.3,8.5,3.1,8.5c3.6,0,4.7-1.7,5.8-9c1-6.9,0.3-8.5-3.2-8.5
				C207.7,65.9,206.6,67.6,205.5,74.9L205.5,74.9z"/>
			<path class="st0" d="M241.2,75.5l0,0.3c1.4,0.2,3.2,1.2,3.5,4.4l1.2,8.5h-7.8l-1-8.6c-0.1-1.7-0.6-2-2-2h-3.8l-1.5,10.6h-7.4
				l3.9-28c3.5-0.4,6-0.4,10.9-0.4c7.2,0,11.1,2.1,10.2,8.7C247.1,72.4,245.6,75,241.2,75.5z M237.2,65.8h-4.1l-0.9,6.7h3.7
				c2.8,0,3.7-0.7,4.1-3.7C240.2,66.5,239.6,65.8,237.2,65.8L237.2,65.8z"/>
			<path class="st0" d="M263.7,74.7c0.7,0.4,1.6,1.6,2,2.7l5.3,11.3h-8.3l-4.9-12h-1.8c0.1,0.9,0.1,1.8,0,2.8l-1.3,9.2h-7.7l3.9-28
				h7.7l-1.1,8c-0.1,1-0.3,2-0.7,3h1.8l7.5-10.9h8.6l-8.3,11.6c-0.7,1-1.6,1.8-2.7,2.3L263.7,74.7z"/>
		</g>
	</g>
	<g>
		
			<linearGradient id="SVGID_1_" gradientUnits="userSpaceOnUse" x1="69.3696" y1="138.843" x2="69.3696" y2="138.843" gradientTransform="matrix(1 0 0 -1 0 178.1801)">
			<stop  offset="0" style="stop-color:#201845"/>
			<stop  offset="0.14" style="stop-color:#1F1D4A"/>
			<stop  offset="0.32" style="stop-color:#1B2B5A"/>
			<stop  offset="0.52" style="stop-color:#154374"/>
			<stop  offset="0.73" style="stop-color:#0D6498"/>
			<stop  offset="0.95" style="stop-color:#038EC5"/>
			<stop  offset="1" style="stop-color:#0098D0"/>
		</linearGradient>
		<path class="st2" d="M69.4,39.3L69.4,39.3z"/>
		
			<linearGradient id="SVGID_2_" gradientUnits="userSpaceOnUse" x1="87.8347" y1="95.4149" x2="56.5506" y2="126.6991" gradientTransform="matrix(1 0 0 -1 0 178.1801)">
			<stop  offset="0" style="stop-color:#201845"/>
			<stop  offset="0.16" style="stop-color:#1E1E4C"/>
			<stop  offset="0.38" style="stop-color:#192E5F"/>
			<stop  offset="0.64" style="stop-color:#0F497D"/>
			<stop  offset="0.94" style="stop-color:#036EA8"/>
			<stop  offset="1" style="stop-color:#0077B2"/>
		</linearGradient>
		<path class="st3" d="M69.5,40.8c0.5,4.9,1.7,21.4-3.8,33.9l4.8,12.2c0.1,0.2,0.1,0.3,0.3,0.8c0,0,3.5,9,7.6,4.5
			c0.5-0.7,1-1.4,1.3-2.2c1.5-4.2,2.6-8.4,3.4-12.8C76.4,59.9,70,43,69.6,41.4C69.6,41.2,69.6,41,69.5,40.8z"/>
		<g>
			<defs>
				<path id="SVGID_3_" d="M70.8,87.7c-0.2-0.4-0.3-0.6-0.3-0.8c-6.9-17.5-13.8-35.1-20.6-52.6c-4-10.3-15.9-11.1-22.2-5.8
					c-4.3,3.7-5.7,10.1-3.4,16c4,10.2,8,20.3,11.9,30.5c3.4,8.7,6.8,17.5,10.3,26.2c2,5.2,7,8.6,12.6,8.5c5.2,0,9.4-2.4,12.9-6
					c3.7-3.9,6.1-8.6,7.8-13.6c-0.3,0.8-0.8,1.6-1.3,2.2C74.3,96.7,70.8,87.7,70.8,87.7z"/>
			</defs>
			<clipPath id="SVGID_4_">
				<use xlink:href="#SVGID_3_"  style="overflow:visible;"/>
			</clipPath>
			<g class="st4">
				
					<linearGradient id="SVGID_5_" gradientUnits="userSpaceOnUse" x1="23.1477" y1="110.7537" x2="79.6989" y2="110.7537" gradientTransform="matrix(1 0 0 -1 0 178.1801)">
					<stop  offset="0" style="stop-color:#006292"/>
					<stop  offset="0.37" style="stop-color:#025F8F"/>
					<stop  offset="0.63" style="stop-color:#075686"/>
					<stop  offset="0.86" style="stop-color:#104876"/>
					<stop  offset="1" style="stop-color:#183A68"/>
				</linearGradient>
				<path class="st5" d="M70.8,87.7c-0.2-0.4-0.3-0.6-0.3-0.8c-6.9-17.5-13.8-35.1-20.6-52.6c-4-10.3-15.9-11.1-22.2-5.8
					c-4.3,3.7-5.7,10.1-3.4,16c4,10.2,8,20.3,11.9,30.5c3.4,8.7,6.8,17.5,10.3,26.2c2,5.2,7,8.6,12.6,8.5c5.2,0,9.4-2.4,12.9-6
					c3.7-3.9,6.1-8.6,7.8-13.6c-0.3,0.8-0.8,1.6-1.3,2.2C74.3,96.7,70.8,87.7,70.8,87.7z"/>
				
					<radialGradient id="SVGID_6_" cx="28.6405" cy="138.1742" r="54.4746" gradientTransform="matrix(1 0 0 -1 0 178.1801)" gradientUnits="userSpaceOnUse">
					<stop  offset="0" style="stop-color:#FFFFFF;stop-opacity:0.5"/>
					<stop  offset="7.000000e-02" style="stop-color:#F1F6F9;stop-opacity:0.49"/>
					<stop  offset="0.17" style="stop-color:#C9DEE8;stop-opacity:0.46"/>
					<stop  offset="0.3" style="stop-color:#88B6CC;stop-opacity:0.42"/>
					<stop  offset="0.44" style="stop-color:#2E7EA6;stop-opacity:0.35"/>
					<stop  offset="0.5" style="stop-color:#006292;stop-opacity:0.32"/>
					<stop  offset="0.77" style="stop-color:#0D4E78;stop-opacity:0.16"/>
					<stop  offset="1" style="stop-color:#193A5F;stop-opacity:0"/>
				</radialGradient>
				<circle class="st6" cx="28.6" cy="40" r="54.5"/>
			</g>
		</g>
		<g>
			<defs>
				<path id="SVGID_7_" d="M123.5,105.1c-7.4-19-20.2-52.3-27.7-71.3c-2.6-6.7-10-10.1-17.2-8c-6.6,2-10.5,8.5-9,15.5
					c0.7,3.1,25.2,66.1,28.2,73.5c3,7.6,10.7,11,18.5,8C123.1,120.3,126.4,112.4,123.5,105.1z"/>
			</defs>
			<clipPath id="SVGID_8_">
				<use xlink:href="#SVGID_7_"  style="overflow:visible;"/>
			</clipPath>
			<g class="st7">
				
					<linearGradient id="SVGID_9_" gradientUnits="userSpaceOnUse" x1="122.783" y1="58.8085" x2="71.0913" y2="148.3386" gradientTransform="matrix(1 0 0 -1 0 178.1801)">
					<stop  offset="0" style="stop-color:#11284A"/>
					<stop  offset="0.29" style="stop-color:#0B3C63"/>
					<stop  offset="0.75" style="stop-color:#035885"/>
					<stop  offset="1" style="stop-color:#006292"/>
				</linearGradient>
				<path class="st8" d="M123.5,105.1c-7.4-19-20.2-52.3-27.7-71.3c-2.6-6.7-10-10.1-17.2-8c-6.6,2-10.5,8.5-9,15.5
					c0.7,3.1,25.2,66.1,28.2,73.5c3,7.6,10.7,11,18.5,8C123.1,120.3,126.4,112.4,123.5,105.1z"/>
				
					<radialGradient id="SVGID_10_" cx="79.7393" cy="146.9817" r="45.6671" gradientTransform="matrix(1 0 0 -1 0 178.1801)" gradientUnits="userSpaceOnUse">
					<stop  offset="0" style="stop-color:#FFFFFF;stop-opacity:0.5"/>
					<stop  offset="7.000000e-02" style="stop-color:#F1F6F9;stop-opacity:0.49"/>
					<stop  offset="0.17" style="stop-color:#C9DEE8;stop-opacity:0.46"/>
					<stop  offset="0.3" style="stop-color:#88B6CC;stop-opacity:0.42"/>
					<stop  offset="0.44" style="stop-color:#2E7EA6;stop-opacity:0.35"/>
					<stop  offset="0.5" style="stop-color:#006292;stop-opacity:0.32"/>
					<stop  offset="0.77" style="stop-color:#0D4E78;stop-opacity:0.16"/>
					<stop  offset="1" style="stop-color:#193A5F;stop-opacity:0"/>
				</radialGradient>
				<circle class="st9" cx="79.7" cy="31.2" r="45.7"/>
			</g>
		</g>
		<g id="WP-v3">
			<defs>
				<path id="SVGID_11_" d="M146.1,58c-7.4-19-1.8-5.2-9.3-24.1c-2.6-6.7-10-10.1-17.2-8c-6.6,2-10.5,8.5-9,15.5
					c0.7,3.1,6.9,19,9.8,26.4c3,7.6,10.7,11,18.5,8C145.7,73.2,149,65.3,146.1,58z"/>
			</defs>
			<clipPath id="SVGID_12_">
				<use xlink:href="#SVGID_11_"  style="overflow:visible;"/>
			</clipPath>
			<g id="WP" class="st10">
				<g>
					<defs>
						<path id="SVGID_13_" d="M146.1,58c-7.4-19-1.8-5.2-9.3-24.1c-2.6-6.7-10-10.1-17.2-8c-6.6,2-10.5,8.5-9,15.5
							c0.7,3.1,6.9,19,9.8,26.4c3,7.6,10.7,11,18.5,8C145.7,73.2,149,65.3,146.1,58z"/>
					</defs>
					<clipPath id="SVGID_14_">
						<use xlink:href="#SVGID_13_"  style="overflow:visible;"/>
					</clipPath>
					<g class="st11">
						<path class="st1" d="M146.1,58c-7.4-19-1.8-5.2-9.3-24.1c-2.6-6.7-10-10.1-17.2-8c-6.6,2-10.5,8.5-9,15.5
							c0.7,3.1,6.9,19,9.8,26.4c3,7.6,10.7,11,18.5,8C145.7,73.2,149,65.3,146.1,58z"/>
					</g>
					
						<radialGradient id="SVGID_15_" cx="83.5723" cy="145.4644" r="44.8142" gradientTransform="matrix(0.85 0 0 -1 64.1253 178.1801)" gradientUnits="userSpaceOnUse">
						<stop  offset="0" style="stop-color:#FFFFFF;stop-opacity:0.5"/>
						<stop  offset="0.14" style="stop-color:#F2F4F6;stop-opacity:0.47"/>
						<stop  offset="0.35" style="stop-color:#CED5DD;stop-opacity:0.39"/>
						<stop  offset="0.6" style="stop-color:#94A3B4;stop-opacity:0.27"/>
						<stop  offset="0.87" style="stop-color:#435E7C;stop-opacity:9.000000e-02"/>
						<stop  offset="1" style="stop-color:#193A5F;stop-opacity:0"/>
					</radialGradient>
					<ellipse class="st12" cx="135.6" cy="32.7" rx="38.2" ry="44.8"/>
				</g>
			</g>
		</g>
	</g>
</g>
</svg>
